<svg width="315" height="455" viewBox="0 0 315 455" fill="none" xmlns="http://www.w3.org/2000/svg">
<rect width="315" height="455" rx="20" fill="white"/>
<path d="M21.11 22.414C22.986 22.876 23.798 23.702 23.798 25.186C23.798 26.964 22.398 28.14 20.298 28.14C18.1 28.14 16.84 26.88 16.77 25.088H18.38C18.45 26.096 19.136 26.74 20.396 26.74C21.474 26.74 22.188 26.166 22.188 25.298C22.188 24.584 21.726 24.164 20.634 23.898L19.57 23.618C17.722 23.156 16.938 22.344 16.938 20.902C16.938 19.194 18.282 18.046 20.298 18.046C22.384 18.046 23.56 19.39 23.644 20.986H22.006C21.922 20.09 21.306 19.446 20.228 19.446C19.22 19.446 18.548 19.978 18.548 20.79C18.548 21.476 18.968 21.882 19.962 22.12L21.11 22.414ZM31.0823 28L31.0263 26.88C30.5363 27.65 29.7243 28.14 28.6043 28.14C26.5463 28.14 25.1323 26.684 25.1323 24.5C25.1323 22.316 26.5463 20.86 28.6043 20.86C29.7103 20.902 30.5083 21.364 31.0123 22.12V21H32.5523V28H31.0823ZM28.9123 26.81C30.2563 26.81 31.1523 25.886 31.1523 24.5C31.1523 23.114 30.2563 22.19 28.9123 22.19C27.5683 22.19 26.6723 23.114 26.6723 24.5C26.6723 25.886 27.5683 26.81 28.9123 26.81ZM34.5073 28V21H36.0473V22.148C36.5513 21.336 37.4193 20.86 38.4973 20.86C39.6453 20.86 40.4993 21.49 40.8773 22.554C41.3253 21.49 42.2773 20.86 43.5373 20.86C45.0913 20.86 46.1273 22.036 46.1273 23.87V28H44.5873V24.08C44.5873 22.946 43.9433 22.19 42.9773 22.19C41.8433 22.19 41.0873 22.946 41.0873 24.08V28H39.5473V24.08C39.5473 22.946 38.9033 22.19 37.9373 22.19C36.8033 22.19 36.0473 22.946 36.0473 24.08V28H34.5073ZM49.4868 21V22.106C49.9908 21.336 50.8028 20.86 51.9368 20.86C53.9668 20.86 55.3668 22.316 55.3668 24.5C55.3668 26.684 53.9668 28.14 51.9368 28.14C50.8028 28.14 49.9908 27.664 49.4868 26.894V31.36H47.9468V21H49.4868ZM51.5868 26.81C52.9308 26.81 53.8268 25.886 53.8268 24.5C53.8268 23.114 52.9308 22.19 51.5868 22.19C50.2428 22.19 49.3468 23.114 49.3468 24.5C49.3468 25.886 50.2428 26.81 51.5868 26.81ZM62.4319 28L62.3759 26.88C61.8859 27.65 61.0739 28.14 59.9539 28.14C57.8959 28.14 56.4819 26.684 56.4819 24.5C56.4819 22.316 57.8959 20.86 59.9539 20.86C61.0599 20.902 61.8579 21.364 62.3619 22.12V21H63.9019V28H62.4319ZM60.2619 26.81C61.6059 26.81 62.5019 25.886 62.5019 24.5C62.5019 23.114 61.6059 22.19 60.2619 22.19C58.9179 22.19 58.0219 23.114 58.0219 24.5C58.0219 25.886 58.9179 26.81 60.2619 26.81ZM65.941 21H67.481V28H65.941V21ZM66.711 17.36C67.229 17.36 67.649 17.766 67.649 18.27C67.649 18.774 67.229 19.18 66.711 19.18C66.179 19.18 65.759 18.774 65.759 18.27C65.759 17.766 66.179 17.36 66.711 17.36ZM76.1573 21L73.3993 23.828L76.2973 28H74.3373L72.2793 24.78L71.0473 25.83V28H69.5073V17.36H71.0473V24.234L74.1273 21H76.1573ZM82.6799 28L82.6239 26.88C82.1339 27.65 81.3219 28.14 80.2019 28.14C78.1439 28.14 76.7299 26.684 76.7299 24.5C76.7299 22.316 78.1439 20.86 80.2019 20.86C81.3079 20.902 82.1059 21.364 82.6099 22.12V21H84.1499V28H82.6799ZM80.5099 26.81C81.8539 26.81 82.7499 25.886 82.7499 24.5C82.7499 23.114 81.8539 22.19 80.5099 22.19C79.1659 22.19 78.2699 23.114 78.2699 24.5C78.2699 25.886 79.1659 26.81 80.5099 26.81ZM86.105 28V21H87.645V22.344C88.135 21.406 89.031 20.86 90.235 20.86C91.929 20.86 92.895 22.092 92.895 24.01V28H91.355V24.22C91.355 23.03 90.753 22.19 89.605 22.19C88.415 22.19 87.645 23.03 87.645 24.22V28H86.105ZM103.678 18.2L107.668 28H105.848L104.924 25.648H100.192L99.2683 28H97.4483L101.452 18.2H103.678ZM100.71 24.318H104.406L102.558 19.614L100.71 24.318ZM111.263 20.86C112.929 20.86 114.091 21.826 114.133 23.142L112.635 23.128C112.523 22.47 111.921 22.12 111.249 22.12C110.563 22.12 110.115 22.442 110.115 22.946C110.115 23.366 110.381 23.59 111.011 23.73L112.061 23.94C113.629 24.248 114.301 24.85 114.301 25.942C114.301 27.258 113.125 28.14 111.375 28.14C109.513 28.14 108.449 27.23 108.365 25.858H109.863C109.961 26.53 110.605 26.88 111.403 26.88C112.215 26.88 112.761 26.53 112.761 26.026C112.761 25.578 112.439 25.326 111.669 25.172L110.633 24.976C109.191 24.71 108.575 24.108 108.575 22.974C108.575 21.7 109.653 20.86 111.263 20.86ZM117.313 21V22.106C117.817 21.336 118.629 20.86 119.763 20.86C121.793 20.86 123.193 22.316 123.193 24.5C123.193 26.684 121.793 28.14 119.763 28.14C118.629 28.14 117.817 27.664 117.313 26.894V31.36H115.773V21H117.313ZM119.413 26.81C120.757 26.81 121.653 25.886 121.653 24.5C121.653 23.114 120.757 22.19 119.413 22.19C118.069 22.19 117.173 23.114 117.173 24.5C117.173 25.886 118.069 26.81 119.413 26.81ZM124.812 21H126.352V28H124.812V21ZM125.582 17.36C126.1 17.36 126.52 17.766 126.52 18.27C126.52 18.774 126.1 19.18 125.582 19.18C125.05 19.18 124.63 18.774 124.63 18.27C124.63 17.766 125.05 17.36 125.582 17.36ZM128.378 28V21H129.918V22.414C130.324 21.476 131.038 21 132.158 21H132.718V22.33H132.158C130.562 22.33 129.918 22.974 129.918 24.57V28H128.378ZM139.09 28L139.034 26.88C138.544 27.65 137.732 28.14 136.612 28.14C134.554 28.14 133.14 26.684 133.14 24.5C133.14 22.316 134.554 20.86 136.612 20.86C137.718 20.902 138.516 21.364 139.02 22.12V21H140.56V28H139.09ZM136.92 26.81C138.264 26.81 139.16 25.886 139.16 24.5C139.16 23.114 138.264 22.19 136.92 22.19C135.576 22.19 134.68 23.114 134.68 24.5C134.68 25.886 135.576 26.81 136.92 26.81ZM144.923 20.86C146.589 20.86 147.751 21.826 147.793 23.142L146.295 23.128C146.183 22.47 145.581 22.12 144.909 22.12C144.223 22.12 143.775 22.442 143.775 22.946C143.775 23.366 144.041 23.59 144.671 23.73L145.721 23.94C147.289 24.248 147.961 24.85 147.961 25.942C147.961 27.258 146.785 28.14 145.035 28.14C143.173 28.14 142.109 27.23 142.025 25.858H143.523C143.621 26.53 144.265 26.88 145.063 26.88C145.875 26.88 146.421 26.53 146.421 26.026C146.421 25.578 146.099 25.326 145.329 25.172L144.293 24.976C142.851 24.71 142.235 24.108 142.235 22.974C142.235 21.7 143.313 20.86 144.923 20.86ZM149.517 21H151.057V28H149.517V21ZM150.287 17.36C150.805 17.36 151.225 17.766 151.225 18.27C151.225 18.774 150.805 19.18 150.287 19.18C149.755 19.18 149.335 18.774 149.335 18.27C149.335 17.766 149.755 17.36 150.287 17.36ZM153.084 28V21H154.624V22.148C155.128 21.336 155.996 20.86 157.074 20.86C158.222 20.86 159.076 21.49 159.454 22.554C159.902 21.49 160.854 20.86 162.114 20.86C163.668 20.86 164.704 22.036 164.704 23.87V28H163.164V24.08C163.164 22.946 162.52 22.19 161.554 22.19C160.42 22.19 159.664 22.946 159.664 24.08V28H158.124V24.08C158.124 22.946 157.48 22.19 156.514 22.19C155.38 22.19 154.624 22.946 154.624 24.08V28H153.084ZM167.923 24.92C167.923 26.054 168.567 26.81 169.533 26.81C170.625 26.81 171.353 26.054 171.353 24.92V21H172.893V28H171.353V26.81C170.891 27.65 170.079 28.14 168.973 28.14C167.419 28.14 166.383 26.964 166.383 25.13V21H167.923V24.92ZM183.879 28L183.823 26.88C183.333 27.65 182.521 28.14 181.401 28.14C179.343 28.14 177.929 26.684 177.929 24.5C177.929 22.316 179.343 20.86 181.401 20.86C182.507 20.86 183.305 21.336 183.809 22.092V17.36H185.349V28H183.879ZM181.709 26.81C183.053 26.81 183.949 25.886 183.949 24.5C183.949 23.114 183.053 22.19 181.709 22.19C180.365 22.19 179.469 23.114 179.469 24.5C179.469 25.886 180.365 26.81 181.709 26.81ZM187.388 21H188.928V28H187.388V21ZM188.158 17.36C188.676 17.36 189.096 17.766 189.096 18.27C189.096 18.774 188.676 19.18 188.158 19.18C187.626 19.18 187.206 18.774 187.206 18.27C187.206 17.766 187.626 17.36 188.158 17.36ZM198.585 22.414C200.461 22.876 201.273 23.702 201.273 25.186C201.273 26.964 199.873 28.14 197.773 28.14C195.575 28.14 194.315 26.88 194.245 25.088H195.855C195.925 26.096 196.611 26.74 197.871 26.74C198.949 26.74 199.663 26.166 199.663 25.298C199.663 24.584 199.201 24.164 198.109 23.898L197.045 23.618C195.197 23.156 194.413 22.344 194.413 20.902C194.413 19.194 195.757 18.046 197.773 18.046C199.859 18.046 201.035 19.39 201.119 20.986H199.481C199.397 20.09 198.781 19.446 197.703 19.446C196.695 19.446 196.023 19.978 196.023 20.79C196.023 21.476 196.443 21.882 197.437 22.12L198.585 22.414ZM203.111 21H204.651V28H203.111V21ZM203.881 17.36C204.399 17.36 204.819 17.766 204.819 18.27C204.819 18.774 204.399 19.18 203.881 19.18C203.349 19.18 202.929 18.774 202.929 18.27C202.929 17.766 203.349 17.36 203.881 17.36ZM206.677 28V21H208.217V22.344C208.707 21.406 209.603 20.86 210.807 20.86C212.501 20.86 213.467 22.092 213.467 24.01V28H211.927V24.22C211.927 23.03 211.325 22.19 210.177 22.19C208.987 22.19 208.217 23.03 208.217 24.22V28H206.677ZM215.375 21H216.915V28H215.375V21ZM216.145 17.36C216.663 17.36 217.083 17.766 217.083 18.27C217.083 18.774 216.663 19.18 216.145 19.18C215.613 19.18 215.193 18.774 215.193 18.27C215.193 17.766 215.613 17.36 216.145 17.36Z" fill="#2D2D2D"/>
<path d="M22.65 47L20.1 49.91L23.05 54H21.6L19.3 50.69L18.05 52V54H16.9V47H18.05V50.69L21.15 47H22.65ZM27.4469 54L27.4069 53.2C27.0569 53.75 26.4769 54.1 25.6769 54.1C24.2069 54.1 23.1969 53.06 23.1969 51.5C23.1969 49.94 24.2069 48.9 25.6769 48.9C26.4669 48.93 27.0369 49.26 27.3969 49.8V49H28.4969V54H27.4469ZM25.8969 53.15C26.8569 53.15 27.4969 52.49 27.4969 51.5C27.4969 50.51 26.8569 49.85 25.8969 49.85C24.9369 49.85 24.2969 50.51 24.2969 51.5C24.2969 52.49 24.9369 53.15 25.8969 53.15ZM29.8934 54V49H30.9934V49.82C31.3534 49.24 31.9734 48.9 32.7434 48.9C33.5634 48.9 34.1734 49.35 34.4434 50.11C34.7634 49.35 35.4434 48.9 36.3434 48.9C37.4534 48.9 38.1934 49.74 38.1934 51.05V54H37.0934V51.2C37.0934 50.39 36.6334 49.85 35.9434 49.85C35.1334 49.85 34.5934 50.39 34.5934 51.2V54H33.4934V51.2C33.4934 50.39 33.0334 49.85 32.3434 49.85C31.5334 49.85 30.9934 50.39 30.9934 51.2V54H29.8934ZM39.553 49H40.653V54H39.553V49ZM40.103 46.4C40.473 46.4 40.773 46.69 40.773 47.05C40.773 47.41 40.473 47.7 40.103 47.7C39.723 47.7 39.423 47.41 39.423 47.05C39.423 46.69 39.723 46.4 40.103 46.4ZM46.3204 48.9C47.5104 48.9 48.3404 49.59 48.3704 50.53L47.3004 50.52C47.2204 50.05 46.7904 49.8 46.3104 49.8C45.8204 49.8 45.5004 50.03 45.5004 50.39C45.5004 50.69 45.6904 50.85 46.1404 50.95L46.8904 51.1C48.0104 51.32 48.4904 51.75 48.4904 52.53C48.4904 53.47 47.6504 54.1 46.4004 54.1C45.0704 54.1 44.3104 53.45 44.2504 52.47H45.3204C45.3904 52.95 45.8504 53.2 46.4204 53.2C47.0004 53.2 47.3904 52.95 47.3904 52.59C47.3904 52.27 47.1604 52.09 46.6104 51.98L45.8704 51.84C44.8404 51.65 44.4004 51.22 44.4004 50.41C44.4004 49.5 45.1704 48.9 46.3204 48.9ZM49.6018 49H50.7018V54H49.6018V49ZM50.1518 46.4C50.5218 46.4 50.8218 46.69 50.8218 47.05C50.8218 47.41 50.5218 47.7 50.1518 47.7C49.7718 47.7 49.4718 47.41 49.4718 47.05C49.4718 46.69 49.7718 46.4 50.1518 46.4ZM56.0992 54L56.0592 53.2C55.7092 53.75 55.1292 54.1 54.3292 54.1C52.8592 54.1 51.8492 53.06 51.8492 51.5C51.8492 49.94 52.8592 48.9 54.3292 48.9C55.1192 48.93 55.6892 49.26 56.0492 49.8V49H57.1492V54H56.0992ZM54.5492 53.15C55.5092 53.15 56.1492 52.49 56.1492 51.5C56.1492 50.51 55.5092 49.85 54.5492 49.85C53.5892 49.85 52.9492 50.51 52.9492 51.5C52.9492 52.49 53.5892 53.15 54.5492 53.15ZM59.6457 49V49.79C60.0057 49.24 60.5857 48.9 61.3957 48.9C62.8457 48.9 63.8457 49.94 63.8457 51.5C63.8457 53.06 62.8457 54.1 61.3957 54.1C60.5857 54.1 60.0057 53.76 59.6457 53.21V56.4H58.5457V49H59.6457ZM61.1457 53.15C62.1057 53.15 62.7457 52.49 62.7457 51.5C62.7457 50.51 62.1057 49.85 61.1457 49.85C60.1857 49.85 59.5457 50.51 59.5457 51.5C59.5457 52.49 60.1857 53.15 61.1457 53.15ZM67.4422 54V49H68.5422V49.82C68.9022 49.24 69.5222 48.9 70.2922 48.9C71.1122 48.9 71.7222 49.35 71.9922 50.11C72.3122 49.35 72.9922 48.9 73.8922 48.9C75.0022 48.9 75.7422 49.74 75.7422 51.05V54H74.6422V51.2C74.6422 50.39 74.1822 49.85 73.4922 49.85C72.6822 49.85 72.1422 50.39 72.1422 51.2V54H71.0422V51.2C71.0422 50.39 70.5822 49.85 69.8922 49.85C69.0822 49.85 68.5422 50.39 68.5422 51.2V54H67.4422ZM76.7418 51.5C76.7418 49.94 77.8218 48.9 79.3418 48.9C80.8618 48.9 81.9418 49.94 81.9418 51.5V51.75H77.8618C77.9518 52.61 78.5618 53.15 79.3418 53.15C79.9718 53.15 80.3918 52.88 80.6318 52.45H81.7918C81.4618 53.45 80.6018 54.1 79.3418 54.1C77.8218 54.1 76.7418 53.06 76.7418 51.5ZM77.8818 51.12L80.8218 51.11C80.7118 50.34 80.1218 49.85 79.3418 49.85C78.6118 49.85 78.0218 50.34 77.8818 51.12ZM83.0379 54V49H84.1379V49.96C84.4879 49.29 85.1279 48.9 85.9879 48.9C87.1979 48.9 87.8879 49.78 87.8879 51.15V54H86.7879V51.3C86.7879 50.45 86.3579 49.85 85.5379 49.85C84.6879 49.85 84.1379 50.45 84.1379 51.3V54H83.0379ZM93.1402 54L93.1002 53.2C92.7502 53.75 92.1702 54.1 91.3702 54.1C89.9002 54.1 88.8902 53.06 88.8902 51.5C88.8902 49.94 89.9002 48.9 91.3702 48.9C92.1602 48.9 92.7302 49.24 93.0902 49.78V46.4H94.1902V54H93.1402ZM91.5902 53.15C92.5502 53.15 93.1902 52.49 93.1902 51.5C93.1902 50.51 92.5502 49.85 91.5902 49.85C90.6302 49.85 89.9902 50.51 89.9902 51.5C89.9902 52.49 90.6302 53.15 91.5902 53.15ZM95.2867 51.5C95.2867 49.94 96.3667 48.9 97.8867 48.9C99.4067 48.9 100.487 49.94 100.487 51.5V51.75H96.4067C96.4967 52.61 97.1067 53.15 97.8867 53.15C98.5167 53.15 98.9367 52.88 99.1767 52.45H100.337C100.007 53.45 99.1467 54.1 97.8867 54.1C96.3667 54.1 95.2867 53.06 95.2867 51.5ZM96.4267 51.12L99.3667 51.11C99.2567 50.34 98.6667 49.85 97.8867 49.85C97.1567 49.85 96.5667 50.34 96.4267 51.12ZM101.583 54V49H102.683V49.96C103.033 49.29 103.673 48.9 104.533 48.9C105.743 48.9 106.433 49.78 106.433 51.15V54H105.333V51.3C105.333 50.45 104.903 49.85 104.083 49.85C103.233 49.85 102.683 50.45 102.683 51.3V54H101.583ZM109.935 54.1C108.435 54.1 107.435 53.06 107.435 51.5C107.435 49.94 108.435 48.9 109.935 48.9C110.735 48.9 111.305 49.24 111.645 49.78L111.685 49H112.735V54C112.735 55.51 111.795 56.4 110.215 56.4C108.585 56.4 107.685 55.69 107.635 54.4H108.745C108.845 55.07 109.365 55.45 110.215 55.45C111.105 55.45 111.635 54.91 111.635 54V53.25C111.285 53.77 110.725 54.1 109.935 54.1ZM110.135 53.15C111.095 53.15 111.735 52.49 111.735 51.5C111.735 50.51 111.095 49.85 110.135 49.85C109.175 49.85 108.535 50.51 108.535 51.5C108.535 52.49 109.175 53.15 110.135 53.15ZM117.886 54L117.846 53.2C117.496 53.75 116.916 54.1 116.116 54.1C114.646 54.1 113.636 53.06 113.636 51.5C113.636 49.94 114.646 48.9 116.116 48.9C116.906 48.93 117.476 49.26 117.836 49.8V49H118.936V54H117.886ZM116.336 53.15C117.296 53.15 117.936 52.49 117.936 51.5C117.936 50.51 117.296 49.85 116.336 49.85C115.376 49.85 114.736 50.51 114.736 51.5C114.736 52.49 115.376 53.15 116.336 53.15ZM120.333 54V49H121.433V50.01C121.723 49.34 122.233 49 123.033 49H123.433V49.95H123.033C121.893 49.95 121.433 50.41 121.433 51.55V54H120.333ZM128.979 49L127.009 51.02L129.079 54H127.679L126.209 51.7L125.329 52.45V54H124.229V46.4H125.329V51.31L127.529 49H128.979ZM133.638 54L133.598 53.2C133.248 53.75 132.668 54.1 131.868 54.1C130.398 54.1 129.388 53.06 129.388 51.5C129.388 49.94 130.398 48.9 131.868 48.9C132.658 48.93 133.228 49.26 133.588 49.8V49H134.688V54H133.638ZM132.088 53.15C133.048 53.15 133.688 52.49 133.688 51.5C133.688 50.51 133.048 49.85 132.088 49.85C131.128 49.85 130.488 50.51 130.488 51.5C130.488 52.49 131.128 53.15 132.088 53.15ZM136.085 54V49H137.185V49.96C137.535 49.29 138.175 48.9 139.035 48.9C140.245 48.9 140.935 49.78 140.935 51.15V54H139.835V51.3C139.835 50.45 139.405 49.85 138.585 49.85C137.735 49.85 137.185 50.45 137.185 51.3V54H136.085ZM149.487 49L147.517 51.02L149.587 54H148.187L146.717 51.7L145.837 52.45V54H144.737V46.4H145.837V51.31L148.037 49H149.487ZM149.896 51.5C149.896 49.94 150.976 48.9 152.496 48.9C154.016 48.9 155.096 49.94 155.096 51.5V51.75H151.016C151.106 52.61 151.716 53.15 152.496 53.15C153.126 53.15 153.546 52.88 153.786 52.45H154.946C154.616 53.45 153.756 54.1 152.496 54.1C150.976 54.1 149.896 53.06 149.896 51.5ZM151.036 51.12L153.976 51.11C153.866 50.34 153.276 49.85 152.496 49.85C151.766 49.85 151.176 50.34 151.036 51.12ZM156.242 46.4H157.342V54H156.242V46.4ZM159.78 51.8C159.78 52.61 160.24 53.15 160.93 53.15C161.71 53.15 162.23 52.61 162.23 51.8V49H163.33V54H162.23V53.15C161.9 53.75 161.32 54.1 160.53 54.1C159.42 54.1 158.68 53.26 158.68 51.95V49H159.78V51.8ZM164.727 54V46.4H165.827V49.94C166.177 49.27 166.817 48.9 167.677 48.9C168.887 48.9 169.577 49.78 169.577 51.15V54H168.477V51.3C168.477 50.45 168.047 49.85 167.227 49.85C166.377 49.85 165.827 50.45 165.827 51.3V54H164.727ZM174.83 54L174.79 53.2C174.44 53.75 173.86 54.1 173.06 54.1C171.59 54.1 170.58 53.06 170.58 51.5C170.58 49.94 171.59 48.9 173.06 48.9C173.85 48.93 174.42 49.26 174.78 49.8V49H175.88V54H174.83ZM173.28 53.15C174.24 53.15 174.88 52.49 174.88 51.5C174.88 50.51 174.24 49.85 173.28 49.85C172.32 49.85 171.68 50.51 171.68 51.5C171.68 52.49 172.32 53.15 173.28 53.15ZM177.276 54V49H178.376V49.96C178.726 49.29 179.366 48.9 180.226 48.9C181.436 48.9 182.126 49.78 182.126 51.15V54H181.026V51.3C181.026 50.45 180.596 49.85 179.776 49.85C178.926 49.85 178.376 50.45 178.376 51.3V54H177.276ZM184.089 52.65C184.599 52.65 184.959 53.04 184.959 53.65C184.969 54.71 184.049 55.52 183.079 55.75V55.1C183.589 54.92 184.019 54.49 184.019 54.11C183.659 54.06 183.319 53.83 183.319 53.38C183.319 52.94 183.639 52.65 184.089 52.65ZM189.712 51.8C189.712 52.61 190.172 53.15 190.862 53.15C191.642 53.15 192.162 52.61 192.162 51.8V49H193.262V54H192.162V53.15C191.832 53.75 191.252 54.1 190.462 54.1C189.352 54.1 188.612 53.26 188.612 51.95V49H189.712V51.8ZM196.379 48.9C197.569 48.9 198.399 49.59 198.429 50.53L197.359 50.52C197.279 50.05 196.849 49.8 196.369 49.8C195.879 49.8 195.559 50.03 195.559 50.39C195.559 50.69 195.749 50.85 196.199 50.95L196.949 51.1C198.069 51.32 198.549 51.75 198.549 52.53C198.549 53.47 197.709 54.1 196.459 54.1C195.129 54.1 194.369 53.45 194.309 52.47H195.379C195.449 52.95 195.909 53.2 196.479 53.2C197.059 53.2 197.449 52.95 197.449 52.59C197.449 52.27 197.219 52.09 196.669 51.98L195.929 51.84C194.899 51.65 194.459 51.22 194.459 50.41C194.459 49.5 195.229 48.9 196.379 48.9ZM200.6 51.8C200.6 52.61 201.06 53.15 201.75 53.15C202.53 53.15 203.05 52.61 203.05 51.8V49H204.15V54H203.05V53.15C202.72 53.75 202.14 54.1 201.35 54.1C200.24 54.1 199.5 53.26 199.5 51.95V49H200.6V51.8ZM205.598 46.4H206.698V54H205.598V46.4ZM212.086 54L212.046 53.2C211.696 53.75 211.116 54.1 210.316 54.1C208.846 54.1 207.836 53.06 207.836 51.5C207.836 49.94 208.846 48.9 210.316 48.9C211.106 48.93 211.676 49.26 212.036 49.8V49H213.136V54H212.086ZM210.536 53.15C211.496 53.15 212.136 52.49 212.136 51.5C212.136 50.51 211.496 49.85 210.536 49.85C209.576 49.85 208.936 50.51 208.936 51.5C208.936 52.49 209.576 53.15 210.536 53.15ZM214.532 54V49H215.632V49.96C215.982 49.29 216.622 48.9 217.482 48.9C218.692 48.9 219.382 49.78 219.382 51.15V54H218.282V51.3C218.282 50.45 217.852 49.85 217.032 49.85C216.182 49.85 215.632 50.45 215.632 51.3V54H214.532ZM221.344 52.65C221.854 52.65 222.214 53.04 222.214 53.65C222.224 54.71 221.304 55.52 220.334 55.75V55.1C220.844 54.92 221.274 54.49 221.274 54.11C220.914 54.06 220.574 53.83 220.574 53.38C220.574 52.94 220.894 52.65 221.344 52.65ZM229.918 54L229.878 53.2C229.528 53.75 228.948 54.1 228.148 54.1C226.678 54.1 225.668 53.06 225.668 51.5C225.668 49.94 226.678 48.9 228.148 48.9C228.938 48.9 229.508 49.24 229.868 49.78V46.4H230.968V54H229.918ZM228.368 53.15C229.328 53.15 229.968 52.49 229.968 51.5C229.968 50.51 229.328 49.85 228.368 49.85C227.408 49.85 226.768 50.51 226.768 51.5C226.768 52.49 227.408 53.15 228.368 53.15ZM236.314 54L236.274 53.2C235.924 53.75 235.344 54.1 234.544 54.1C233.074 54.1 232.064 53.06 232.064 51.5C232.064 49.94 233.074 48.9 234.544 48.9C235.334 48.93 235.904 49.26 236.264 49.8V49H237.364V54H236.314ZM234.764 53.15C235.724 53.15 236.364 52.49 236.364 51.5C236.364 50.51 235.724 49.85 234.764 49.85C233.804 49.85 233.164 50.51 233.164 51.5C233.164 52.49 233.804 53.15 234.764 53.15ZM238.761 54V49H239.861V49.96C240.211 49.29 240.851 48.9 241.711 48.9C242.921 48.9 243.611 49.78 243.611 51.15V54H242.511V51.3C242.511 50.45 242.081 49.85 241.261 49.85C240.411 49.85 239.861 50.45 239.861 51.3V54H238.761ZM16.7 66V58.4H17.8V61.94C18.15 61.27 18.79 60.9 19.65 60.9C20.86 60.9 21.55 61.78 21.55 63.15V66H20.45V63.3C20.45 62.45 20.02 61.85 19.2 61.85C18.35 61.85 17.8 62.45 17.8 63.3V66H16.7ZM26.8023 66L26.7623 65.2C26.4123 65.75 25.8323 66.1 25.0323 66.1C23.5623 66.1 22.5523 65.06 22.5523 63.5C22.5523 61.94 23.5623 60.9 25.0323 60.9C25.8223 60.93 26.3923 61.26 26.7523 61.8V61H27.8523V66H26.8023ZM25.2523 65.15C26.2123 65.15 26.8523 64.49 26.8523 63.5C26.8523 62.51 26.2123 61.85 25.2523 61.85C24.2923 61.85 23.6523 62.51 23.6523 63.5C23.6523 64.49 24.2923 65.15 25.2523 65.15ZM29.2488 66V61H30.3488V62.01C30.6388 61.34 31.1488 61 31.9488 61H32.3488V61.95H31.9488C30.8088 61.95 30.3488 62.41 30.3488 63.55V66H29.2488ZM36.9 66L36.86 65.2C36.51 65.75 35.93 66.1 35.13 66.1C33.66 66.1 32.65 65.06 32.65 63.5C32.65 61.94 33.66 60.9 35.13 60.9C35.92 60.93 36.49 61.26 36.85 61.8V61H37.95V66H36.9ZM35.35 65.15C36.31 65.15 36.95 64.49 36.95 63.5C36.95 62.51 36.31 61.85 35.35 61.85C34.39 61.85 33.75 62.51 33.75 63.5C33.75 64.49 34.39 65.15 35.35 65.15ZM40.4465 61V61.79C40.8065 61.24 41.3865 60.9 42.1965 60.9C43.6465 60.9 44.6465 61.94 44.6465 63.5C44.6465 65.06 43.6465 66.1 42.1965 66.1C41.3865 66.1 40.8065 65.76 40.4465 65.21V68.4H39.3465V61H40.4465ZM41.9465 65.15C42.9065 65.15 43.5465 64.49 43.5465 63.5C43.5465 62.51 42.9065 61.85 41.9465 61.85C40.9865 61.85 40.3465 62.51 40.3465 63.5C40.3465 64.49 40.9865 65.15 41.9465 65.15ZM49.693 66L49.653 65.2C49.303 65.75 48.723 66.1 47.923 66.1C46.453 66.1 45.443 65.06 45.443 63.5C45.443 61.94 46.453 60.9 47.923 60.9C48.713 60.93 49.283 61.26 49.643 61.8V61H50.743V66H49.693ZM48.143 65.15C49.103 65.15 49.743 64.49 49.743 63.5C49.743 62.51 49.103 61.85 48.143 61.85C47.183 61.85 46.543 62.51 46.543 63.5C46.543 64.49 47.183 65.15 48.143 65.15ZM52.1395 66V61H53.2395V61.96C53.5895 61.29 54.2295 60.9 55.0895 60.9C56.2995 60.9 56.9895 61.78 56.9895 63.15V66H55.8895V63.3C55.8895 62.45 55.4595 61.85 54.6395 61.85C53.7895 61.85 53.2395 62.45 53.2395 63.3V66H52.1395ZM58.2918 66V61H59.3918V61.82C59.7518 61.24 60.3718 60.9 61.1418 60.9C61.9618 60.9 62.5718 61.35 62.8418 62.11C63.1618 61.35 63.8418 60.9 64.7418 60.9C65.8518 60.9 66.5918 61.74 66.5918 63.05V66H65.4918V63.2C65.4918 62.39 65.0318 61.85 64.3418 61.85C63.5318 61.85 62.9918 62.39 62.9918 63.2V66H61.8918V63.2C61.8918 62.39 61.4318 61.85 60.7418 61.85C59.9318 61.85 59.3918 62.39 59.3918 63.2V66H58.2918ZM68.8914 63.8C68.8914 64.61 69.3514 65.15 70.0414 65.15C70.8214 65.15 71.3414 64.61 71.3414 63.8V61H72.4414V66H71.3414V65.15C71.0114 65.75 70.4314 66.1 69.6414 66.1C68.5314 66.1 67.7914 65.26 67.7914 63.95V61H68.8914V63.8ZM80.2887 66L80.2487 65.2C79.8987 65.75 79.3187 66.1 78.5187 66.1C77.0487 66.1 76.0387 65.06 76.0387 63.5C76.0387 61.94 77.0487 60.9 78.5187 60.9C79.3087 60.9 79.8787 61.24 80.2387 61.78V58.4H81.3387V66H80.2887ZM78.7387 65.15C79.6987 65.15 80.3387 64.49 80.3387 63.5C80.3387 62.51 79.6987 61.85 78.7387 61.85C77.7787 61.85 77.1387 62.51 77.1387 63.5C77.1387 64.49 77.7787 65.15 78.7387 65.15ZM82.4352 63.5C82.4352 61.94 83.5152 60.9 85.0352 60.9C86.5552 60.9 87.6352 61.94 87.6352 63.5V63.75H83.5552C83.6452 64.61 84.2552 65.15 85.0352 65.15C85.6652 65.15 86.0852 64.88 86.3252 64.45H87.4852C87.1552 65.45 86.2952 66.1 85.0352 66.1C83.5152 66.1 82.4352 65.06 82.4352 63.5ZM83.5752 63.12L86.5152 63.11C86.4052 62.34 85.8152 61.85 85.0352 61.85C84.3052 61.85 83.7152 62.34 83.5752 63.12ZM88.7313 66V61H89.8313V61.82C90.1913 61.24 90.8113 60.9 91.5813 60.9C92.4013 60.9 93.0113 61.35 93.2813 62.11C93.6013 61.35 94.2812 60.9 95.1813 60.9C96.2913 60.9 97.0313 61.74 97.0313 63.05V66H95.9313V63.2C95.9313 62.39 95.4713 61.85 94.7813 61.85C93.9713 61.85 93.4313 62.39 93.4313 63.2V66H92.3313V63.2C92.3313 62.39 91.8713 61.85 91.1813 61.85C90.3713 61.85 89.8313 62.39 89.8313 63.2V66H88.7313ZM98.3909 61H99.4909V66H98.3909V61ZM98.9409 58.4C99.3109 58.4 99.6109 58.69 99.6109 59.05C99.6109 59.41 99.3109 59.7 98.9409 59.7C98.5609 59.7 98.2609 59.41 98.2609 59.05C98.2609 58.69 98.5609 58.4 98.9409 58.4ZM107.388 66L107.348 65.2C106.998 65.75 106.418 66.1 105.618 66.1C104.148 66.1 103.138 65.06 103.138 63.5C103.138 61.94 104.148 60.9 105.618 60.9C106.408 60.9 106.978 61.24 107.338 61.78V58.4H108.438V66H107.388ZM105.838 65.15C106.798 65.15 107.438 64.49 107.438 63.5C107.438 62.51 106.798 61.85 105.838 61.85C104.878 61.85 104.238 62.51 104.238 63.5C104.238 64.49 104.878 65.15 105.838 65.15ZM109.535 63.5C109.535 61.94 110.615 60.9 112.135 60.9C113.655 60.9 114.735 61.94 114.735 63.5V63.75H110.655C110.745 64.61 111.355 65.15 112.135 65.15C112.765 65.15 113.185 64.88 113.425 64.45H114.585C114.255 65.45 113.395 66.1 112.135 66.1C110.615 66.1 109.535 65.06 109.535 63.5ZM110.675 63.12L113.615 63.11C113.505 62.34 112.915 61.85 112.135 61.85C111.405 61.85 110.815 62.34 110.675 63.12ZM117.551 60.9C118.741 60.9 119.571 61.59 119.601 62.53L118.531 62.52C118.451 62.05 118.021 61.8 117.541 61.8C117.051 61.8 116.731 62.03 116.731 62.39C116.731 62.69 116.921 62.85 117.371 62.95L118.121 63.1C119.241 63.32 119.721 63.75 119.721 64.53C119.721 65.47 118.881 66.1 117.631 66.1C116.301 66.1 115.541 65.45 115.481 64.47H116.551C116.621 64.95 117.081 65.2 117.651 65.2C118.231 65.2 118.621 64.95 118.621 64.59C118.621 64.27 118.391 64.09 117.841 63.98L117.101 63.84C116.071 63.65 115.631 63.22 115.631 62.41C115.631 61.5 116.401 60.9 117.551 60.9ZM124.722 66L124.682 65.2C124.332 65.75 123.752 66.1 122.952 66.1C121.482 66.1 120.472 65.06 120.472 63.5C120.472 61.94 121.482 60.9 122.952 60.9C123.742 60.93 124.312 61.26 124.672 61.8V61H125.772V66H124.722ZM123.172 65.15C124.132 65.15 124.772 64.49 124.772 63.5C124.772 62.51 124.132 61.85 123.172 61.85C122.212 61.85 121.572 62.51 121.572 63.5C121.572 64.49 122.212 65.15 123.172 65.15ZM129.599 68.4V67.45H130.049C130.549 67.45 130.809 67.23 131.029 66.69L131.319 66L129.119 61H130.369L131.899 64.73L133.269 61H134.519L132.479 66L132.009 67.04C131.579 68.01 131.029 68.4 130.049 68.4H129.599ZM139.127 66L139.087 65.2C138.737 65.75 138.157 66.1 137.357 66.1C135.887 66.1 134.877 65.06 134.877 63.5C134.877 61.94 135.887 60.9 137.357 60.9C138.147 60.93 138.717 61.26 139.077 61.8V61H140.177V66H139.127ZM137.577 65.15C138.537 65.15 139.177 64.49 139.177 63.5C139.177 62.51 138.537 61.85 137.577 61.85C136.617 61.85 135.977 62.51 135.977 63.5C135.977 64.49 136.617 65.15 137.577 65.15ZM141.573 66V61H142.673V61.96C143.023 61.29 143.663 60.9 144.523 60.9C145.733 60.9 146.423 61.78 146.423 63.15V66H145.323V63.3C145.323 62.45 144.893 61.85 144.073 61.85C143.223 61.85 142.673 62.45 142.673 63.3V66H141.573ZM149.925 66.1C148.425 66.1 147.425 65.06 147.425 63.5C147.425 61.94 148.425 60.9 149.925 60.9C150.725 60.9 151.295 61.24 151.635 61.78L151.675 61H152.725V66C152.725 67.51 151.785 68.4 150.205 68.4C148.575 68.4 147.675 67.69 147.625 66.4H148.735C148.835 67.07 149.355 67.45 150.205 67.45C151.095 67.45 151.625 66.91 151.625 66V65.25C151.275 65.77 150.715 66.1 149.925 66.1ZM150.125 65.15C151.085 65.15 151.725 64.49 151.725 63.5C151.725 62.51 151.085 61.85 150.125 61.85C149.165 61.85 148.525 62.51 148.525 63.5C148.525 64.49 149.165 65.15 150.125 65.15ZM156.477 58.4H157.577V66H156.477V58.4ZM158.714 63.5C158.714 61.94 159.794 60.9 161.314 60.9C162.834 60.9 163.914 61.94 163.914 63.5V63.75H159.834C159.924 64.61 160.534 65.15 161.314 65.15C161.944 65.15 162.364 64.88 162.604 64.45H163.764C163.434 65.45 162.574 66.1 161.314 66.1C159.794 66.1 158.714 65.06 158.714 63.5ZM159.854 63.12L162.794 63.11C162.684 62.34 162.094 61.85 161.314 61.85C160.584 61.85 159.994 62.34 159.854 63.12ZM166.111 58.4V61.79C166.471 61.24 167.051 60.9 167.861 60.9C169.311 60.9 170.311 61.94 170.311 63.5C170.311 65.06 169.311 66.1 167.861 66.1C167.051 66.1 166.471 65.76 166.111 65.21V66H165.011V58.4H166.111ZM167.611 65.15C168.571 65.15 169.211 64.49 169.211 63.5C169.211 62.51 168.571 61.85 167.611 61.85C166.651 61.85 166.011 62.51 166.011 63.5C166.011 64.49 166.651 65.15 167.611 65.15ZM171.467 61H172.567V66H171.467V61ZM172.017 58.4C172.387 58.4 172.687 58.69 172.687 59.05C172.687 59.41 172.387 59.7 172.017 59.7C171.637 59.7 171.337 59.41 171.337 59.05C171.337 58.69 171.637 58.4 172.017 58.4ZM174.014 66V58.4H175.114V61.94C175.464 61.27 176.104 60.9 176.964 60.9C178.174 60.9 178.864 61.78 178.864 63.15V66H177.764V63.3C177.764 62.45 177.334 61.85 176.514 61.85C175.664 61.85 175.114 62.45 175.114 63.3V66H174.014ZM183.767 58.4V61.79C184.127 61.24 184.707 60.9 185.517 60.9C186.967 60.9 187.967 61.94 187.967 63.5C187.967 65.06 186.967 66.1 185.517 66.1C184.707 66.1 184.127 65.76 183.767 65.21V66H182.667V58.4H183.767ZM185.267 65.15C186.227 65.15 186.867 64.49 186.867 63.5C186.867 62.51 186.227 61.85 185.267 61.85C184.307 61.85 183.667 62.51 183.667 63.5C183.667 64.49 184.307 65.15 185.267 65.15ZM193.013 66L192.973 65.2C192.623 65.75 192.043 66.1 191.243 66.1C189.773 66.1 188.763 65.06 188.763 63.5C188.763 61.94 189.773 60.9 191.243 60.9C192.033 60.93 192.603 61.26 192.963 61.8V61H194.063V66H193.013ZM191.463 65.15C192.423 65.15 193.063 64.49 193.063 63.5C193.063 62.51 192.423 61.85 191.463 61.85C190.503 61.85 189.863 62.51 189.863 63.5C189.863 64.49 190.503 65.15 191.463 65.15ZM195.52 61H196.62V66H195.52V61ZM196.07 58.4C196.44 58.4 196.74 58.69 196.74 59.05C196.74 59.41 196.44 59.7 196.07 59.7C195.69 59.7 195.39 59.41 195.39 59.05C195.39 58.69 195.69 58.4 196.07 58.4ZM202.817 61L200.847 63.02L202.917 66H201.517L200.047 63.7L199.167 64.45V66H198.067V58.4H199.167V63.31L201.367 61H202.817ZM204.371 64.65C204.791 64.65 205.121 64.97 205.121 65.37C205.121 65.77 204.791 66.1 204.371 66.1C203.961 66.1 203.621 65.77 203.621 65.37C203.621 64.97 203.961 64.65 204.371 64.65Z" fill="#797979"/>
<path d="M17.85 93.8L18.11 92.43L17.05 93.34L16.6 92.56L17.94 92.1L16.6 91.64L17.05 90.86L18.11 91.76L17.85 90.4H18.75L18.49 91.77L19.54 90.86L19.99 91.64L18.69 92.1L19.99 92.56L19.54 93.34L18.49 92.42L18.75 93.8H17.85Z" fill="#FF4B4B"/>
<path d="M26.1698 95.31C26.1698 97.01 25.2498 98.1 23.4698 98.1C21.6998 98.1 20.6898 97.06 20.7398 95.41H21.8898C21.8598 96.47 22.4898 97.1 23.4698 97.1C24.4598 97.1 25.0198 96.44 25.0198 95.31V91H26.1698V95.31ZM28.6766 95.8C28.6766 96.61 29.1366 97.15 29.8266 97.15C30.6066 97.15 31.1266 96.61 31.1266 95.8V93H32.2266V98H31.1266V97.15C30.7966 97.75 30.2166 98.1 29.4266 98.1C28.3166 98.1 27.5766 97.26 27.5766 95.95V93H28.6766V95.8ZM37.5738 98L37.5338 97.2C37.1838 97.75 36.6038 98.1 35.8038 98.1C34.3338 98.1 33.3238 97.06 33.3238 95.5C33.3238 93.94 34.3338 92.9 35.8038 92.9C36.5938 92.9 37.1638 93.24 37.5238 93.78V90.4H38.6238V98H37.5738ZM36.0238 97.15C36.9838 97.15 37.6238 96.49 37.6238 95.5C37.6238 94.51 36.9838 93.85 36.0238 93.85C35.0638 93.85 34.4238 94.51 34.4238 95.5C34.4238 96.49 35.0638 97.15 36.0238 97.15ZM41.0203 95.8C41.0203 96.61 41.4803 97.15 42.1703 97.15C42.9503 97.15 43.4703 96.61 43.4703 95.8V93H44.5703V98H43.4703V97.15C43.1403 97.75 42.5603 98.1 41.7703 98.1C40.6603 98.1 39.9203 97.26 39.9203 95.95V93H41.0203V95.8ZM46.0176 90.4H47.1176V98H46.0176V90.4ZM54.9555 91L57.8055 98H56.5055L55.8455 96.32H52.4655L51.8055 98H50.5055L53.3655 91H54.9555ZM52.8355 95.37H55.4755L54.1555 92.01L52.8355 95.37ZM60.3731 92.9C61.5631 92.9 62.3931 93.59 62.4231 94.53L61.3531 94.52C61.2731 94.05 60.8431 93.8 60.3631 93.8C59.8731 93.8 59.5531 94.03 59.5531 94.39C59.5531 94.69 59.7431 94.85 60.1931 94.95L60.9431 95.1C62.0631 95.32 62.5431 95.75 62.5431 96.53C62.5431 97.47 61.7031 98.1 60.4531 98.1C59.1231 98.1 58.3631 97.45 58.3031 96.47H59.3731C59.4431 96.95 59.9031 97.2 60.4731 97.2C61.0531 97.2 61.4431 96.95 61.4431 96.59C61.4431 96.27 61.2131 96.09 60.6631 95.98L59.9231 95.84C58.8931 95.65 58.4531 95.22 58.4531 94.41C58.4531 93.5 59.2231 92.9 60.3731 92.9ZM64.6945 93V93.79C65.0545 93.24 65.6345 92.9 66.4445 92.9C67.8945 92.9 68.8945 93.94 68.8945 95.5C68.8945 97.06 67.8945 98.1 66.4445 98.1C65.6345 98.1 65.0545 97.76 64.6945 97.21V100.4H63.5945V93H64.6945ZM66.1945 97.15C67.1545 97.15 67.7945 96.49 67.7945 95.5C67.7945 94.51 67.1545 93.85 66.1945 93.85C65.2345 93.85 64.5945 94.51 64.5945 95.5C64.5945 96.49 65.2345 97.15 66.1945 97.15ZM70.051 93H71.151V98H70.051V93ZM70.601 90.4C70.971 90.4 71.271 90.69 71.271 91.05C71.271 91.41 70.971 91.7 70.601 91.7C70.221 91.7 69.921 91.41 69.921 91.05C69.921 90.69 70.221 90.4 70.601 90.4ZM72.5984 98V93H73.6984V94.01C73.9884 93.34 74.4984 93 75.2984 93H75.6984V93.95H75.2984C74.1584 93.95 73.6984 94.41 73.6984 95.55V98H72.5984ZM80.2496 98L80.2096 97.2C79.8596 97.75 79.2796 98.1 78.4796 98.1C77.0096 98.1 75.9996 97.06 75.9996 95.5C75.9996 93.94 77.0096 92.9 78.4796 92.9C79.2696 92.93 79.8396 93.26 80.1996 93.8V93H81.2996V98H80.2496ZM78.6996 97.15C79.6596 97.15 80.2996 96.49 80.2996 95.5C80.2996 94.51 79.6596 93.85 78.6996 93.85C77.7396 93.85 77.0996 94.51 77.0996 95.5C77.0996 96.49 77.7396 97.15 78.6996 97.15ZM84.4161 92.9C85.6061 92.9 86.4361 93.59 86.4661 94.53L85.3961 94.52C85.3161 94.05 84.8861 93.8 84.4061 93.8C83.9161 93.8 83.5961 94.03 83.5961 94.39C83.5961 94.69 83.7861 94.85 84.2361 94.95L84.9861 95.1C86.1061 95.32 86.5861 95.75 86.5861 96.53C86.5861 97.47 85.7461 98.1 84.4961 98.1C83.1661 98.1 82.4061 97.45 82.3461 96.47H83.4161C83.4861 96.95 83.9461 97.2 84.5161 97.2C85.0961 97.2 85.4861 96.95 85.4861 96.59C85.4861 96.27 85.2561 96.09 84.7061 95.98L83.9661 95.84C82.9361 95.65 82.4961 95.22 82.4961 94.41C82.4961 93.5 83.2661 92.9 84.4161 92.9ZM87.6975 93H88.7975V98H87.6975V93ZM88.2475 90.4C88.6175 90.4 88.9175 90.69 88.9175 91.05C88.9175 91.41 88.6175 91.7 88.2475 91.7C87.8675 91.7 87.5675 91.41 87.5675 91.05C87.5675 90.69 87.8675 90.4 88.2475 90.4Z" fill="#797979"/>
<path d="M17.85 153.8L18.11 152.43L17.05 153.34L16.6 152.56L17.94 152.1L16.6 151.64L17.05 150.86L18.11 151.76L17.85 150.4H18.75L18.49 151.77L19.54 150.86L19.99 151.64L18.69 152.1L19.99 152.56L19.54 153.34L18.49 152.42L18.75 153.8H17.85Z" fill="#FF4B4B"/>
<path d="M21.4898 158V151H24.2898C26.5098 151 27.9898 152.4 27.9898 154.5C27.9898 156.6 26.5098 158 24.2898 158H21.4898ZM24.2898 157C25.8198 157 26.8398 156 26.8398 154.5C26.8398 153 25.8198 152 24.2898 152H22.6398V157H24.2898ZM28.8902 155.5C28.8902 153.94 29.9702 152.9 31.4902 152.9C33.0102 152.9 34.0902 153.94 34.0902 155.5V155.75H30.0102C30.1002 156.61 30.7102 157.15 31.4902 157.15C32.1202 157.15 32.5402 156.88 32.7802 156.45H33.9402C33.6102 157.45 32.7502 158.1 31.4902 158.1C29.9702 158.1 28.8902 157.06 28.8902 155.5ZM30.0302 155.12L32.9702 155.11C32.8602 154.34 32.2702 153.85 31.4902 153.85C30.7602 153.85 30.1702 154.34 30.0302 155.12ZM36.9063 152.9C38.0963 152.9 38.9263 153.59 38.9563 154.53L37.8863 154.52C37.8063 154.05 37.3763 153.8 36.8963 153.8C36.4063 153.8 36.0863 154.03 36.0863 154.39C36.0863 154.69 36.2763 154.85 36.7263 154.95L37.4763 155.1C38.5963 155.32 39.0763 155.75 39.0763 156.53C39.0763 157.47 38.2363 158.1 36.9863 158.1C35.6563 158.1 34.8963 157.45 34.8363 156.47H35.9063C35.9763 156.95 36.4363 157.2 37.0063 157.2C37.5863 157.2 37.9763 156.95 37.9763 156.59C37.9763 156.27 37.7463 156.09 37.1963 155.98L36.4563 155.84C35.4263 155.65 34.9863 155.22 34.9863 154.41C34.9863 153.5 35.7563 152.9 36.9063 152.9ZM44.8777 153L42.9077 155.02L44.9777 158H43.5777L42.1077 155.7L41.2277 156.45V158H40.1277V150.4H41.2277V155.31L43.4277 153H44.8777ZM45.782 158V153H46.882V154.01C47.172 153.34 47.682 153 48.482 153H48.882V153.95H48.482C47.342 153.95 46.882 154.41 46.882 155.55V158H45.782ZM49.7385 153H50.8385V158H49.7385V153ZM50.2885 150.4C50.6585 150.4 50.9585 150.69 50.9585 151.05C50.9585 151.41 50.6585 151.7 50.2885 151.7C49.9085 151.7 49.6085 151.41 49.6085 151.05C49.6085 150.69 49.9085 150.4 50.2885 150.4ZM53.3859 153V153.79C53.7459 153.24 54.3259 152.9 55.1359 152.9C56.5859 152.9 57.5859 153.94 57.5859 155.5C57.5859 157.06 56.5859 158.1 55.1359 158.1C54.3259 158.1 53.7459 157.76 53.3859 157.21V160.4H52.2859V153H53.3859ZM54.8859 157.15C55.8459 157.15 56.4859 156.49 56.4859 155.5C56.4859 154.51 55.8459 153.85 54.8859 153.85C53.9259 153.85 53.2859 154.51 53.2859 155.5C53.2859 156.49 53.9259 157.15 54.8859 157.15ZM60.4024 152.9C61.5924 152.9 62.4224 153.59 62.4524 154.53L61.3824 154.52C61.3024 154.05 60.8724 153.8 60.3924 153.8C59.9024 153.8 59.5824 154.03 59.5824 154.39C59.5824 154.69 59.7724 154.85 60.2224 154.95L60.9724 155.1C62.0924 155.32 62.5724 155.75 62.5724 156.53C62.5724 157.47 61.7324 158.1 60.4824 158.1C59.1524 158.1 58.3924 157.45 58.3324 156.47H59.4024C59.4724 156.95 59.9324 157.2 60.5024 157.2C61.0824 157.2 61.4724 156.95 61.4724 156.59C61.4724 156.27 61.2424 156.09 60.6924 155.98L59.9524 155.84C58.9224 155.65 58.4824 155.22 58.4824 154.41C58.4824 153.5 59.2524 152.9 60.4024 152.9ZM63.6838 153H64.7838V158H63.6838V153ZM64.2338 150.4C64.6038 150.4 64.9038 150.69 64.9038 151.05C64.9038 151.41 64.6038 151.7 64.2338 151.7C63.8538 151.7 63.5538 151.41 63.5538 151.05C63.5538 150.69 63.8538 150.4 64.2338 150.4Z" fill="#797979"/>
<path d="M17.85 213.8L18.11 212.43L17.05 213.34L16.6 212.56L17.94 212.1L16.6 211.64L17.05 210.86L18.11 211.76L17.85 210.4H18.75L18.49 211.77L19.54 210.86L19.99 211.64L18.69 212.1L19.99 212.56L19.54 213.34L18.49 212.42L18.75 213.8H17.85Z" fill="#FF4B4B"/>
<path d="M21.4898 211H22.6398V217H25.6898V218H21.4898V211ZM28.9438 212.9C30.5638 212.9 31.6438 213.94 31.6438 215.5C31.6438 217.06 30.5638 218.1 28.9438 218.1C27.3238 218.1 26.2438 217.06 26.2438 215.5C26.2438 213.94 27.3238 212.9 28.9438 212.9ZM28.9438 217.15C29.9038 217.15 30.5438 216.49 30.5438 215.5C30.5438 214.51 29.9038 213.85 28.9438 213.85C27.9838 213.85 27.3438 214.51 27.3438 215.5C27.3438 216.49 27.9838 217.15 28.9438 217.15ZM37.4949 213L35.5249 215.02L37.5949 218H36.1949L34.7249 215.7L33.8449 216.45V218H32.7449V210.4H33.8449V215.31L36.0449 213H37.4949ZM42.1539 218L42.1139 217.2C41.7639 217.75 41.1839 218.1 40.3839 218.1C38.9139 218.1 37.9039 217.06 37.9039 215.5C37.9039 213.94 38.9139 212.9 40.3839 212.9C41.1739 212.93 41.7439 213.26 42.1039 213.8V213H43.2039V218H42.1539ZM40.6039 217.15C41.5639 217.15 42.2039 216.49 42.2039 215.5C42.2039 214.51 41.5639 213.85 40.6039 213.85C39.6439 213.85 39.0039 214.51 39.0039 215.5C39.0039 216.49 39.6439 217.15 40.6039 217.15ZM46.3204 212.9C47.5104 212.9 48.3404 213.59 48.3704 214.53L47.3004 214.52C47.2204 214.05 46.7904 213.8 46.3104 213.8C45.8204 213.8 45.5004 214.03 45.5004 214.39C45.5004 214.69 45.6904 214.85 46.1404 214.95L46.8904 215.1C48.0104 215.32 48.4904 215.75 48.4904 216.53C48.4904 217.47 47.6504 218.1 46.4004 218.1C45.0704 218.1 44.3104 217.45 44.2504 216.47H45.3204C45.3904 216.95 45.8504 217.2 46.4204 217.2C47.0004 217.2 47.3904 216.95 47.3904 216.59C47.3904 216.27 47.1604 216.09 46.6104 215.98L45.8704 215.84C44.8404 215.65 44.4004 215.22 44.4004 214.41C44.4004 213.5 45.1704 212.9 46.3204 212.9ZM49.6018 213H50.7018V218H49.6018V213ZM50.1518 210.4C50.5218 210.4 50.8218 210.69 50.8218 211.05C50.8218 211.41 50.5218 211.7 50.1518 211.7C49.7718 211.7 49.4718 211.41 49.4718 211.05C49.4718 210.69 49.7718 210.4 50.1518 210.4Z" fill="#797979"/>
<path d="M23.01 274.96C23.01 276.93 21.86 278.1 19.91 278.1C17.96 278.1 16.81 276.93 16.81 274.96V271H17.96V274.96C17.96 276.31 18.68 277.1 19.91 277.1C21.14 277.1 21.86 276.31 21.86 274.96V271H23.01V274.96ZM24.5223 278V273H25.6223V273.96C25.9723 273.29 26.6123 272.9 27.4723 272.9C28.6823 272.9 29.3723 273.78 29.3723 275.15V278H28.2723V275.3C28.2723 274.45 27.8423 273.85 27.0223 273.85C26.1723 273.85 25.6223 274.45 25.6223 275.3V278H24.5223ZM32.8746 278.1C31.3746 278.1 30.3746 277.06 30.3746 275.5C30.3746 273.94 31.3746 272.9 32.8746 272.9C33.6746 272.9 34.2446 273.24 34.5846 273.78L34.6246 273H35.6746V278C35.6746 279.51 34.7346 280.4 33.1546 280.4C31.5246 280.4 30.6246 279.69 30.5746 278.4H31.6846C31.7846 279.07 32.3046 279.45 33.1546 279.45C34.0446 279.45 34.5746 278.91 34.5746 278V277.25C34.2246 277.77 33.6646 278.1 32.8746 278.1ZM33.0746 277.15C34.0346 277.15 34.6746 276.49 34.6746 275.5C34.6746 274.51 34.0346 273.85 33.0746 273.85C32.1146 273.85 31.4746 274.51 31.4746 275.5C31.4746 276.49 32.1146 277.15 33.0746 277.15ZM39.0758 278.1C37.5758 278.1 36.5758 277.06 36.5758 275.5C36.5758 273.94 37.5758 272.9 39.0758 272.9C39.8758 272.9 40.4458 273.24 40.7858 273.78L40.8258 273H41.8758V278C41.8758 279.51 40.9358 280.4 39.3558 280.4C37.7258 280.4 36.8258 279.69 36.7758 278.4H37.8858C37.9858 279.07 38.5058 279.45 39.3558 279.45C40.2458 279.45 40.7758 278.91 40.7758 278V277.25C40.4258 277.77 39.8658 278.1 39.0758 278.1ZM39.2758 277.15C40.2358 277.15 40.8758 276.49 40.8758 275.5C40.8758 274.51 40.2358 273.85 39.2758 273.85C38.3158 273.85 37.6758 274.51 37.6758 275.5C37.6758 276.49 38.3158 277.15 39.2758 277.15ZM47.027 278L46.987 277.2C46.637 277.75 46.057 278.1 45.257 278.1C43.787 278.1 42.777 277.06 42.777 275.5C42.777 273.94 43.787 272.9 45.257 272.9C46.047 272.93 46.617 273.26 46.977 273.8V273H48.077V278H47.027ZM45.477 277.15C46.437 277.15 47.077 276.49 47.077 275.5C47.077 274.51 46.437 273.85 45.477 273.85C44.517 273.85 43.877 274.51 43.877 275.5C43.877 276.49 44.517 277.15 45.477 277.15ZM49.4734 278V270.4H50.5734V273.94C50.9234 273.27 51.5634 272.9 52.4234 272.9C53.6334 272.9 54.3234 273.78 54.3234 275.15V278H53.2234V275.3C53.2234 274.45 52.7934 273.85 51.9734 273.85C51.1234 273.85 50.5734 274.45 50.5734 275.3V278H49.4734ZM58.3258 271H62.3258V272H59.4758V273.95H62.3258V274.95H59.4758V278H58.3258V271ZM65.809 272.9C67.429 272.9 68.509 273.94 68.509 275.5C68.509 277.06 67.429 278.1 65.809 278.1C64.189 278.1 63.109 277.06 63.109 275.5C63.109 273.94 64.189 272.9 65.809 272.9ZM65.809 277.15C66.769 277.15 67.409 276.49 67.409 275.5C67.409 274.51 66.769 273.85 65.809 273.85C64.849 273.85 64.209 274.51 64.209 275.5C64.209 276.49 64.849 277.15 65.809 277.15ZM71.5102 278C70.4802 278 70.0602 277.61 70.0602 276.65V273.95H69.0602V273H69.6102C70.0202 273 70.1602 272.86 70.2102 272.45L70.3102 271.6H71.1602V273H72.5602V273.95H71.1602V276.5C71.1602 276.89 71.3202 277.05 71.7102 277.05H72.5602V278H71.5102ZM75.9066 272.9C77.5266 272.9 78.6066 273.94 78.6066 275.5C78.6066 277.06 77.5266 278.1 75.9066 278.1C74.2866 278.1 73.2066 277.06 73.2066 275.5C73.2066 273.94 74.2866 272.9 75.9066 272.9ZM75.9066 277.15C76.8666 277.15 77.5066 276.49 77.5066 275.5C77.5066 274.51 76.8666 273.85 75.9066 273.85C74.9466 273.85 74.3066 274.51 74.3066 275.5C74.3066 276.49 74.9466 277.15 75.9066 277.15ZM82.1078 274.75C82.1078 272.25 83.6478 270.65 85.3578 270V270.76C84.0978 271.45 83.0978 272.79 83.0978 274.75C83.0978 276.73 84.0878 278.01 85.3578 278.84V279.6C83.6478 278.85 82.1078 277.3 82.1078 274.75ZM90.1609 278.1C87.9409 278.1 86.4609 276.66 86.4609 274.5C86.4609 272.34 87.9409 270.9 90.1609 270.9C92.3809 270.9 93.8609 272.34 93.8609 274.5C93.8609 276.66 92.3809 278.1 90.1609 278.1ZM90.1609 277.1C91.6909 277.1 92.7109 276.06 92.7109 274.5C92.7109 272.94 91.6909 271.9 90.1609 271.9C88.6309 271.9 87.6109 272.94 87.6109 274.5C87.6109 276.06 88.6309 277.1 90.1609 277.1ZM96.1594 273V273.79C96.5194 273.24 97.0994 272.9 97.9094 272.9C99.3594 272.9 100.359 273.94 100.359 275.5C100.359 277.06 99.3594 278.1 97.9094 278.1C97.0994 278.1 96.5194 277.76 96.1594 277.21V280.4H95.0594V273H96.1594ZM97.6594 277.15C98.6194 277.15 99.2594 276.49 99.2594 275.5C99.2594 274.51 98.6194 273.85 97.6594 273.85C96.6994 273.85 96.0594 274.51 96.0594 275.5C96.0594 276.49 96.6994 277.15 97.6594 277.15ZM103.176 272.9C104.366 272.9 105.196 273.59 105.226 274.53L104.156 274.52C104.076 274.05 103.646 273.8 103.166 273.8C102.676 273.8 102.356 274.03 102.356 274.39C102.356 274.69 102.546 274.85 102.996 274.95L103.746 275.1C104.866 275.32 105.346 275.75 105.346 276.53C105.346 277.47 104.506 278.1 103.256 278.1C101.926 278.1 101.166 277.45 101.106 276.47H102.176C102.246 276.95 102.706 277.2 103.276 277.2C103.856 277.2 104.246 276.95 104.246 276.59C104.246 276.27 104.016 276.09 103.466 275.98L102.726 275.84C101.696 275.65 101.256 275.22 101.256 274.41C101.256 273.5 102.026 272.9 103.176 272.9ZM106.457 273H107.557V278H106.457V273ZM107.007 270.4C107.377 270.4 107.677 270.69 107.677 271.05C107.677 271.41 107.377 271.7 107.007 271.7C106.627 271.7 106.327 271.41 106.327 271.05C106.327 270.69 106.627 270.4 107.007 270.4ZM111.405 272.9C113.025 272.9 114.105 273.94 114.105 275.5C114.105 277.06 113.025 278.1 111.405 278.1C109.785 278.1 108.705 277.06 108.705 275.5C108.705 273.94 109.785 272.9 111.405 272.9ZM111.405 277.15C112.365 277.15 113.005 276.49 113.005 275.5C113.005 274.51 112.365 273.85 111.405 273.85C110.445 273.85 109.805 274.51 109.805 275.5C109.805 276.49 110.445 277.15 111.405 277.15ZM115.206 278V273H116.306V273.96C116.656 273.29 117.296 272.9 118.156 272.9C119.366 272.9 120.056 273.78 120.056 275.15V278H118.956V275.3C118.956 274.45 118.526 273.85 117.706 273.85C116.856 273.85 116.306 274.45 116.306 275.3V278H115.206ZM125.308 278L125.268 277.2C124.918 277.75 124.338 278.1 123.538 278.1C122.068 278.1 121.058 277.06 121.058 275.5C121.058 273.94 122.068 272.9 123.538 272.9C124.328 272.93 124.898 273.26 125.258 273.8V273H126.358V278H125.308ZM123.758 277.15C124.718 277.15 125.358 276.49 125.358 275.5C125.358 274.51 124.718 273.85 123.758 273.85C122.798 273.85 122.158 274.51 122.158 275.5C122.158 276.49 122.798 277.15 123.758 277.15ZM127.805 270.4H128.905V278H127.805V270.4ZM133.493 274.75C133.493 277.3 131.953 278.85 130.243 279.6V278.84C131.513 278.01 132.503 276.73 132.503 274.75C132.503 272.79 131.503 271.45 130.243 270.76V270C131.953 270.65 133.493 272.25 133.493 274.75Z" fill="#797979"/>
<path d="M49.65 379.01C50.99 379.34 51.57 379.93 51.57 380.99C51.57 382.26 50.57 383.1 49.07 383.1C47.5 383.1 46.6 382.2 46.55 380.92H47.7C47.75 381.64 48.24 382.1 49.14 382.1C49.91 382.1 50.42 381.69 50.42 381.07C50.42 380.56 50.09 380.26 49.31 380.07L48.55 379.87C47.23 379.54 46.67 378.96 46.67 377.93C46.67 376.71 47.63 375.89 49.07 375.89C50.56 375.89 51.4 376.85 51.46 377.99H50.29C50.23 377.35 49.79 376.89 49.02 376.89C48.3 376.89 47.82 377.27 47.82 377.85C47.82 378.34 48.12 378.63 48.83 378.8L49.65 379.01ZM52.523 380.5C52.523 378.94 53.603 377.9 55.123 377.9C56.643 377.9 57.723 378.94 57.723 380.5V380.75H53.643C53.733 381.61 54.343 382.15 55.123 382.15C55.753 382.15 56.173 381.88 56.413 381.45H57.573C57.243 382.45 56.383 383.1 55.123 383.1C53.603 383.1 52.523 382.06 52.523 380.5ZM53.663 380.12L56.603 380.11C56.493 379.34 55.903 378.85 55.123 378.85C54.393 378.85 53.803 379.34 53.663 380.12ZM58.8191 383V378H59.9191V378.82C60.2791 378.24 60.8991 377.9 61.6691 377.9C62.4891 377.9 63.0991 378.35 63.3691 379.11C63.6891 378.35 64.3691 377.9 65.2691 377.9C66.3791 377.9 67.1191 378.74 67.1191 380.05V383H66.0191V380.2C66.0191 379.39 65.5591 378.85 64.8691 378.85C64.0591 378.85 63.5191 379.39 63.5191 380.2V383H62.4191V380.2C62.4191 379.39 61.9591 378.85 61.2691 378.85C60.4591 378.85 59.9191 379.39 59.9191 380.2V383H58.8191ZM69.5188 375.4V378.79C69.8788 378.24 70.4588 377.9 71.2688 377.9C72.7188 377.9 73.7188 378.94 73.7188 380.5C73.7188 382.06 72.7188 383.1 71.2688 383.1C70.4588 383.1 69.8788 382.76 69.5188 382.21V383H68.4188V375.4H69.5188ZM71.0188 382.15C71.9788 382.15 72.6188 381.49 72.6188 380.5C72.6188 379.51 71.9788 378.85 71.0188 378.85C70.0588 378.85 69.4188 379.51 69.4188 380.5C69.4188 381.49 70.0588 382.15 71.0188 382.15ZM75.8152 380.8C75.8152 381.61 76.2752 382.15 76.9652 382.15C77.7452 382.15 78.2652 381.61 78.2652 380.8V378H79.3652V383H78.2652V382.15C77.9352 382.75 77.3552 383.1 76.5652 383.1C75.4552 383.1 74.7152 382.26 74.7152 380.95V378H75.8152V380.8ZM80.7625 383V378H81.8625V378.96C82.2125 378.29 82.8525 377.9 83.7125 377.9C84.9225 377.9 85.6125 378.78 85.6125 380.15V383H84.5125V380.3C84.5125 379.45 84.0825 378.85 83.2625 378.85C82.4125 378.85 81.8625 379.45 81.8625 380.3V383H80.7625ZM86.8448 385.4V384.45H87.2948C87.7948 384.45 88.0548 384.23 88.2748 383.69L88.5648 383L86.3648 378H87.6148L89.1448 381.73L90.5148 378H91.7648L89.7248 383L89.2548 384.04C88.8248 385.01 88.2748 385.4 87.2948 385.4H86.8448ZM92.678 378H93.778V383H92.678V378ZM93.228 375.4C93.598 375.4 93.898 375.69 93.898 376.05C93.898 376.41 93.598 376.7 93.228 376.7C92.848 376.7 92.548 376.41 92.548 376.05C92.548 375.69 92.848 375.4 93.228 375.4ZM99.9754 378L98.0054 380.02L100.075 383H98.6754L97.2054 380.7L96.3254 381.45V383H95.2254V375.4H96.3254V380.31L98.5254 378H99.9754ZM104.634 383L104.594 382.2C104.244 382.75 103.664 383.1 102.864 383.1C101.394 383.1 100.384 382.06 100.384 380.5C100.384 378.94 101.394 377.9 102.864 377.9C103.654 377.93 104.224 378.26 104.584 378.8V378H105.684V383H104.634ZM103.084 382.15C104.044 382.15 104.684 381.49 104.684 380.5C104.684 379.51 104.044 378.85 103.084 378.85C102.124 378.85 101.484 379.51 101.484 380.5C101.484 381.49 102.124 382.15 103.084 382.15ZM107.081 383V378H108.181V378.96C108.531 378.29 109.171 377.9 110.031 377.9C111.241 377.9 111.931 378.78 111.931 380.15V383H110.831V380.3C110.831 379.45 110.401 378.85 109.581 378.85C108.731 378.85 108.181 379.45 108.181 380.3V383H107.081ZM121.183 376H122.333V383H120.883L117.083 377.55V383H115.933V376H117.333L121.183 381.5V376ZM127.886 383L127.846 382.2C127.496 382.75 126.916 383.1 126.116 383.1C124.646 383.1 123.636 382.06 123.636 380.5C123.636 378.94 124.646 377.9 126.116 377.9C126.906 377.93 127.476 378.26 127.836 378.8V378H128.936V383H127.886ZM126.336 382.15C127.296 382.15 127.936 381.49 127.936 380.5C127.936 379.51 127.296 378.85 126.336 378.85C125.376 378.85 124.736 379.51 124.736 380.5C124.736 381.49 125.376 382.15 126.336 382.15ZM130.333 383V378H131.433V378.82C131.793 378.24 132.413 377.9 133.183 377.9C134.003 377.9 134.613 378.35 134.883 379.11C135.203 378.35 135.883 377.9 136.783 377.9C137.893 377.9 138.633 378.74 138.633 380.05V383H137.533V380.2C137.533 379.39 137.073 378.85 136.383 378.85C135.573 378.85 135.033 379.39 135.033 380.2V383H133.933V380.2C133.933 379.39 133.473 378.85 132.783 378.85C131.973 378.85 131.433 379.39 131.433 380.2V383H130.333ZM143.882 383L143.842 382.2C143.492 382.75 142.912 383.1 142.112 383.1C140.642 383.1 139.632 382.06 139.632 380.5C139.632 378.94 140.642 377.9 142.112 377.9C142.902 377.93 143.472 378.26 143.832 378.8V378H144.932V383H143.882ZM142.332 382.15C143.292 382.15 143.932 381.49 143.932 380.5C143.932 379.51 143.292 378.85 142.332 378.85C141.372 378.85 140.732 379.51 140.732 380.5C140.732 381.49 141.372 382.15 142.332 382.15ZM152.729 376L155.579 383H154.279L153.619 381.32H150.239L149.579 383H148.279L151.139 376H152.729ZM150.609 380.37H153.249L151.929 377.01L150.609 380.37ZM156.427 383V378H157.527V378.96C157.877 378.29 158.517 377.9 159.377 377.9C160.587 377.9 161.277 378.78 161.277 380.15V383H160.177V380.3C160.177 379.45 159.747 378.85 158.927 378.85C158.077 378.85 157.527 379.45 157.527 380.3V383H156.427ZM166.529 383L166.489 382.2C166.139 382.75 165.559 383.1 164.759 383.1C163.289 383.1 162.279 382.06 162.279 380.5C162.279 378.94 163.289 377.9 164.759 377.9C165.549 377.9 166.119 378.24 166.479 378.78V375.4H167.579V383H166.529ZM164.979 382.15C165.939 382.15 166.579 381.49 166.579 380.5C166.579 379.51 165.939 378.85 164.979 378.85C164.019 378.85 163.379 379.51 163.379 380.5C163.379 381.49 164.019 382.15 164.979 382.15ZM172.925 383L172.885 382.2C172.535 382.75 171.955 383.1 171.155 383.1C169.685 383.1 168.675 382.06 168.675 380.5C168.675 378.94 169.685 377.9 171.155 377.9C171.945 377.93 172.515 378.26 172.875 378.8V378H173.975V383H172.925ZM171.375 382.15C172.335 382.15 172.975 381.49 172.975 380.5C172.975 379.51 172.335 378.85 171.375 378.85C170.415 378.85 169.775 379.51 169.775 380.5C169.775 381.49 170.415 382.15 171.375 382.15Z" fill="#797979"/>
<rect x="16.5" y="106.5" width="282" height="29" rx="9.5" fill="white" stroke="#D6D6D6"/>
<rect x="16.5" y="166.5" width="282" height="29" rx="9.5" fill="white" stroke="#D6D6D6"/>
<rect x="16.5" y="226.5" width="282" height="29" rx="9.5" fill="white" stroke="#D6D6D6"/>
<rect x="16.5" y="368.5" width="21" height="21" rx="5.5" fill="white" stroke="#D6D6D6"/>
<rect x="16" y="286" width="283" height="70" rx="10" fill="white" stroke="#D6D6D6" stroke-linecap="round" stroke-dasharray="6 6"/>
<path d="M30.28 125.1C28.04 125.1 26.55 123.66 26.55 121.5C26.55 119.34 28.04 117.9 30.28 117.9C32.16 117.9 33.5 118.95 33.82 120.6H32.88C32.58 119.43 31.61 118.7 30.28 118.7C28.6 118.7 27.48 119.82 27.48 121.5C27.48 123.18 28.6 124.3 30.28 124.3C31.61 124.3 32.58 123.57 32.88 122.4H33.82C33.5 124.05 32.16 125.1 30.28 125.1ZM37.5289 119.9C39.1489 119.9 40.2289 120.94 40.2289 122.5C40.2289 124.06 39.1489 125.1 37.5289 125.1C35.9089 125.1 34.8289 124.06 34.8289 122.5C34.8289 120.94 35.9089 119.9 37.5289 119.9ZM37.5289 124.32C38.6089 124.32 39.3289 123.59 39.3289 122.5C39.3289 121.4 38.6089 120.67 37.5289 120.67C36.4489 120.67 35.7289 121.4 35.7289 122.5C35.7289 123.59 36.4489 124.32 37.5289 124.32ZM41.4277 125V120H42.3277V121C42.6877 120.32 43.3477 119.9 44.2577 119.9C45.5477 119.9 46.2577 120.82 46.2577 122.27V125H45.3577V122.35C45.3577 121.37 44.8877 120.67 43.9277 120.67C42.9577 120.67 42.3277 121.37 42.3277 122.35V125H41.4277ZM49.5082 125C48.4882 125 48.0882 124.62 48.0882 123.67V120.77H47.0882V120H47.6082C48.0482 120 48.1582 119.86 48.2082 119.42L48.3082 118.6H48.9882V120H50.3882V120.77H48.9882V123.6C48.9882 124.05 49.1582 124.22 49.6082 124.22H50.3882V125H49.5082ZM53.8082 119.9C55.4282 119.9 56.5082 120.94 56.5082 122.5C56.5082 124.06 55.4282 125.1 53.8082 125.1C52.1882 125.1 51.1082 124.06 51.1082 122.5C51.1082 120.94 52.1882 119.9 53.8082 119.9ZM53.8082 124.32C54.8882 124.32 55.6082 123.59 55.6082 122.5C55.6082 121.4 54.8882 120.67 53.8082 120.67C52.7282 120.67 52.0082 121.4 52.0082 122.5C52.0082 123.59 52.7282 124.32 53.8082 124.32ZM57.707 125V117.4H58.607V120.99C58.967 120.31 59.627 119.9 60.537 119.9C61.827 119.9 62.537 120.82 62.537 122.27V125H61.637V122.35C61.637 121.37 61.167 120.67 60.207 120.67C59.237 120.67 58.607 121.37 58.607 122.35V125H57.707ZM64.4675 119.92C64.8375 119.92 65.1375 120.22 65.1375 120.59C65.1375 120.95 64.8375 121.25 64.4675 121.25C64.0875 121.25 63.7875 120.95 63.7875 120.59C63.7875 120.22 64.0875 119.92 64.4675 119.92ZM64.4675 123.77C64.8375 123.77 65.1375 124.07 65.1375 124.44C65.1375 124.8 64.8375 125.1 64.4675 125.1C64.0875 125.1 63.7875 124.8 63.7875 124.44C63.7875 124.07 64.0875 123.77 64.4675 123.77ZM68.8852 117.4H69.7852L69.5852 120.3H69.0852L68.8852 117.4ZM70.5152 117.4H71.4152L71.2152 120.3H70.7152L70.5152 117.4ZM77.5356 122.31C77.5356 124.02 76.6156 125.1 74.8856 125.1C73.1256 125.1 72.1356 124.03 72.1956 122.41H73.1156C73.0756 123.59 73.8056 124.31 74.8856 124.31C75.9756 124.31 76.6056 123.56 76.6056 122.31V118H77.5356V122.31ZM83.2628 125L83.2428 124.11C82.8528 124.71 82.2228 125.1 81.3728 125.1C79.8628 125.1 78.8328 124.06 78.8328 122.5C78.8328 120.94 79.8628 119.9 81.3728 119.9C82.2228 119.91 82.8528 120.29 83.2328 120.89V120H84.1328V125H83.2628ZM81.5328 124.32C82.6128 124.32 83.3328 123.59 83.3328 122.5C83.3328 121.4 82.6128 120.67 81.5328 120.67C80.4528 120.67 79.7328 121.4 79.7328 122.5C79.7328 123.59 80.4528 124.32 81.5328 124.32ZM85.6867 117.4H86.5867V125H85.6867V117.4ZM92.2667 125L92.2467 124.11C91.8567 124.71 91.2267 125.1 90.3767 125.1C88.8667 125.1 87.8367 124.06 87.8367 122.5C87.8367 120.94 88.8667 119.9 90.3767 119.9C91.2267 119.91 91.8567 120.29 92.2367 120.89V120H93.1367V125H92.2667ZM90.5367 124.32C91.6167 124.32 92.3367 123.59 92.3367 122.5C92.3367 121.4 91.6167 120.67 90.5367 120.67C89.4567 120.67 88.7367 121.4 88.7367 122.5C88.7367 123.59 89.4567 124.32 90.5367 124.32ZM94.6406 125V120H95.5406V121C95.9006 120.32 96.5606 119.9 97.4706 119.9C98.7606 119.9 99.4706 120.82 99.4706 122.27V125H98.5706V122.35C98.5706 121.37 98.1006 120.67 97.1406 120.67C96.1706 120.67 95.5406 121.37 95.5406 122.35V125H94.6406ZM103.62 125V117.99L106.25 118C107.82 118 108.55 118.83 108.55 119.79C108.55 120.55 108.02 121.08 107.37 121.26C108.27 121.42 108.92 122.05 108.92 123.02C108.92 124.22 108.02 125 106.47 125H103.62ZM106.2 121.02C107.06 121.02 107.62 120.57 107.62 119.89C107.62 119.26 107.13 118.8 106.2 118.8H104.55V121.02H106.2ZM104.55 124.2H106.42C107.45 124.2 108 123.71 108 122.96C108 122.24 107.45 121.77 106.42 121.77H104.55V124.2ZM109.917 122.5C109.917 120.94 110.997 119.9 112.517 119.9C114.037 119.9 115.117 120.94 115.117 122.5V122.75H110.827C110.947 123.7 111.647 124.32 112.517 124.32C113.247 124.32 113.727 124.01 113.997 123.52H114.957C114.587 124.48 113.747 125.1 112.517 125.1C110.997 125.1 109.917 124.06 109.917 122.5ZM110.837 122.16L114.197 122.15C114.087 121.25 113.417 120.67 112.517 120.67C111.667 120.67 110.987 121.25 110.837 122.16ZM116.32 125V120H117.22V120.95C117.51 120.3 118.03 120 118.82 120H119.17V120.77H118.82C117.68 120.77 117.22 121.23 117.22 122.37V125H116.32ZM120.071 117.4H120.971V125H120.071V117.4ZM123.321 122.8C123.321 123.71 123.831 124.32 124.601 124.32C125.501 124.32 126.101 123.71 126.101 122.8V120H127.001V125H126.101V124.12C125.761 124.74 125.161 125.1 124.351 125.1C123.191 125.1 122.421 124.24 122.421 122.87V120H123.321V122.8ZM129.398 117.4V120.89C129.778 120.29 130.408 119.9 131.278 119.9C132.778 119.9 133.798 120.94 133.798 122.5C133.798 124.06 132.778 125.1 131.278 125.1C130.408 125.1 129.778 124.71 129.398 124.11V125H128.498V117.4H129.398ZM131.098 124.32C132.178 124.32 132.898 123.59 132.898 122.5C132.898 121.4 132.178 120.67 131.098 120.67C130.018 120.67 129.298 121.4 129.298 122.5C129.298 123.59 130.018 124.32 131.098 124.32ZM139.132 125L139.112 124.11C138.722 124.71 138.092 125.1 137.242 125.1C135.732 125.1 134.702 124.06 134.702 122.5C134.702 120.94 135.732 119.9 137.242 119.9C138.092 119.91 138.722 120.29 139.102 120.89V120H140.002V125H139.132ZM137.402 124.32C138.482 124.32 139.202 123.59 139.202 122.5C139.202 121.4 138.482 120.67 137.402 120.67C136.322 120.67 135.602 121.4 135.602 122.5C135.602 123.59 136.322 124.32 137.402 124.32ZM141.506 125V120H142.406V121C142.766 120.32 143.426 119.9 144.336 119.9C145.626 119.9 146.336 120.82 146.336 122.27V125H145.436V122.35C145.436 121.37 144.966 120.67 144.006 120.67C143.036 120.67 142.406 121.37 142.406 122.35V125H141.506ZM149.986 125.1C148.456 125.1 147.436 124.06 147.436 122.5C147.436 120.94 148.456 119.9 149.986 119.9C150.836 119.9 151.466 120.28 151.846 120.88L151.866 120H152.736V125C152.736 126.51 151.806 127.4 150.226 127.4C148.636 127.4 147.716 126.7 147.636 125.45H148.556C148.656 126.2 149.256 126.62 150.226 126.62C151.236 126.62 151.836 126.02 151.836 125V124.13C151.456 124.72 150.836 125.1 149.986 125.1ZM150.136 124.32C151.216 124.32 151.936 123.59 151.936 122.5C151.936 121.4 151.216 120.67 150.136 120.67C149.056 120.67 148.336 121.4 148.336 122.5C148.336 123.59 149.056 124.32 150.136 124.32ZM153.836 117.4H154.736L154.536 120.3H154.036L153.836 117.4ZM155.466 117.4H156.366L156.166 120.3H155.666L155.466 117.4Z" fill="#797979"/>
<path d="M30.28 245.1C28.04 245.1 26.55 243.66 26.55 241.5C26.55 239.34 28.04 237.9 30.28 237.9C32.16 237.9 33.5 238.95 33.82 240.6H32.88C32.58 239.43 31.61 238.7 30.28 238.7C28.6 238.7 27.48 239.82 27.48 241.5C27.48 243.18 28.6 244.3 30.28 244.3C31.61 244.3 32.58 243.57 32.88 242.4H33.82C33.5 244.05 32.16 245.1 30.28 245.1ZM37.5289 239.9C39.1489 239.9 40.2289 240.94 40.2289 242.5C40.2289 244.06 39.1489 245.1 37.5289 245.1C35.9089 245.1 34.8289 244.06 34.8289 242.5C34.8289 240.94 35.9089 239.9 37.5289 239.9ZM37.5289 244.32C38.6089 244.32 39.3289 243.59 39.3289 242.5C39.3289 241.4 38.6089 240.67 37.5289 240.67C36.4489 240.67 35.7289 241.4 35.7289 242.5C35.7289 243.59 36.4489 244.32 37.5289 244.32ZM41.4277 245V240H42.3277V241C42.6877 240.32 43.3477 239.9 44.2577 239.9C45.5477 239.9 46.2577 240.82 46.2577 242.27V245H45.3577V242.35C45.3577 241.37 44.8877 240.67 43.9277 240.67C42.9577 240.67 42.3277 241.37 42.3277 242.35V245H41.4277ZM49.5082 245C48.4882 245 48.0882 244.62 48.0882 243.67V240.77H47.0882V240H47.6082C48.0482 240 48.1582 239.86 48.2082 239.42L48.3082 238.6H48.9882V240H50.3882V240.77H48.9882V243.6C48.9882 244.05 49.1582 244.22 49.6082 244.22H50.3882V245H49.5082ZM53.8082 239.9C55.4282 239.9 56.5082 240.94 56.5082 242.5C56.5082 244.06 55.4282 245.1 53.8082 245.1C52.1882 245.1 51.1082 244.06 51.1082 242.5C51.1082 240.94 52.1882 239.9 53.8082 239.9ZM53.8082 244.32C54.8882 244.32 55.6082 243.59 55.6082 242.5C55.6082 241.4 54.8882 240.67 53.8082 240.67C52.7282 240.67 52.0082 241.4 52.0082 242.5C52.0082 243.59 52.7282 244.32 53.8082 244.32ZM57.707 245V237.4H58.607V240.99C58.967 240.31 59.627 239.9 60.537 239.9C61.827 239.9 62.537 240.82 62.537 242.27V245H61.637V242.35C61.637 241.37 61.167 240.67 60.207 240.67C59.237 240.67 58.607 241.37 58.607 242.35V245H57.707ZM64.4675 239.92C64.8375 239.92 65.1375 240.22 65.1375 240.59C65.1375 240.95 64.8375 241.25 64.4675 241.25C64.0875 241.25 63.7875 240.95 63.7875 240.59C63.7875 240.22 64.0875 239.92 64.4675 239.92ZM64.4675 243.77C64.8375 243.77 65.1375 244.07 65.1375 244.44C65.1375 244.8 64.8375 245.1 64.4675 245.1C64.0875 245.1 63.7875 244.8 63.7875 244.44C63.7875 244.07 64.0875 243.77 64.4675 243.77ZM69.2352 245V238H71.9352C74.1552 238 75.6352 239.4 75.6352 241.5C75.6352 243.6 74.1552 245 71.9352 245H69.2352ZM71.9352 244.2C73.6052 244.2 74.7152 243.12 74.7152 241.5C74.7152 239.88 73.6052 238.8 71.9352 238.8H70.1652V244.2H71.9352ZM77.7355 242.8C77.7355 243.71 78.2455 244.32 79.0155 244.32C79.9155 244.32 80.5155 243.71 80.5155 242.8V240H81.4155V245H80.5155V244.12C80.1755 244.74 79.5755 245.1 78.7655 245.1C77.6055 245.1 76.8355 244.24 76.8355 242.87V240H77.7355V242.8ZM84.5721 239.9C85.7121 239.9 86.5621 240.58 86.6121 241.51H85.7121C85.6421 240.95 85.1421 240.65 84.5621 240.65C83.9921 240.65 83.6121 240.93 83.6121 241.34C83.6121 241.7 83.8321 241.89 84.3221 242L85.0621 242.15C86.2121 242.38 86.7021 242.82 86.7021 243.6C86.7021 244.49 85.8821 245.1 84.6621 245.1C83.3721 245.1 82.5921 244.44 82.5421 243.49H83.4021C83.4721 244.03 83.9821 244.35 84.6721 244.35C85.3421 244.35 85.8021 244.06 85.8021 243.64C85.8021 243.26 85.5321 243.05 84.8921 242.92L84.1521 242.77C83.1421 242.57 82.7121 242.16 82.7121 241.37C82.7121 240.49 83.4521 239.9 84.5721 239.9ZM88.6242 242.8C88.6242 243.71 89.1342 244.32 89.9042 244.32C90.8042 244.32 91.4042 243.71 91.4042 242.8V240H92.3042V245H91.4042V244.12C91.0642 244.74 90.4642 245.1 89.6542 245.1C88.4942 245.1 87.7242 244.24 87.7242 242.87V240H88.6242V242.8ZM93.8008 245V240H94.7008V241C95.0608 240.32 95.7208 239.9 96.6308 239.9C97.9208 239.9 98.6308 240.82 98.6308 242.27V245H97.7308V242.35C97.7308 241.37 97.2608 240.67 96.3008 240.67C95.3308 240.67 94.7008 241.37 94.7008 242.35V245H93.8008ZM107.35 242.31C107.35 244.02 106.43 245.1 104.7 245.1C102.94 245.1 101.95 244.03 102.01 242.41H102.93C102.89 243.59 103.62 244.31 104.7 244.31C105.79 244.31 106.42 243.56 106.42 242.31V238H107.35V242.31ZM113.077 245L113.057 244.11C112.667 244.71 112.037 245.1 111.187 245.1C109.677 245.1 108.647 244.06 108.647 242.5C108.647 240.94 109.677 239.9 111.187 239.9C112.037 239.91 112.667 240.29 113.047 240.89V240H113.947V245H113.077ZM111.347 244.32C112.427 244.32 113.147 243.59 113.147 242.5C113.147 241.4 112.427 240.67 111.347 240.67C110.267 240.67 109.547 241.4 109.547 242.5C109.547 243.59 110.267 244.32 111.347 244.32ZM115.291 247.4V246.62H115.711C116.201 246.62 116.461 246.43 116.691 245.88L117.051 245L114.881 240H115.901L117.541 243.93L119.051 240H120.081L118.031 245L117.511 246.16C117.121 247.04 116.611 247.4 115.711 247.4H115.291ZM124.933 245L124.913 244.11C124.523 244.71 123.893 245.1 123.043 245.1C121.533 245.1 120.503 244.06 120.503 242.5C120.503 240.94 121.533 239.9 123.043 239.9C123.893 239.91 124.523 240.29 124.903 240.89V240H125.803V245H124.933ZM123.203 244.32C124.283 244.32 125.003 243.59 125.003 242.5C125.003 241.4 124.283 240.67 123.203 240.67C122.123 240.67 121.403 241.4 121.403 242.5C121.403 243.59 122.123 244.32 123.203 244.32ZM127.837 243.77C128.307 243.77 128.637 244.13 128.637 244.71C128.647 245.68 127.817 246.47 126.887 246.72V246.15C127.407 245.93 127.807 245.49 127.807 245.11C127.467 245.08 127.147 244.87 127.147 244.45C127.147 244.05 127.437 243.77 127.837 243.77ZM136.942 242.49L138.512 245H137.442L136.132 242.83C135.892 242.43 135.612 242.3 135.092 242.3H133.642V245H132.712V238H135.312C136.802 238 137.792 238.85 137.792 240.14C137.792 241.03 137.272 241.7 136.462 241.98C136.642 242.09 136.792 242.25 136.942 242.49ZM135.312 241.52C136.242 241.52 136.862 240.97 136.862 240.16C136.862 239.34 136.242 238.8 135.312 238.8H133.642V241.52H135.312ZM141.295 245C140.275 245 139.875 244.62 139.875 243.67V240.77H138.875V240H139.395C139.835 240 139.945 239.86 139.995 239.42L140.095 238.6H140.775V240H142.175V240.77H140.775V243.6C140.775 244.05 140.945 244.22 141.395 244.22H142.175V245H141.295ZM145.625 245.1C144.005 245.1 142.995 243.71 142.995 241.5C142.995 239.29 144.005 237.9 145.625 237.9C147.235 237.9 148.245 239.29 148.245 241.5C148.245 243.71 147.235 245.1 145.625 245.1ZM145.625 244.3C146.665 244.3 147.325 243.22 147.325 241.5C147.325 239.78 146.665 238.7 145.625 238.7C144.575 238.7 143.925 239.78 143.925 241.5C143.925 243.22 144.575 244.3 145.625 244.3ZM150.943 238H151.623V245H150.693V239.76H149.193V238.99H149.873C150.603 238.99 150.943 238.65 150.943 238ZM153.852 243.77C154.322 243.77 154.652 244.13 154.652 244.71C154.662 245.68 153.832 246.47 152.902 246.72V246.15C153.422 245.93 153.822 245.49 153.822 245.11C153.482 245.08 153.162 244.87 153.162 244.45C153.162 244.05 153.452 243.77 153.852 243.77ZM162.957 242.49L164.527 245H163.457L162.147 242.83C161.907 242.43 161.627 242.3 161.107 242.3H159.657V245H158.727V238H161.327C162.817 238 163.807 238.85 163.807 240.14C163.807 241.03 163.287 241.7 162.477 241.98C162.657 242.09 162.807 242.25 162.957 242.49ZM161.327 241.52C162.257 241.52 162.877 240.97 162.877 240.16C162.877 239.34 162.257 238.8 161.327 238.8H159.657V241.52H161.327ZM172.311 240H173.341L171.541 245H170.341L169.111 241.18L167.891 245H166.691L164.891 240H165.911L167.271 244.17L168.591 240H169.641L170.951 244.17L172.311 240ZM176.69 245.1C175.07 245.1 174.06 243.71 174.06 241.5C174.06 239.29 175.07 237.9 176.69 237.9C178.3 237.9 179.31 239.29 179.31 241.5C179.31 243.71 178.3 245.1 176.69 245.1ZM176.69 244.3C177.73 244.3 178.39 243.22 178.39 241.5C178.39 239.78 177.73 238.7 176.69 238.7C175.64 238.7 174.99 239.78 174.99 241.5C174.99 243.22 175.64 244.3 176.69 244.3ZM184.787 238V238.77C183.547 240.65 182.587 242.89 182.357 245H181.437C181.677 242.82 182.597 240.51 183.787 238.79H180.237V238H184.787Z" fill="#797979"/>
<path d="M155.148 311.521H158.686C159.869 311.521 160.807 311.521 161.562 311.583C162.336 311.645 162.989 311.778 163.587 312.081C164.555 312.575 165.342 313.362 165.835 314.331C166.139 314.927 166.271 315.581 166.334 316.355C166.396 317.11 166.396 318.048 166.396 319.231V319.267C166.396 319.482 166.31 319.689 166.158 319.841C166.005 319.994 165.799 320.079 165.583 320.079C165.368 320.079 165.161 319.994 165.009 319.841C164.856 319.689 164.771 319.482 164.771 319.267C164.771 318.04 164.771 317.168 164.715 316.487C164.66 315.815 164.555 315.398 164.387 315.068C164.05 314.405 163.511 313.867 162.849 313.529C162.519 313.361 162.102 313.257 161.43 313.202C160.747 313.147 159.876 313.146 158.65 313.146H155.183C153.957 313.146 153.085 313.146 152.404 313.202C151.732 313.256 151.315 313.361 150.984 313.529C150.322 313.867 149.784 314.405 149.446 315.068C149.278 315.398 149.174 315.815 149.119 316.487C149.064 317.169 149.062 318.04 149.062 319.267V322.657C149.133 322.58 149.206 322.505 149.279 322.43C149.613 322.094 149.964 321.811 150.4 321.651C151.061 321.41 151.785 321.41 152.446 321.651C152.881 321.811 153.232 322.093 153.565 322.429C153.888 322.754 154.25 323.187 154.687 323.713L154.71 323.741C154.718 323.75 154.727 323.758 154.738 323.764C154.749 323.769 154.761 323.772 154.774 323.773C154.786 323.773 154.798 323.771 154.81 323.767C154.821 323.762 154.831 323.755 154.84 323.746L158.119 320.35C158.534 319.921 158.88 319.562 159.186 319.294C159.505 319.014 159.834 318.781 160.233 318.648C160.844 318.445 161.504 318.445 162.115 318.648C162.62 318.817 163.025 319.152 163.439 319.55C163.52 319.624 163.585 319.712 163.631 319.811C163.676 319.909 163.702 320.016 163.706 320.125C163.709 320.234 163.691 320.342 163.652 320.443C163.613 320.545 163.554 320.638 163.479 320.716C163.403 320.794 163.313 320.857 163.213 320.899C163.113 320.942 163.005 320.964 162.897 320.965C162.788 320.965 162.68 320.944 162.58 320.902C162.48 320.86 162.389 320.798 162.313 320.72C161.928 320.351 161.743 320.237 161.601 320.19C161.324 320.097 161.024 320.097 160.746 320.19C160.64 320.225 160.5 320.302 160.258 320.515C160.009 320.733 159.708 321.043 159.264 321.504L156.01 324.873C155.843 325.046 155.641 325.182 155.418 325.272C155.195 325.362 154.956 325.404 154.716 325.395C154.475 325.386 154.24 325.327 154.024 325.221C153.808 325.115 153.617 324.965 153.463 324.78C152.996 324.221 152.679 323.842 152.412 323.573C152.152 323.31 152.001 323.218 151.889 323.176C151.588 323.066 151.259 323.066 150.958 323.176C150.848 323.218 150.696 323.31 150.435 323.573C150.169 323.842 149.851 324.221 149.384 324.78L149.317 324.861C149.254 324.937 149.192 325.015 149.132 325.094L149.128 325.1C149.115 325.126 149.107 325.152 149.102 325.179V325.243L149.112 325.409L149.115 325.446C149.169 326.158 149.274 326.59 149.447 326.93C149.785 327.592 150.323 328.131 150.985 328.468C151.316 328.637 151.733 328.741 152.405 328.797C153.087 328.852 153.958 328.853 155.184 328.853H158C158.215 328.853 158.422 328.939 158.575 329.091C158.727 329.243 158.812 329.45 158.812 329.666C158.812 329.881 158.727 330.088 158.575 330.24C158.422 330.392 158.215 330.478 158 330.478H155.148C153.965 330.478 153.026 330.478 152.271 330.416C151.739 330.373 151.264 330.297 150.824 330.154C150.626 330.089 150.434 330.01 150.248 329.917C149.279 329.424 148.492 328.637 147.999 327.669C147.694 327.071 147.562 326.418 147.499 325.644L147.492 325.547L147.491 325.528C147.485 325.46 147.48 325.387 147.477 325.312C147.438 324.618 147.438 323.784 147.438 322.768V319.23C147.438 318.047 147.437 317.109 147.499 316.354C147.562 315.58 147.694 314.927 147.998 314.33C148.491 313.361 149.279 312.574 150.248 312.081C150.843 311.776 151.498 311.644 152.271 311.581C153.026 311.52 153.965 311.521 155.148 311.521Z" fill="#797979"/>
<path d="M151.771 317.75C151.771 317.359 151.848 316.971 151.998 316.61C152.147 316.248 152.367 315.92 152.644 315.643C152.92 315.367 153.249 315.147 153.61 314.998C153.972 314.848 154.359 314.771 154.75 314.771C155.141 314.771 155.529 314.848 155.89 314.998C156.252 315.147 156.58 315.367 156.857 315.643C157.133 315.92 157.353 316.248 157.503 316.61C157.652 316.971 157.729 317.359 157.729 317.75C157.729 318.54 157.415 319.298 156.857 319.857C156.298 320.415 155.54 320.729 154.75 320.729C153.96 320.729 153.202 320.415 152.644 319.857C152.085 319.298 151.771 318.54 151.771 317.75ZM154.75 316.396C154.391 316.396 154.047 316.539 153.793 316.792C153.539 317.046 153.396 317.391 153.396 317.75C153.396 318.109 153.539 318.454 153.793 318.708C154.047 318.962 154.391 319.104 154.75 319.104C155.109 319.104 155.454 318.962 155.708 318.708C155.962 318.454 156.104 318.109 156.104 317.75C156.104 317.391 155.962 317.046 155.708 316.792C155.454 316.539 155.109 316.396 154.75 316.396ZM166.396 323.167C166.396 322.951 166.31 322.745 166.158 322.592C166.006 322.44 165.799 322.354 165.583 322.354C165.368 322.354 165.161 322.44 165.009 322.592C164.857 322.745 164.771 322.951 164.771 323.167V325.604H162.333C162.118 325.604 161.911 325.69 161.759 325.842C161.607 325.995 161.521 326.201 161.521 326.417C161.521 326.632 161.607 326.839 161.759 326.991C161.911 327.144 162.118 327.229 162.333 327.229H164.771V329.667C164.771 329.882 164.857 330.089 165.009 330.241C165.161 330.394 165.368 330.479 165.583 330.479C165.799 330.479 166.006 330.394 166.158 330.241C166.31 330.089 166.396 329.882 166.396 329.667V327.229H168.833C169.049 327.229 169.256 327.144 169.408 326.991C169.56 326.839 169.646 326.632 169.646 326.417C169.646 326.201 169.56 325.995 169.408 325.842C169.256 325.69 169.049 325.604 168.833 325.604H166.396V323.167Z" fill="#797979"/>
<rect x="16" y="412" width="283" height="27" rx="10" fill="#3F7D58"/>
<path d="M126.876 421.6L123.864 425.092L127.356 430H125.28L122.712 426.244L121.356 427.66V430H119.7V421.6H121.356V425.8L124.716 421.6H126.876ZM128.011 424H129.571V430H128.011V424ZM128.791 420.88C129.295 420.88 129.703 421.264 129.703 421.744C129.703 422.224 129.295 422.62 128.791 422.62C128.287 422.62 127.879 422.224 127.879 421.744C127.879 421.264 128.287 420.88 128.791 420.88ZM130.852 430V424H132.412V425.26C132.76 424.456 133.372 424 134.332 424H134.872V425.344H134.332C132.964 425.344 132.412 425.896 132.412 427.264V430H130.852ZM135.501 424H137.061V430H135.501V424ZM136.281 420.88C136.785 420.88 137.193 421.264 137.193 421.744C137.193 422.224 136.785 422.62 136.281 422.62C135.777 422.62 135.369 422.224 135.369 421.744C135.369 421.264 135.777 420.88 136.281 420.88ZM138.342 430V424H139.902V425.02C140.322 424.288 141.054 423.88 141.978 423.88C142.926 423.88 143.646 424.432 143.946 425.344C144.318 424.408 145.122 423.88 146.178 423.88C147.45 423.88 148.302 424.864 148.302 426.364V430H146.742V426.64C146.742 425.788 146.25 425.224 145.518 425.224C144.666 425.224 144.102 425.788 144.102 426.64V430H142.542V426.64C142.542 425.788 142.05 425.224 141.318 425.224C140.466 425.224 139.902 425.788 139.902 426.64V430H138.342ZM156.963 421.6L160.335 430H158.475L157.755 428.104H153.975L153.255 430H151.395L154.755 421.6H156.963ZM154.479 426.748H157.239L155.859 423.112L154.479 426.748ZM163.056 423.88C164.532 423.88 165.516 424.708 165.54 425.848H164.028C163.932 425.38 163.5 425.14 163.032 425.14C162.552 425.14 162.228 425.368 162.228 425.716C162.228 426.016 162.444 426.184 162.912 426.28L163.824 426.46C165.132 426.724 165.696 427.228 165.696 428.164C165.696 429.328 164.664 430.12 163.128 430.12C161.496 430.12 160.608 429.352 160.536 428.152H162.06C162.156 428.644 162.636 428.86 163.176 428.86C163.752 428.86 164.136 428.62 164.136 428.26C164.136 427.948 163.908 427.768 163.368 427.66L162.48 427.504C161.208 427.264 160.668 426.748 160.668 425.752C160.668 424.624 161.628 423.88 163.056 423.88ZM168.1 424V424.816C168.508 424.24 169.144 423.88 170.056 423.88C171.724 423.88 172.9 425.128 172.9 427C172.9 428.872 171.724 430.12 170.056 430.12C169.144 430.12 168.508 429.76 168.1 429.184V432.88H166.54V424H168.1ZM169.66 428.764C170.668 428.764 171.34 428.056 171.34 427C171.34 425.932 170.668 425.224 169.66 425.224C168.652 425.224 167.98 425.932 167.98 427C167.98 428.056 168.652 428.764 169.66 428.764ZM173.825 424H175.385V430H173.825V424ZM174.605 420.88C175.109 420.88 175.517 421.264 175.517 421.744C175.517 422.224 175.109 422.62 174.605 422.62C174.101 422.62 173.693 422.224 173.693 421.744C173.693 421.264 174.101 420.88 174.605 420.88ZM176.666 430V424H178.226V425.26C178.574 424.456 179.186 424 180.146 424H180.686V425.344H180.146C178.778 425.344 178.226 425.896 178.226 427.264V430H176.666ZM185.556 430L185.496 429.148C185.088 429.748 184.464 430.12 183.552 430.12C181.86 430.12 180.66 428.872 180.66 427C180.66 425.128 181.86 423.88 183.552 423.88C184.44 423.928 185.064 424.276 185.46 424.84V424H187.02V430H185.556ZM183.9 428.764C184.908 428.764 185.58 428.056 185.58 427C185.58 425.932 184.908 425.224 183.9 425.224C182.892 425.224 182.22 425.932 182.22 427C182.22 428.056 182.892 428.764 183.9 428.764ZM190.382 423.88C191.858 423.88 192.842 424.708 192.866 425.848H191.353C191.258 425.38 190.825 425.14 190.358 425.14C189.877 425.14 189.553 425.368 189.553 425.716C189.553 426.016 189.769 426.184 190.237 426.28L191.15 426.46C192.457 426.724 193.022 427.228 193.022 428.164C193.022 429.328 191.989 430.12 190.454 430.12C188.821 430.12 187.933 429.352 187.861 428.152H189.386C189.482 428.644 189.961 428.86 190.502 428.86C191.078 428.86 191.461 428.62 191.461 428.26C191.461 427.948 191.234 427.768 190.694 427.66L189.805 427.504C188.533 427.264 187.993 426.748 187.993 425.752C187.993 424.624 188.953 423.88 190.382 423.88ZM193.925 424H195.485V430H193.925V424ZM194.705 420.88C195.209 420.88 195.617 421.264 195.617 421.744C195.617 422.224 195.209 422.62 194.705 422.62C194.201 422.62 193.793 422.224 193.793 421.744C193.793 421.264 194.201 420.88 194.705 420.88Z" fill="white"/>
</svg>
