<svg width="1607" height="1755" viewBox="0 0 1607 1755" fill="none" xmlns="http://www.w3.org/2000/svg">
<path d="M687.98 36.7367C757.205 -12.2442 849.795 -12.2433 919.02 36.7377L973.26 75.1157C999.752 93.8604 1015.5 124.295 1015.5 156.748V881.277C1015.5 921.223 986.957 955.56 967.543 990.472C959.552 1004.84 955 1021.39 955 1039C955 1094.23 999.772 1139 1055 1139C1110.23 1139 1155 1094.23 1155 1039C1155 1021.5 1150.5 1005.05 1142.61 990.741C1123.49 956.119 1095.5 922.046 1095.5 882.498V354.865C1095.5 273.732 1187.03 226.371 1253.26 273.233L1522.52 463.751C1575.5 501.241 1607 562.11 1607 627.016V1555C1607 1665.46 1517.46 1755 1407 1755C1370 1755 1340 1725 1340 1688V1607.33C1340 1567.18 1368.82 1532.71 1388.38 1497.66C1396.42 1483.26 1401 1466.66 1401 1449C1401 1393.77 1356.23 1349 1301 1349C1245.77 1349 1201 1393.77 1201 1449C1201 1466.44 1205.47 1482.84 1213.32 1497.12C1232.28 1531.6 1260 1565.54 1260 1604.89V1655C1260 1710.23 1215.23 1755 1160 1755H1141C1085.77 1755 1041 1710.23 1041 1655V1469.89C1041 1416.46 1067.67 1366.55 1112.09 1336.86L1234.36 1255.15L1235.92 1254.1C1301.62 1209.45 1341 1135.13 1341 1055.61V805.887C1341 766.539 1368.72 732.598 1387.68 698.121C1395.53 683.845 1400 667.444 1400 649.999C1400 594.771 1355.23 549.999 1300 549.999C1244.77 549.999 1200 594.771 1200 649.999C1200 667.663 1204.58 684.257 1212.62 698.659C1232.18 733.715 1261 768.184 1261 808.329V1055.61C1261 1108.62 1234.74 1158.17 1190.94 1187.94L1189.91 1188.64L1067.64 1270.35C1001.01 1314.88 961 1389.74 961 1469.89V1655C961 1710.23 916.228 1755 861 1755H200C89.5431 1755 0 1665.46 0 1555V627.016C0 562.11 31.4967 501.241 84.4805 463.751L687.98 36.7367Z" fill="white"/>
</svg>
