<svg width="266" height="125" viewBox="0 0 266 125" fill="none" xmlns="http://www.w3.org/2000/svg">
<path d="M260.028 120.573H5.70743V124.781H260.028V120.573Z" fill="#C7C7C7"/>
<path d="M18.7928 120.573C19.058 121.963 19.058 123.391 18.7928 124.781C18.5276 123.391 18.5276 121.963 18.7928 120.573Z" fill="#263238"/>
<path d="M34.006 120.573C34.2712 121.963 34.2712 123.391 34.006 124.781C33.7408 123.391 33.7408 121.963 34.006 120.573Z" fill="#263238"/>
<path d="M49.2151 120.573C49.4803 121.963 49.4803 123.391 49.2151 124.781C48.9499 123.391 48.9499 121.963 49.2151 120.573Z" fill="#263238"/>
<path d="M64.4244 120.573C64.5634 121.266 64.6301 121.971 64.6232 122.677C64.6338 123.384 64.5672 124.089 64.4244 124.781C64.2816 124.089 64.2149 123.384 64.2255 122.677C64.2187 121.971 64.2853 121.266 64.4244 120.573Z" fill="#263238"/>
<path d="M79.6336 120.573C79.8988 121.963 79.8988 123.391 79.6336 124.781C79.3684 123.391 79.3684 121.963 79.6336 120.573Z" fill="#263238"/>
<path d="M94.8428 120.573C95.108 121.963 95.108 123.391 94.8428 124.781C94.5777 123.391 94.5777 121.963 94.8428 120.573Z" fill="#263238"/>
<path d="M110.056 120.573C110.321 121.963 110.321 123.391 110.056 124.781C109.791 123.391 109.791 121.963 110.056 120.573Z" fill="#263238"/>
<path d="M125.265 120.573C125.404 121.266 125.471 121.971 125.464 122.677C125.473 123.384 125.406 124.089 125.265 124.781C125.122 124.089 125.056 123.384 125.066 122.677C125.058 121.971 125.124 121.266 125.265 120.573Z" fill="#263238"/>
<path d="M140.474 120.573C140.615 121.266 140.682 121.971 140.673 122.677C140.684 123.384 140.617 124.089 140.474 124.781C140.334 124.089 140.267 123.384 140.276 122.677C140.269 121.971 140.335 121.266 140.474 120.573Z" fill="#263238"/>
<path d="M155.684 120.573C155.949 121.963 155.949 123.391 155.684 124.781C155.418 123.391 155.418 121.963 155.684 120.573Z" fill="#263238"/>
<path d="M170.897 120.573C171.162 121.963 171.162 123.391 170.897 124.781C170.632 123.391 170.632 121.963 170.897 120.573Z" fill="#263238"/>
<path d="M186.106 120.573C186.371 121.963 186.371 123.391 186.106 124.781C185.841 123.391 185.841 121.963 186.106 120.573Z" fill="#263238"/>
<path d="M201.315 120.573C201.454 121.266 201.521 121.971 201.514 122.677C201.525 123.384 201.458 124.089 201.315 124.781C201.172 124.089 201.106 123.384 201.116 122.677C201.11 121.971 201.176 121.266 201.315 120.573Z" fill="#263238"/>
<path d="M216.524 120.573C216.79 121.963 216.79 123.391 216.524 124.781C216.259 123.391 216.259 121.963 216.524 120.573Z" fill="#263238"/>
<path d="M231.734 120.573C231.999 121.963 231.999 123.391 231.734 124.781C231.468 123.391 231.468 121.963 231.734 120.573Z" fill="#263238"/>
<path d="M246.947 120.573C247.212 121.963 247.212 123.391 246.947 124.781C246.682 123.391 246.682 121.963 246.947 120.573Z" fill="#263238"/>
<path d="M0 124.805L33.2184 124.706L66.4369 124.67L132.87 124.606L199.303 124.67L232.521 124.706L265.74 124.805L232.521 124.901L199.303 124.936L132.87 125L66.4369 124.936L33.2184 124.901L0 124.805Z" fill="#263238"/>
<path d="M257.208 39.663H199.323V120.577H257.208V39.663Z" fill="#3F7D58"/>
<path opacity="0.1" d="M247.905 78.9746H251.855V77.3041H247.905V78.9746Z" fill="black"/>
<path opacity="0.1" d="M250.109 76.8667H254.058V75.1962H250.109V76.8667Z" fill="black"/>
<path opacity="0.1" d="M245.702 76.8667H249.651V75.1962H245.702V76.8667Z" fill="black"/>
<path opacity="0.1" d="M241.51 52.9829H237.56V54.6534H241.51V52.9829Z" fill="black"/>
<path opacity="0.1" d="M243.713 55.087H239.764V56.7574H243.713V55.087Z" fill="black"/>
<path opacity="0.1" d="M202.544 76.8667H206.494V75.1962H202.544V76.8667Z" fill="black"/>
<path opacity="0.1" d="M202.544 112.849H206.494V111.179H202.544V112.849Z" fill="black"/>
<path opacity="0.1" d="M200.341 110.741H204.29V109.071H200.341V110.741Z" fill="black"/>
<path opacity="0.1" d="M250.109 112.845H254.058V111.175H250.109V112.845Z" fill="black"/>
<path opacity="0.1" d="M233.13 92.0759H229.18V93.7463H233.13V92.0759Z" fill="black"/>
<path opacity="0.1" d="M230.926 94.1799H226.977V95.8503H230.926V94.1799Z" fill="black"/>
<path opacity="0.1" d="M208.701 43.3976H204.752V45.0681H208.701V43.3976Z" fill="black"/>
<path opacity="0.1" d="M206.498 45.5056H202.548V47.1761H206.498V45.5056Z" fill="black"/>
<path d="M258.27 118.887H198.261V120.573H258.27V118.887Z" fill="#3F7D58"/>
<path opacity="0.1" d="M258.27 118.887H198.261V120.573H258.27V118.887Z" fill="black"/>
<path d="M256.719 15.6042H199.812L196.892 39.83H259.638L256.719 15.6042Z" fill="#3F7D58"/>
<path opacity="0.6" d="M256.719 15.6042H199.812L196.892 39.83H259.638L256.719 15.6042Z" fill="black"/>
<g opacity="0.1">
<path d="M197.258 36.8073L205.01 36.7595L212.766 36.7396L228.273 36.7078L243.781 36.7396L251.537 36.7595L259.288 36.8073L251.537 36.855L243.781 36.8709L228.273 36.9067L212.766 36.8709L205.01 36.855L197.258 36.8073Z" fill="black"/>
<path d="M197.62 33.7845L205.285 33.7368L212.945 33.7169L228.265 33.6851L243.586 33.7169L251.25 33.7368L258.911 33.7845L251.25 33.8322L243.586 33.8481L228.265 33.8839L212.945 33.8481L205.285 33.8322L197.62 33.7845Z" fill="black"/>
<path d="M197.986 30.7618L205.555 30.7141L213.124 30.6942L228.265 30.6624L243.407 30.6942L250.976 30.7141L258.545 30.7618L250.976 30.8095L243.407 30.8254L228.265 30.8612L213.124 30.8254L205.555 30.8095L197.986 30.7618Z" fill="black"/>
<path d="M198.348 27.739L205.83 27.6873L213.307 27.6714L228.265 27.6396L243.224 27.6714L250.701 27.6873L258.183 27.739L250.701 27.7867L243.224 27.8027L228.265 27.8345L213.307 27.8027L205.83 27.7867L198.348 27.739Z" fill="black"/>
<path d="M198.714 24.7122L206.104 24.6645L213.49 24.6486L228.265 24.6128L243.041 24.6486L250.431 24.6645L257.817 24.7122L250.431 24.7639L243.041 24.7798L228.265 24.8117L213.49 24.7798L206.104 24.7639L198.714 24.7122Z" fill="black"/>
<path d="M199.08 21.6895L206.374 21.6418L213.673 21.6259L228.265 21.5901L242.858 21.6259L250.157 21.6418L257.455 21.6895L250.157 21.7412L242.858 21.7571L228.265 21.789L213.673 21.7571L206.374 21.7412L199.08 21.6895Z" fill="black"/>
<path d="M199.442 18.6668L206.649 18.619L213.856 18.6031L228.265 18.5673L242.679 18.6031L249.882 18.619L257.089 18.6668L249.882 18.7185L242.679 18.7344L228.265 18.7662L213.856 18.7344L206.649 18.7145L199.442 18.6668Z" fill="black"/>
</g>
<path d="M234.375 89.2878H222.156V117.113H234.375V89.2878Z" fill="#263238"/>
<path d="M233.941 103.682H232.831V106.716H233.941V103.682Z" fill="#3F7D58"/>
<path opacity="0.32" d="M233.834 104.211C233.839 104.273 233.832 104.336 233.812 104.395C233.793 104.455 233.761 104.509 233.719 104.555C233.676 104.602 233.625 104.639 233.568 104.664C233.511 104.689 233.449 104.702 233.386 104.702C233.324 104.702 233.262 104.689 233.204 104.664C233.147 104.639 233.096 104.602 233.054 104.555C233.012 104.509 232.98 104.455 232.96 104.395C232.94 104.336 232.933 104.273 232.939 104.211C232.933 104.148 232.94 104.086 232.96 104.026C232.98 103.967 233.012 103.912 233.054 103.866C233.096 103.82 233.147 103.783 233.204 103.757C233.262 103.732 233.324 103.719 233.386 103.719C233.449 103.719 233.511 103.732 233.568 103.757C233.625 103.783 233.676 103.82 233.719 103.866C233.761 103.912 233.793 103.967 233.812 104.026C233.832 104.086 233.839 104.148 233.834 104.211Z" fill="black"/>
<path d="M227.45 90.8469H223.739V94.5139H227.45V90.8469Z" fill="#C7C7C7"/>
<path d="M227.45 95.5202H223.739V103.18H227.45V95.5202Z" fill="#C7C7C7"/>
<path d="M227.45 104.183H223.739V113.601H227.45V104.183Z" fill="#C7C7C7"/>
<path d="M232.382 90.8469H228.675V94.5139H232.382V90.8469Z" fill="#C7C7C7"/>
<path d="M232.382 95.5202H228.675V103.18H232.382V95.5202Z" fill="#C7C7C7"/>
<path d="M232.382 104.183H228.675V113.601H232.382V104.183Z" fill="#C7C7C7"/>
<path d="M240.822 118.696H215.709V120.549H240.822V118.696Z" fill="#DBDBDB"/>
<path d="M241.14 118.318H215.391V118.7H241.14V118.318Z" fill="#C7C7C7"/>
<path d="M239.147 116.465H217.387V118.318H239.147V116.465Z" fill="#DBDBDB"/>
<path d="M239.465 116.083H217.069V116.465H239.465V116.083Z" fill="#C7C7C7"/>
<path d="M215.84 60.4484H205.137V49.4114C205.137 47.9922 205.701 46.6312 206.704 45.6273C207.707 44.6235 209.068 44.059 210.487 44.0579C211.907 44.0579 213.268 44.6219 214.272 45.6259C215.276 46.6299 215.84 47.9916 215.84 49.4114V60.4484Z" fill="#263238"/>
<path d="M214.969 49.4113V59.5773H206.008V49.4113C206.008 48.2232 206.48 47.0837 207.32 46.2432C208.16 45.4027 209.299 44.9299 210.487 44.9289C211.675 44.9299 212.815 45.4025 213.655 46.2429C214.496 47.0833 214.968 48.2228 214.969 49.4113Z" fill="#C7C7C7"/>
<g opacity="0.3">
<path d="M214.404 47.2517L206 55.6557V51.4119L212.157 45.2551C212.716 45.4798 213.223 45.8153 213.649 46.2414C213.948 46.5399 214.203 46.8802 214.404 47.2517Z" fill="white"/>
<path d="M214.969 54.1921V58.4319L213.824 59.5774H209.58L214.969 54.1921Z" fill="white"/>
<path d="M214.969 52.3307V53.2216L208.617 59.5773H207.723L214.969 52.3307Z" fill="white"/>
<path d="M211.477 45.0403L206.008 50.509V49.4113C206.008 49.1701 206.028 48.9293 206.068 48.6914L209.775 44.9846C210.01 44.9479 210.248 44.9293 210.487 44.9289C210.82 44.9292 211.152 44.9666 211.477 45.0403Z" fill="white"/>
</g>
<path d="M214.969 51.8176H206.008V52.6886H214.969V51.8176Z" fill="#263238"/>
<path d="M210.924 59.5733V44.9289H210.053V59.5733H210.924Z" fill="#263238"/>
<path opacity="0.1" d="M216.986 60.4484H203.992V62.6995H216.986V60.4484Z" fill="black"/>
<path d="M233.619 60.4484H222.916V49.4114C222.916 47.9922 223.479 46.6312 224.482 45.6273C225.486 44.6235 226.846 44.059 228.265 44.0579C229.685 44.0579 231.047 44.6219 232.051 45.6259C233.055 46.6299 233.619 47.9916 233.619 49.4114V60.4484Z" fill="#263238"/>
<path d="M232.744 49.4113V59.5773H223.787V49.4113C223.787 48.2232 224.259 47.0837 225.098 46.2432C225.938 45.4027 227.077 44.9299 228.265 44.9289C229.454 44.9299 230.593 45.4027 231.432 46.2432C232.272 47.0837 232.744 48.2232 232.744 49.4113Z" fill="#C7C7C7"/>
<g opacity="0.3">
<path d="M232.191 47.2517L223.787 55.6557V51.4119L229.944 45.2551C230.502 45.4798 231.01 45.8153 231.435 46.2414C231.735 46.5399 231.989 46.8802 232.191 47.2517Z" fill="white"/>
<path d="M232.748 54.1921V58.4319L231.602 59.5774H227.359L232.748 54.1921Z" fill="white"/>
<path d="M232.748 52.3307V53.2216L226.392 59.5773H225.497L232.748 52.3307Z" fill="white"/>
<path d="M229.256 45.0403L223.787 50.509V49.4113C223.787 49.1701 223.807 48.9293 223.847 48.6914L227.553 44.9846C227.789 44.9479 228.027 44.9293 228.265 44.9289C228.599 44.9292 228.931 44.9666 229.256 45.0403Z" fill="white"/>
</g>
<path d="M232.748 51.8176H223.787V52.6886H232.748V51.8176Z" fill="#263238"/>
<path d="M228.703 59.5733V44.9289H227.832V59.5733H228.703Z" fill="#263238"/>
<path opacity="0.1" d="M234.76 60.4484H221.766V62.6995H234.76V60.4484Z" fill="black"/>
<path d="M222.809 26.8123C222.81 25.3658 223.385 23.9788 224.408 22.9563C225.431 21.9338 226.819 21.3594 228.265 21.3594C228.982 21.3589 229.691 21.4996 230.353 21.7734C231.015 22.0472 231.617 22.4487 232.124 22.9551C232.631 23.4615 233.033 24.0628 233.307 24.7247C233.581 25.3865 233.722 26.0959 233.722 26.8123H222.809Z" fill="#3F7D58"/>
<path d="M232.358 34.2737H224.173V26.7486C224.173 25.6632 224.604 24.6222 225.371 23.8547C226.139 23.0872 227.18 22.656 228.265 22.656C229.351 22.656 230.392 23.0872 231.159 23.8547C231.927 24.6222 232.358 25.6632 232.358 26.7486V34.2737Z" fill="#263238"/>
<path d="M231.69 26.7487V33.6095H224.841V26.7487C224.84 26.2986 224.929 25.8529 225.1 25.437C225.272 25.021 225.525 24.6431 225.843 24.3247C226.161 24.0062 226.538 23.7536 226.954 23.5813C227.37 23.409 227.815 23.3203 228.265 23.3203C228.715 23.3203 229.161 23.409 229.577 23.5813C229.993 23.7536 230.37 24.0062 230.688 24.3247C231.006 24.6431 231.258 25.021 231.43 25.437C231.602 25.8529 231.69 26.2986 231.69 26.7487Z" fill="#C7C7C7"/>
<g opacity="0.3">
<path d="M231.268 25.0941L224.841 31.5214V28.276L229.546 23.5708C229.974 23.7404 230.363 23.9963 230.688 24.3225C230.917 24.5509 231.112 24.8107 231.268 25.0941Z" fill="white"/>
<path d="M231.69 30.4038V33.6095H228.484L231.69 30.4038Z" fill="white"/>
<path d="M231.69 28.9799V29.664L227.744 33.6095H227.06L231.69 28.9799Z" fill="white"/>
<path d="M229.021 23.4038L224.841 27.5839V26.7487C224.841 26.5636 224.856 26.3787 224.885 26.1958L227.721 23.364C227.901 23.3353 228.083 23.3207 228.265 23.3203C228.52 23.3214 228.773 23.3494 229.021 23.4038Z" fill="white"/>
</g>
<path d="M231.694 28.5862H224.841V29.2544H231.694V28.5862Z" fill="#263238"/>
<path d="M228.596 33.6095V23.3203H227.927V33.6095H228.596Z" fill="#263238"/>
<path d="M233.237 34.2737H223.298V35.9959H233.237V34.2737Z" fill="#3F7D58"/>
<path opacity="0.1" d="M233.237 34.2737H223.298V35.9959H233.237V34.2737Z" fill="black"/>
<path d="M240.344 26.8123C240.344 26.0959 240.486 25.3865 240.76 24.7247C241.034 24.0628 241.436 23.4615 241.943 22.9551C242.45 22.4487 243.051 22.0472 243.713 21.7734C244.375 21.4996 245.085 21.3589 245.801 21.3594C246.517 21.3594 247.226 21.5005 247.888 21.7745C248.55 22.0485 249.151 22.4502 249.657 22.9565C250.163 23.4629 250.565 24.064 250.839 24.7256C251.113 25.3872 251.254 26.0962 251.254 26.8123H240.344Z" fill="#3F7D58"/>
<path d="M249.894 34.2737H241.709V26.7487C241.708 26.211 241.814 25.6786 242.019 25.1818C242.225 24.6851 242.526 24.2337 242.906 23.8536C243.286 23.4734 243.738 23.172 244.235 22.9665C244.731 22.761 245.264 22.6555 245.801 22.656C246.887 22.656 247.928 23.0872 248.695 23.8547C249.463 24.6222 249.894 25.6632 249.894 26.7487V34.2737Z" fill="#263238"/>
<path d="M249.226 26.7487V33.6095H242.373V26.7487C242.373 25.8394 242.734 24.9674 243.377 24.3244C244.02 23.6815 244.892 23.3203 245.801 23.3203C246.71 23.3213 247.581 23.683 248.223 24.3258C248.865 24.9687 249.226 25.8401 249.226 26.7487Z" fill="#C7C7C7"/>
<g opacity="0.3">
<path d="M248.8 25.0941L242.373 31.5214V28.276L247.082 23.5708C247.506 23.7419 247.89 23.9977 248.212 24.3225C248.443 24.5513 248.641 24.811 248.8 25.0941Z" fill="white"/>
<path d="M249.226 30.4038V33.6095H246.02L249.226 30.4038Z" fill="white"/>
<path d="M249.226 28.9799V29.664L245.28 33.6095H244.596L249.226 28.9799Z" fill="white"/>
<path d="M246.557 23.4038L242.373 27.5839V26.7487C242.373 26.5634 242.389 26.3784 242.421 26.1958L245.256 23.364C245.435 23.3355 245.616 23.3208 245.797 23.3203C246.053 23.3214 246.307 23.3494 246.557 23.4038Z" fill="white"/>
</g>
<path d="M249.226 28.5862H242.373V29.2544H249.226V28.5862Z" fill="#263238"/>
<path d="M246.131 33.6095V23.3203H245.463V33.6095H246.131Z" fill="#263238"/>
<path d="M250.769 34.2737H240.83V35.9959H250.769V34.2737Z" fill="#3F7D58"/>
<path opacity="0.1" d="M250.769 34.2737H240.83V35.9959H250.769V34.2737Z" fill="black"/>
<path d="M205.034 26.8123C205.034 26.0962 205.175 25.3872 205.449 24.7256C205.723 24.064 206.125 23.4629 206.631 22.9565C207.137 22.4502 207.739 22.0485 208.4 21.7745C209.062 21.5005 209.771 21.3594 210.487 21.3594C211.203 21.3589 211.913 21.4996 212.575 21.7734C213.237 22.0472 213.838 22.4487 214.345 22.9551C214.852 23.4615 215.254 24.0628 215.528 24.7247C215.803 25.3865 215.944 26.0959 215.944 26.8123H205.034Z" fill="#3F7D58"/>
<path d="M214.579 34.2737H206.394V26.7487C206.394 25.6632 206.825 24.6222 207.593 23.8547C208.36 23.0872 209.401 22.656 210.487 22.656C211.024 22.6555 211.557 22.761 212.054 22.9665C212.55 23.172 213.002 23.4734 213.382 23.8536C213.762 24.2337 214.064 24.6851 214.269 25.1818C214.474 25.6786 214.58 26.211 214.579 26.7487V34.2737Z" fill="#263238"/>
<path d="M213.915 26.7487V33.6095H207.062V26.7487C207.062 25.8401 207.423 24.9687 208.065 24.3258C208.707 23.683 209.578 23.3213 210.487 23.3203C211.396 23.3203 212.268 23.6815 212.911 24.3244C213.554 24.9674 213.915 25.8394 213.915 26.7487Z" fill="#C7C7C7"/>
<g opacity="0.3">
<path d="M213.49 25.0941L207.062 31.5214V28.276L211.772 23.5708C212.199 23.7414 212.587 23.9972 212.913 24.3225C213.14 24.5521 213.334 24.8117 213.49 25.0941Z" fill="white"/>
<path d="M213.911 30.4038V33.6095H210.706L213.911 30.4038Z" fill="white"/>
<path d="M213.911 28.9799V29.664L209.97 33.6095H209.286L213.911 28.9799Z" fill="white"/>
<path d="M211.247 23.4038L207.062 27.5839V26.7487C207.063 26.5636 207.077 26.3787 207.106 26.1958L209.942 23.364C210.122 23.3353 210.304 23.3207 210.487 23.3203C210.742 23.3216 210.997 23.3496 211.247 23.4038Z" fill="white"/>
</g>
<path d="M213.915 28.5862H207.062V29.2544H213.915V28.5862Z" fill="#263238"/>
<path d="M210.821 33.6096V23.3203H210.153V33.6096H210.821Z" fill="#263238"/>
<path d="M215.458 34.2737H205.519V35.9959H215.458V34.2737Z" fill="#3F7D58"/>
<path opacity="0.1" d="M215.458 34.2737H205.519V35.9959H215.458V34.2737Z" fill="black"/>
<path d="M251.393 60.4484H240.69V49.4114C240.69 47.9916 241.255 46.6299 242.258 45.6259C243.262 44.6219 244.624 44.0579 246.044 44.0579C247.463 44.059 248.824 44.6235 249.827 45.6273C250.83 46.6312 251.393 47.9922 251.393 49.4114V60.4484Z" fill="#263238"/>
<path d="M250.522 49.4113V59.5773H241.561V49.4113C241.563 48.2228 242.035 47.0833 242.875 46.2429C243.716 45.4025 244.855 44.9299 246.044 44.9289C247.232 44.9299 248.371 45.4027 249.211 46.2432C250.051 47.0837 250.522 48.2232 250.522 49.4113Z" fill="#C7C7C7"/>
<g opacity="0.3">
<path d="M249.966 47.2517L241.562 55.6557V51.4119L247.718 45.2551C248.277 45.4798 248.784 45.8153 249.21 46.2414C249.509 46.5399 249.764 46.8802 249.966 47.2517Z" fill="white"/>
<path d="M250.522 54.1921V58.4319L249.377 59.5774H245.137L250.522 54.1921Z" fill="white"/>
<path d="M250.522 52.3307V53.2216L244.171 59.5773H243.276L250.522 52.3307Z" fill="white"/>
<path d="M247.018 45.0403L241.55 50.509V49.4113C241.549 49.1701 241.569 48.9293 241.609 48.6914L245.316 44.9846C245.552 44.9479 245.79 44.9293 246.028 44.9289C246.361 44.9292 246.693 44.9666 247.018 45.0403Z" fill="white"/>
</g>
<path d="M250.522 51.8176H241.561V52.6886H250.522V51.8176Z" fill="#263238"/>
<path d="M246.477 59.5774V44.9329H245.606V59.5774H246.477Z" fill="#263238"/>
<path opacity="0.1" d="M252.539 60.4484H239.545V62.6995H252.539V60.4484Z" fill="black"/>
<path d="M215.84 83.0633H205.137V72.0223C205.137 70.6036 205.701 69.2429 206.704 68.2397C207.707 67.2365 209.068 66.6729 210.487 66.6729C211.906 66.6729 213.267 67.2363 214.271 68.2394C215.275 69.2425 215.839 70.6032 215.84 72.0223V83.0633Z" fill="#263238"/>
<path d="M214.969 72.0223V82.1883H206.008V72.0223C206.008 70.8346 206.48 69.6955 207.32 68.8556C208.16 68.0157 209.299 67.5439 210.487 67.5439C211.675 67.5439 212.814 68.0156 213.655 68.8553C214.495 69.6951 214.968 70.8342 214.969 72.0223Z" fill="#C7C7C7"/>
<g opacity="0.3">
<path d="M214.404 69.8666L206 78.2706V74.0269L212.157 67.87C212.716 68.0947 213.223 68.4302 213.649 68.8564C213.948 69.1548 214.203 69.4951 214.404 69.8666Z" fill="white"/>
<path d="M214.969 76.803V81.0468L213.824 82.1883H209.58L214.969 76.803Z" fill="white"/>
<path d="M214.969 74.9417V75.8365L208.617 82.1883H207.723L214.969 74.9417Z" fill="white"/>
<path d="M211.477 67.6552L206.008 73.124V72.0263C206.008 71.7851 206.028 71.5443 206.068 71.3064L209.775 67.5996C210.01 67.5629 210.248 67.5443 210.487 67.5439C210.82 67.5442 211.152 67.5816 211.477 67.6552Z" fill="white"/>
</g>
<path d="M214.969 74.4326H206.008V75.3036H214.969V74.4326Z" fill="#263238"/>
<path d="M210.924 82.1883V67.5439H210.053V82.1883H210.924Z" fill="#263238"/>
<path opacity="0.1" d="M216.986 83.0633H203.992V85.3144H216.986V83.0633Z" fill="black"/>
<path d="M233.619 83.0633H222.916V72.0223C222.916 70.6036 223.479 69.2429 224.483 68.2397C225.486 67.2365 226.847 66.6729 228.265 66.6729C229.684 66.6729 231.046 67.2363 232.049 68.2394C233.053 69.2425 233.618 70.6032 233.619 72.0223V83.0633Z" fill="#263238"/>
<path d="M232.744 72.0223V82.1883H223.787V72.0223C223.787 70.8346 224.259 69.6955 225.099 68.8556C225.939 68.0157 227.078 67.5439 228.265 67.5439C229.453 67.5439 230.592 68.0157 231.432 68.8556C232.272 69.6955 232.744 70.8346 232.744 72.0223Z" fill="#C7C7C7"/>
<g opacity="0.3">
<path d="M232.191 69.8666L223.787 78.2706V74.0269L229.944 67.87C230.502 68.0947 231.01 68.4302 231.435 68.8564C231.735 69.1548 231.989 69.4951 232.191 69.8666Z" fill="white"/>
<path d="M232.748 76.803V81.0468L231.602 82.1883H227.359L232.748 76.803Z" fill="white"/>
<path d="M232.748 74.9417V75.8365L226.392 82.1883H225.497L232.748 74.9417Z" fill="white"/>
<path d="M229.256 67.6552L223.787 73.124V72.0263C223.787 71.7851 223.807 71.5443 223.847 71.3064L227.553 67.5996C227.789 67.5629 228.027 67.5443 228.265 67.5439C228.599 67.5442 228.931 67.5816 229.256 67.6552Z" fill="white"/>
</g>
<path d="M232.748 74.4326H223.787V75.3036H232.748V74.4326Z" fill="#263238"/>
<path d="M228.699 82.1883V67.5439H227.828V82.1883H228.699Z" fill="#263238"/>
<path opacity="0.1" d="M234.76 83.0633H221.766V85.3144H234.76V83.0633Z" fill="black"/>
<path d="M251.393 83.0633H240.69V72.0223C240.692 70.6032 241.256 69.2425 242.26 68.2394C243.264 67.2363 244.625 66.6729 246.044 66.6729C247.463 66.6729 248.823 67.2365 249.827 68.2397C250.83 69.2429 251.393 70.6036 251.393 72.0223V83.0633Z" fill="#263238"/>
<path d="M250.522 72.0223V82.1883H241.561V72.0223C241.563 70.8342 242.035 69.6951 242.876 68.8553C243.716 68.0156 244.856 67.5439 246.044 67.5439C247.232 67.5439 248.371 68.0157 249.211 68.8556C250.05 69.6955 250.522 70.8346 250.522 72.0223Z" fill="#C7C7C7"/>
<g opacity="0.3">
<path d="M249.965 69.8666L241.561 78.2706V74.0269L247.718 67.87C248.277 68.0947 248.784 68.4302 249.21 68.8564C249.509 69.1548 249.764 69.4951 249.965 69.8666Z" fill="white"/>
<path d="M250.522 76.803V81.0468L249.377 82.1883H245.137L250.522 76.803Z" fill="white"/>
<path d="M250.522 74.9417V75.8365L244.171 82.1883H243.276L250.522 74.9417Z" fill="white"/>
<path d="M247.018 67.6552L241.561 73.124V72.0263C241.561 71.7851 241.581 71.5443 241.621 71.3064L245.328 67.5996C245.564 67.5629 245.802 67.5443 246.04 67.5439C246.369 67.5451 246.697 67.5824 247.018 67.6552Z" fill="white"/>
</g>
<path d="M250.522 74.4326H241.561V75.3036H250.522V74.4326Z" fill="#263238"/>
<path d="M246.477 82.1883V67.5439H245.606V82.1883H246.477Z" fill="#263238"/>
<path opacity="0.1" d="M252.539 83.0633H239.545V85.3144H252.539V83.0633Z" fill="black"/>
<path d="M215.84 105.674H205.137V94.6372C205.137 93.2185 205.701 91.8578 206.704 90.8546C207.707 89.8514 209.068 89.2878 210.487 89.2878C211.906 89.2878 213.267 89.8512 214.271 90.8544C215.275 91.8575 215.839 93.2181 215.84 94.6372V105.674Z" fill="#263238"/>
<path d="M214.969 94.6373V104.803H206.008V94.6373C206.008 93.4495 206.48 92.3104 207.32 91.4705C208.16 90.6307 209.299 90.1588 210.487 90.1588C211.675 90.1588 212.814 90.6305 213.655 91.4703C214.495 92.31 214.968 93.4491 214.969 94.6373Z" fill="#C7C7C7"/>
<g opacity="0.3">
<path d="M214.404 92.4776L206 100.882V96.6378L212.157 90.481C212.716 90.7057 213.223 91.0412 213.649 91.4673C213.948 91.7658 214.203 92.1061 214.404 92.4776Z" fill="white"/>
<path d="M214.969 99.418V103.658L213.824 104.803H209.58L214.969 99.418Z" fill="white"/>
<path d="M214.969 97.5565V98.4514L208.617 104.803H207.723L214.969 97.5565Z" fill="white"/>
<path d="M211.477 90.2662L206.008 95.735V94.6373C206.008 94.3961 206.028 94.1553 206.068 93.9174L209.775 90.2105C210.01 90.1739 210.248 90.1553 210.487 90.1548C210.82 90.1552 211.152 90.1925 211.477 90.2662Z" fill="white"/>
</g>
<path d="M214.969 97.0436H206.008V97.9146H214.969V97.0436Z" fill="#263238"/>
<path d="M210.924 104.803V90.1588H210.053V104.803H210.924Z" fill="#263238"/>
<path opacity="0.1" d="M216.986 105.674H203.992V107.925H216.986V105.674Z" fill="black"/>
<path d="M251.393 105.674H240.69V94.6372C240.692 93.2181 241.256 91.8575 242.26 90.8544C243.264 89.8512 244.625 89.2878 246.044 89.2878C247.463 89.2878 248.823 89.8514 249.827 90.8546C250.83 91.8578 251.393 93.2185 251.393 94.6372V105.674Z" fill="#263238"/>
<path d="M250.522 94.6373V104.803H241.561V94.6373C241.563 93.4491 242.035 92.31 242.876 91.4703C243.716 90.6305 244.856 90.1588 246.044 90.1588C247.232 90.1588 248.371 90.6307 249.211 91.4705C250.05 92.3104 250.522 93.4495 250.522 94.6373Z" fill="#C7C7C7"/>
<g opacity="0.3">
<path d="M249.966 92.4776L241.562 100.882V96.6378L247.718 90.481C248.277 90.7057 248.784 91.0412 249.21 91.4673C249.509 91.7658 249.764 92.1061 249.966 92.4776Z" fill="white"/>
<path d="M250.522 99.418V103.658L249.377 104.803H245.137L250.522 99.418Z" fill="white"/>
<path d="M250.522 97.5565V98.4514L244.171 104.803H243.276L250.522 97.5565Z" fill="white"/>
<path d="M247.018 90.2662L241.55 95.735V94.6373C241.549 94.3961 241.569 94.1553 241.609 93.9174L245.316 90.2105C245.552 90.1739 245.79 90.1553 246.028 90.1548C246.361 90.1552 246.693 90.1925 247.018 90.2662Z" fill="white"/>
</g>
<path d="M250.522 97.0436H241.561V97.9146H250.522V97.0436Z" fill="#263238"/>
<path d="M246.481 104.803V90.1588H245.61V104.803H246.481Z" fill="#263238"/>
<path opacity="0.1" d="M252.539 105.674H239.545V107.925H252.539V105.674Z" fill="black"/>
<path d="M195.433 0.216064H146.078V1.90244H195.433V0.216064Z" fill="#37474F"/>
<path d="M194.184 1.86664H147.323V15.2105H194.184V1.86664Z" fill="#6DB389"/>
<path d="M153.448 7.82465H149.499V9.49511H153.448V7.82465Z" fill="#37474F"/>
<path d="M155.652 5.7207H151.702V7.39117H155.652V5.7207Z" fill="#37474F"/>
<path d="M153.448 7.82465H149.499V9.49511H153.448V7.82465Z" fill="#37474F"/>
<path d="M155.652 12.0326H151.702V13.7031H155.652V12.0326Z" fill="#37474F"/>
<path d="M179.237 12.0326H175.288V13.7031H179.237V12.0326Z" fill="#37474F"/>
<path d="M189.809 5.8241H185.859V7.49457H189.809V5.8241Z" fill="#37474F"/>
<path d="M187.605 3.75189H183.656V5.42236H187.605V3.75189Z" fill="#37474F"/>
<path d="M198.742 16.873H142.769V120.573H198.742V16.873Z" fill="#6DB389"/>
<path d="M199.605 118.883H141.87V120.569H199.605V118.883Z" fill="#6DB389"/>
<path d="M199.621 15.2105H141.886V16.8969H199.621V15.2105Z" fill="#37474F"/>
<path d="M151.241 113.346H147.291V115.017H151.241V113.346Z" fill="#37474F"/>
<path d="M149.037 115.451H145.088V117.121H149.037V115.451Z" fill="#37474F"/>
<path d="M153.448 115.451H149.499V117.121H153.448V115.451Z" fill="#37474F"/>
<path d="M161.59 44.8971H157.64V46.5676H161.59V44.8971Z" fill="#37474F"/>
<path d="M159.386 47.0011H155.437V48.6716H159.386V47.0011Z" fill="#37474F"/>
<path d="M163.793 47.0011H159.844V48.6716H163.793V47.0011Z" fill="#37474F"/>
<path d="M194.216 115.451H190.266V117.121H194.216V115.451Z" fill="#37474F"/>
<path d="M183.187 58.1853H179.237V59.8558H183.187V58.1853Z" fill="#37474F"/>
<path d="M194.216 20.3253H190.266V21.9958H194.216V20.3253Z" fill="#37474F"/>
<path d="M196.419 22.4293H192.47V24.0998H196.419V22.4293Z" fill="#37474F"/>
<path d="M149.037 20.3293H145.088V21.9998H149.037V20.3293Z" fill="#37474F"/>
<path d="M157.64 87.8281H161.59V86.1577H157.64V87.8281Z" fill="#37474F"/>
<path d="M159.844 85.7281H163.793V84.0576H159.844V85.7281Z" fill="#37474F"/>
<path d="M158.42 89.3037H147.753V105.638H158.42V89.3037Z" fill="white"/>
<path d="M157.549 90.1747H148.62V104.771H157.549V90.1747Z" fill="#37474F"/>
<g opacity="0.3">
<path d="M157.298 90.1747L148.62 98.8532V92.3185L150.768 90.1747H157.298Z" fill="white"/>
<path d="M157.553 101.438V104.771H154.216L157.553 101.438Z" fill="white"/>
<path d="M157.553 98.5748V99.9509L152.736 104.771H151.36L157.553 98.5748Z" fill="white"/>
<path d="M149.384 90.1747L148.62 90.9383V90.1747H149.384Z" fill="white"/>
</g>
<path d="M157.549 94.7407H148.62V95.6077H157.549V94.7407Z" fill="white"/>
<path d="M153.52 104.771V90.1747H152.653V104.771H153.52Z" fill="white"/>
<path d="M193.762 89.3037H183.095V105.638H193.762V89.3037Z" fill="white"/>
<path d="M192.891 90.1747H183.962V104.771H192.891V90.1747Z" fill="#37474F"/>
<g opacity="0.3">
<path d="M192.637 90.1747L183.962 98.8532V92.3185L186.106 90.1747H192.637Z" fill="white"/>
<path d="M192.895 101.438V104.771H189.554L192.895 101.438Z" fill="white"/>
<path d="M192.895 98.5748V99.9509L188.075 104.771H186.703L192.895 98.5748Z" fill="white"/>
<path d="M184.726 90.1747L183.962 90.9383V90.1747H184.726Z" fill="white"/>
</g>
<path d="M192.891 94.7407H183.962V95.6077H192.891V94.7407Z" fill="white"/>
<path d="M188.862 104.771V90.1747H187.995V104.771H188.862Z" fill="white"/>
<path d="M158.42 67.1024H147.753V83.4371H158.42V67.1024Z" fill="white"/>
<path d="M157.549 67.9694H148.62V82.5661H157.549V67.9694Z" fill="#37474F"/>
<g opacity="0.3">
<path d="M157.298 67.9694L148.62 76.6479V70.1172L150.768 67.9694H157.298Z" fill="white"/>
<path d="M157.553 79.2332V82.5661H154.216L157.553 79.2332Z" fill="white"/>
<path d="M157.553 76.3735V77.7496L152.736 82.5661H151.36L157.553 76.3735Z" fill="white"/>
<path d="M149.384 67.9694L148.62 68.7331V67.9694H149.384Z" fill="white"/>
</g>
<path d="M157.549 72.5394H148.62V73.4064H157.549V72.5394Z" fill="white"/>
<path d="M153.52 82.5661V67.9694H152.653V82.5661H153.52Z" fill="white"/>
<path d="M193.762 67.1024H183.095V83.4371H193.762V67.1024Z" fill="white"/>
<path d="M192.891 67.9694H183.962V82.5661H192.891V67.9694Z" fill="#37474F"/>
<g opacity="0.3">
<path d="M192.637 67.9694L183.962 76.6479V70.1172L186.106 67.9694H192.637Z" fill="white"/>
<path d="M192.895 79.2332V82.5661H189.554L192.895 79.2332Z" fill="white"/>
<path d="M192.895 76.3735V77.7496L188.075 82.5661H186.703L192.895 76.3735Z" fill="white"/>
<path d="M184.726 67.9694L183.962 68.7331V67.9694H184.726Z" fill="white"/>
</g>
<path d="M192.891 72.5394H183.962V73.4064H192.891V72.5394Z" fill="white"/>
<path d="M188.862 82.5701V67.9734H187.995V82.5701H188.862Z" fill="white"/>
<path d="M158.42 44.8971H147.753V61.2319H158.42V44.8971Z" fill="white"/>
<path d="M157.549 45.7681H148.62V60.3648H157.549V45.7681Z" fill="#37474F"/>
<g opacity="0.3">
<path d="M157.298 45.7681L148.62 54.4466V47.9159L150.768 45.7681H157.298Z" fill="white"/>
<path d="M157.553 57.0319V60.3648H154.216L157.553 57.0319Z" fill="white"/>
<path d="M157.553 54.1682V55.5444L152.736 60.3649H151.36L157.553 54.1682Z" fill="white"/>
<path d="M149.384 45.7681L148.62 46.5318V45.7681H149.384Z" fill="white"/>
</g>
<path d="M157.549 50.334H148.62V51.2011H157.549V50.334Z" fill="white"/>
<path d="M153.52 60.3648V45.7681H152.653V60.3648H153.52Z" fill="white"/>
<path d="M193.762 44.8971H183.095V61.2319H193.762V44.8971Z" fill="white"/>
<path d="M192.891 45.7681H183.962V60.3648H192.891V45.7681Z" fill="#37474F"/>
<g opacity="0.3">
<path d="M192.637 45.7681L183.962 54.4466V47.9159L186.106 45.7681H192.637Z" fill="white"/>
<path d="M192.895 57.0319V60.3648H189.554L192.895 57.0319Z" fill="white"/>
<path d="M192.895 54.1682V55.5444L188.075 60.3649H186.703L192.895 54.1682Z" fill="white"/>
<path d="M184.726 45.7681L183.962 46.5318V45.7681H184.726Z" fill="white"/>
</g>
<path d="M192.891 50.334H183.962V51.2011H192.891V50.334Z" fill="white"/>
<path d="M188.862 60.3648V45.7681H187.995V60.3648H188.862Z" fill="white"/>
<path d="M158.42 22.6959H147.753V39.0306H158.42V22.6959Z" fill="white"/>
<path d="M157.549 23.5629H148.62V38.1596H157.549V23.5629Z" fill="#37474F"/>
<g opacity="0.3">
<path d="M157.298 23.5629L148.62 32.2413V25.7106L150.768 23.5629H157.298Z" fill="white"/>
<path d="M157.553 34.8306V38.1596H154.216L157.553 34.8306Z" fill="white"/>
<path d="M157.553 31.9669V33.3431L152.736 38.1596H151.36L157.553 31.9669Z" fill="white"/>
<path d="M149.384 23.5629L148.62 24.3305V23.5629H149.384Z" fill="white"/>
</g>
<path d="M157.549 28.1328H148.62V28.9998H157.549V28.1328Z" fill="white"/>
<path d="M153.52 38.1596V23.5629H152.653V38.1596H153.52Z" fill="white"/>
<path d="M176.091 22.6959H165.424V39.0306H176.091V22.6959Z" fill="white"/>
<path d="M175.22 23.5629H166.291V38.1596H175.22V23.5629Z" fill="#37474F"/>
<g opacity="0.3">
<path d="M174.969 23.5629L166.291 32.2413V25.7106L168.439 23.5629H174.969Z" fill="white"/>
<path d="M175.224 34.8306V38.1596H171.887L175.224 34.8306Z" fill="white"/>
<path d="M175.224 31.9669V33.3431L170.408 38.1596H169.031L175.224 31.9669Z" fill="white"/>
<path d="M167.055 23.5629L166.291 24.3305V23.5629H167.055Z" fill="white"/>
</g>
<path d="M175.22 28.1328H166.291V28.9998H175.22V28.1328Z" fill="white"/>
<path d="M171.191 38.1635V23.5668H170.324V38.1635H171.191Z" fill="white"/>
<path d="M193.762 22.6959H183.095V39.0306H193.762V22.6959Z" fill="white"/>
<path d="M192.891 23.5629H183.962V38.1596H192.891V23.5629Z" fill="#37474F"/>
<g opacity="0.3">
<path d="M192.637 23.5629L183.962 32.2413V25.7106L186.106 23.5629H192.637Z" fill="white"/>
<path d="M192.895 34.8306V38.1596H189.554L192.895 34.8306Z" fill="white"/>
<path d="M192.895 31.9669V33.3431L188.075 38.1596H186.703L192.895 31.9669Z" fill="white"/>
<path d="M184.726 23.5629L183.962 24.3305V23.5629H184.726Z" fill="white"/>
</g>
<path d="M192.891 28.1328H183.962V28.9998H192.891V28.1328Z" fill="white"/>
<path d="M188.862 38.1635V23.5668H187.995V38.1635H188.862Z" fill="white"/>
<path d="M176.091 44.8971H165.424V61.2319H176.091V44.8971Z" fill="white"/>
<path d="M175.22 45.7681H166.291V60.3648H175.22V45.7681Z" fill="#37474F"/>
<g opacity="0.3">
<path d="M174.969 45.7681L166.291 54.4466V47.9159L168.439 45.7681H174.969Z" fill="white"/>
<path d="M175.224 57.0319V60.3648H171.887L175.224 57.0319Z" fill="white"/>
<path d="M175.224 54.1682V55.5444L170.408 60.3649H169.031L175.224 54.1682Z" fill="white"/>
<path d="M167.055 45.7681L166.291 46.5318V45.7681H167.055Z" fill="white"/>
</g>
<path d="M175.22 50.334H166.291V51.2011H175.22V50.334Z" fill="white"/>
<path d="M171.191 60.3648V45.7681H170.324V60.3648H171.191Z" fill="white"/>
<path d="M176.091 67.1024H165.424V83.4371H176.091V67.1024Z" fill="white"/>
<path d="M175.22 67.9694H166.291V82.5661H175.22V67.9694Z" fill="#37474F"/>
<g opacity="0.3">
<path d="M174.969 67.9694L166.291 76.6479V70.1172L168.439 67.9694H174.969Z" fill="white"/>
<path d="M175.224 79.2332V82.5661H171.887L175.224 79.2332Z" fill="white"/>
<path d="M175.224 76.3735V77.7496L170.408 82.5661H169.031L175.224 76.3735Z" fill="white"/>
<path d="M167.055 67.9694L166.291 68.7331V67.9694H167.055Z" fill="white"/>
</g>
<path d="M175.22 72.5394H166.291V73.4064H175.22V72.5394Z" fill="white"/>
<path d="M171.191 82.5661V67.9694H170.324V82.5661H171.191Z" fill="white"/>
<path d="M170.758 89.3037H161.264V120.565H170.758V89.3037Z" fill="#263238"/>
<path d="M169.346 91.3441H162.676V112.424H169.346V91.3441Z" fill="#6DB389"/>
<g opacity="0.1">
<path d="M169.342 91.3441V93.1975L162.676 102.588V98.1373L167.496 91.3441H169.342Z" fill="white"/>
<path d="M169.342 101.053V105.499L164.438 112.424H162.676V110.459L169.342 101.053Z" fill="white"/>
<path d="M169.342 99.0998V100.038L162.676 109.449V108.506L169.342 99.0998Z" fill="white"/>
<path d="M166.828 91.3441L162.676 97.1947V95.3532L165.519 91.3441H166.828Z" fill="white"/>
</g>
<path d="M170.229 105.527H169.767V109.043H170.229V105.527Z" fill="#6DB389"/>
<path d="M169.346 106.537H162.676V108.033H169.346V106.537Z" fill="#263238"/>
<path d="M170.754 120.569H180.247V89.3077H170.754V120.569Z" fill="#263238"/>
<path d="M178.835 91.3441H172.165V112.424H178.835V91.3441Z" fill="#6DB389"/>
<g opacity="0.1">
<path d="M178.835 91.3441V93.1975L172.165 102.588V98.1373L176.99 91.3441H178.835Z" fill="white"/>
<path d="M178.835 101.053V105.499L173.931 112.424H172.165V110.459L178.835 101.053Z" fill="white"/>
<path d="M178.835 99.0998V100.038L172.165 109.449V108.506L178.835 99.0998Z" fill="white"/>
<path d="M176.318 91.3441L172.165 97.1947V95.3532L175.009 91.3441H176.318Z" fill="white"/>
</g>
<path d="M171.283 109.039H171.744V105.523H171.283V109.039Z" fill="#6DB389"/>
<path d="M172.165 108.029H178.835V106.533H172.165V108.029Z" fill="#263238"/>
<path d="M141.898 21.1287H61.8392V120.549H141.898V21.1287Z" fill="#6DB389"/>
<path d="M71.2216 111.274H67.2722V112.945H71.2216V111.274Z" fill="#37474F"/>
<path d="M69.0183 113.378H65.0688V115.049H69.0183V113.378Z" fill="#37474F"/>
<path d="M73.4251 113.378H69.4756V115.049H73.4251V113.378Z" fill="#37474F"/>
<path d="M136.465 113.378H132.516V115.049H136.465V113.378Z" fill="#37474F"/>
<path d="M136.465 86.7582H132.516V88.4287H136.465V86.7582Z" fill="#37474F"/>
<path d="M138.669 88.8662H134.719V90.5367H138.669V88.8662Z" fill="#37474F"/>
<path d="M69.0183 86.7621H65.0688V88.4326H69.0183V86.7621Z" fill="#37474F"/>
<path d="M117.354 44.5988H113.405V46.2692H117.354V44.5988Z" fill="#37474F"/>
<path d="M106.624 99.2111H110.573V97.5406H106.624V99.2111Z" fill="#37474F"/>
<path d="M108.827 97.1072H112.777V95.4367H108.827V97.1072Z" fill="#37474F"/>
<path d="M88.9286 39.5476H92.8781V37.8771H88.9286V39.5476Z" fill="#37474F"/>
<path d="M91.132 37.4436H95.0815V35.7731H91.132V37.4436Z" fill="#37474F"/>
<path d="M90.7304 72.8177H94.6798V71.1473H90.7304V72.8177Z" fill="#37474F"/>
<path d="M92.9377 74.9218H96.8871V73.2513H92.9377V74.9218Z" fill="#37474F"/>
<path d="M88.5268 74.9218H92.4763V73.2513H88.5268V74.9218Z" fill="#37474F"/>
<path d="M67.2722 55.9977H71.2216V54.3273H67.2722V55.9977Z" fill="#37474F"/>
<path d="M65.0687 58.1017H69.0182V56.4313H65.0687V58.1017Z" fill="#37474F"/>
<path d="M134.723 55.9977H138.673V54.3273H134.723V55.9977Z" fill="#37474F"/>
<path d="M143.163 118.887H60.5784V120.549H143.163V118.887Z" fill="#37474F"/>
<path d="M108.063 89.2878H95.8452V117.113H108.063V89.2878Z" fill="#263238"/>
<path d="M101.051 93.8179L99.2656 93.8696L97.444 93.9014H97.3645V93.8179V92.3821V90.8469H97.4599H99.2616C99.8622 90.8469 100.455 90.8469 101.067 90.8667H101.139V90.9383V91.6662V92.3901L101.051 93.8179ZM101.051 93.8179L101.008 92.3662V91.6543V90.9463L101.079 91.0179L99.2736 91.0378H97.4719L97.5713 90.9383V92.3741V93.81L97.4878 93.7304L99.2696 93.7622L101.051 93.8179Z" fill="#37474F"/>
<path d="M106.031 93.8179L104.249 93.8696L102.428 93.9014H102.344V93.8179V92.3821V90.8469H102.443H104.245C104.846 90.8469 105.438 90.8469 106.047 90.8667H106.118V90.9383V91.6662V92.3901L106.031 93.8179ZM106.031 93.8179L105.991 92.3662L105.971 91.6543V90.9463L106.043 91.0179L104.241 91.0378H102.439L102.535 90.9383V92.3741V93.81L102.455 93.7304L104.237 93.7622L106.031 93.8179Z" fill="#37474F"/>
<path d="M101.051 103.682L99.2576 103.709C98.657 103.709 98.0644 103.733 97.444 103.737H97.3923V103.682L97.3724 101.617C97.3724 100.931 97.3724 100.243 97.3724 99.5532V95.4287V95.3293H97.4678H101.075H101.163V95.4168C101.163 96.1088 101.163 96.8009 101.163 97.4929L101.139 99.5651L101.115 101.625L101.051 103.682ZM101.051 103.682L100.996 99.5333L100.972 97.477C100.972 96.7929 100.972 96.1088 100.972 95.4287L101.059 95.5162H97.4519L97.5514 95.4208V99.5452C97.5514 100.235 97.5514 100.923 97.5514 101.609L97.5315 103.674L97.4758 103.622L99.2656 103.646L101.051 103.682Z" fill="#37474F"/>
<path d="M106.031 103.682L104.241 103.709C103.637 103.709 103.048 103.733 102.428 103.737H102.372V103.682L102.352 101.617C102.352 100.931 102.352 100.243 102.352 99.5532V95.4287V95.3293H102.451H106.055H106.142V95.4168C106.142 96.1088 106.142 96.8009 106.142 97.4929L106.118 99.5651L106.095 101.625L106.031 103.682ZM106.031 103.682L105.975 99.5333L105.951 97.477C105.951 96.7929 105.951 96.1088 105.951 95.4287L106.039 95.5162H102.436L102.531 95.4208V99.5452C102.531 100.235 102.531 100.923 102.531 101.609L102.511 103.674L102.459 103.622L104.249 103.646L106.031 103.682Z" fill="#37474F"/>
<path d="M101.051 113.545L99.2576 113.573C98.657 113.573 98.0644 113.597 97.444 113.601H97.3923V113.545L97.3724 111.481C97.3724 110.792 97.3724 110.104 97.3724 109.417V105.292V105.193H97.4678H101.075H101.163V105.28C101.163 105.973 101.163 106.665 101.163 107.357L101.139 109.429L101.051 111.505V113.545ZM101.051 113.545L100.996 109.397L100.972 107.341C100.972 106.657 100.972 105.973 100.972 105.292L101.059 105.38H97.4519L97.5514 105.284V109.409C97.5514 110.098 97.5514 110.786 97.5514 111.473L97.5315 113.537L97.4758 113.482C98.0724 113.482 98.669 113.502 99.2656 113.51L101.051 113.545Z" fill="#37474F"/>
<path d="M106.031 113.545L104.241 113.573C103.637 113.573 103.048 113.597 102.428 113.601H102.372V113.545L102.352 111.481C102.352 110.792 102.352 110.104 102.352 109.417V105.292V105.193H102.451H106.055H106.142V105.28C106.142 105.973 106.142 106.665 106.142 107.357L106.118 109.429L106.095 111.489L106.031 113.545ZM106.031 113.545L105.975 109.397L105.951 107.341C105.951 106.657 105.951 105.973 105.951 105.292L106.039 105.38H102.436L102.531 105.284V109.409C102.531 110.098 102.531 110.786 102.531 111.473L102.511 113.537L102.459 113.482C103.052 113.482 103.653 113.502 104.249 113.51L106.031 113.545Z" fill="#37474F"/>
<path d="M107.626 103.682H106.516V106.716H107.626V103.682Z" fill="#3F7D58"/>
<path opacity="0.32" d="M107.519 104.211C107.517 104.299 107.489 104.386 107.439 104.458C107.388 104.531 107.317 104.588 107.235 104.62C107.152 104.653 107.062 104.661 106.975 104.642C106.888 104.624 106.809 104.58 106.747 104.516C106.685 104.453 106.644 104.372 106.627 104.285C106.611 104.198 106.621 104.108 106.656 104.026C106.691 103.944 106.749 103.875 106.823 103.826C106.897 103.778 106.984 103.752 107.073 103.753C107.193 103.755 107.307 103.805 107.39 103.89C107.473 103.976 107.52 104.091 107.519 104.211Z" fill="black"/>
<path d="M114.511 118.696H89.3979V120.549H114.511V118.696Z" fill="#DBDBDB"/>
<path d="M114.829 118.318H89.0797V118.7H114.829V118.318Z" fill="#C7C7C7"/>
<path d="M112.832 116.465H91.0724V118.318H112.832V116.465Z" fill="#DBDBDB"/>
<path d="M113.15 116.083H90.7542V116.465H113.15V116.083Z" fill="#C7C7C7"/>
<path d="M140.645 0.788818H63.096L59.1187 29.847H144.623L140.645 0.788818Z" fill="#37474F"/>
<path d="M59.6159 26.2197L70.1796 26.1719L80.7473 26.156L101.879 26.1202L123.014 26.156L133.578 26.1719L144.146 26.2197L133.578 26.2674L123.014 26.2873L101.879 26.3191L80.7473 26.2873L70.1796 26.2674L59.6159 26.2197Z" fill="#263238"/>
<path d="M60.109 22.5923L70.5495 22.5446L80.9899 22.5287L101.871 22.4969L122.748 22.5287L133.188 22.5446L143.628 22.5923L133.188 22.644L122.748 22.66L101.871 22.6918L80.9899 22.66L70.5495 22.644L60.109 22.5923Z" fill="#263238"/>
<path d="M60.6062 18.9691L70.9233 18.9213L81.2404 18.9014L101.871 18.8696L122.501 18.9014L132.818 18.9213L143.131 18.9691L132.818 19.0168L122.501 19.0327L101.871 19.0685L81.2404 19.0327L70.9233 19.0168L60.6062 18.9691Z" fill="#263238"/>
<path d="M61.1034 15.3417L71.2972 15.294L81.487 15.2741L101.871 15.2423L122.254 15.2741L132.444 15.294L142.634 15.3417L132.444 15.3895L122.254 15.4094L101.871 15.4412L81.487 15.4054L71.2972 15.3895L61.1034 15.3417Z" fill="#263238"/>
<path d="M61.6005 11.7145L71.667 11.6668L81.7336 11.6508L101.871 11.6151L122.004 11.6508L132.07 11.6668L142.141 11.7145L132.07 11.7622L122.004 11.7821L101.871 11.8139L81.7336 11.7821L71.667 11.7622L61.6005 11.7145Z" fill="#263238"/>
<path d="M62.0977 8.08715L72.0409 8.03942L81.9842 8.02352L101.871 7.9917L121.757 8.02352L131.7 8.03942L141.644 8.08715L131.7 8.13886L121.757 8.15476L101.871 8.18658L81.9842 8.15476L72.0409 8.13886L62.0977 8.08715Z" fill="#263238"/>
<path d="M62.5948 4.46381L72.4108 4.41608L82.2308 4.3962L101.871 4.36438L121.507 4.3962L131.327 4.41608L141.147 4.46381L131.327 4.51154L121.507 4.52745L101.871 4.56325L82.2308 4.52745L72.4108 4.51154L62.5948 4.46381Z" fill="#263238"/>
<path d="M82.5927 95.8981V107.182H69.3762V95.8981C69.3545 95.0166 69.5095 94.1397 69.8319 93.3191C70.1542 92.4984 70.6375 91.7505 71.2533 91.1195C71.8691 90.4884 72.6049 89.9869 73.4174 89.6445C74.2299 89.3021 75.1027 89.1257 75.9845 89.1257C76.8662 89.1257 77.739 89.3021 78.5515 89.6445C79.364 89.9869 80.0998 90.4884 80.7156 91.1195C81.3314 91.7505 81.8147 92.4984 82.1371 93.3191C82.4594 94.1397 82.6144 95.0166 82.5927 95.8981Z" fill="#263238"/>
<path d="M81.8331 95.898V106.422H70.1359V95.898C70.1155 95.1172 70.2517 94.3401 70.5365 93.6127C70.8212 92.8853 71.2488 92.2223 71.7939 91.6628C72.339 91.1033 72.9906 90.6586 73.7104 90.355C74.4301 90.0513 75.2033 89.8949 75.9845 89.8949C76.7656 89.8949 77.5389 90.0513 78.2586 90.355C78.9783 90.6586 79.63 91.1033 80.1751 91.6628C80.7202 92.2223 81.1477 92.8853 81.4325 93.6127C81.7173 94.3401 81.8535 95.1172 81.8331 95.898Z" fill="#C7C7C7"/>
<g opacity="0.3">
<path d="M80.9898 92.8793L70.1397 103.729V99.8436L79.0608 90.9225C79.8517 91.4103 80.5134 92.0815 80.9898 92.8793Z" fill="white"/>
<path d="M81.6859 94.6015L70.1517 106.136V105.312L81.5149 93.9492C81.5888 94.1619 81.646 94.38 81.6859 94.6015Z" fill="white"/>
<path d="M76.5353 90.0753L70.1398 96.4748V95.8981C70.1384 95.5135 70.1757 95.1298 70.2511 94.7526L74.8449 90.1588C75.2196 90.0852 75.6006 90.0479 75.9824 90.0475C76.1733 90.0475 76.3563 90.0594 76.5353 90.0753Z" fill="white"/>
</g>
<path d="M81.8291 95.7906H70.1358V96.5503H81.8291V95.7906Z" fill="#263238"/>
<path d="M74.2364 95.7946V89.8127H73.4768V95.7946H74.2364Z" fill="#263238"/>
<path d="M78.4961 95.7946V89.8127H77.7364V95.7946H78.4961Z" fill="#263238"/>
<path d="M83.8098 107.182H68.1552V109.902H83.8098V107.182Z" fill="#EBEBEB"/>
<path d="M134.365 95.8981V107.182H121.149V95.8981C121.127 95.0166 121.282 94.1397 121.604 93.3191C121.927 92.4984 122.41 91.7505 123.026 91.1195C123.642 90.4884 124.377 89.9869 125.19 89.6445C126.002 89.3021 126.875 89.1257 127.757 89.1257C128.639 89.1257 129.512 89.3021 130.324 89.6445C131.137 89.9869 131.872 90.4884 132.488 91.1195C133.104 91.7505 133.587 92.4984 133.91 93.3191C134.232 94.1397 134.387 95.0166 134.365 95.8981Z" fill="#263238"/>
<path d="M133.602 95.898V106.422H121.908V95.898C121.908 95.1302 122.06 94.37 122.353 93.6606C122.647 92.9513 123.078 92.3067 123.621 91.7638C124.164 91.2209 124.808 90.7903 125.518 90.4964C126.227 90.2026 126.987 90.0514 127.755 90.0514C128.523 90.0514 129.283 90.2026 129.992 90.4964C130.702 90.7903 131.346 91.2209 131.889 91.7638C132.432 92.3067 132.863 92.9513 133.157 93.6606C133.45 94.37 133.602 95.1302 133.602 95.898Z" fill="#C7C7C7"/>
<g opacity="0.3">
<path d="M132.762 92.8793L121.908 103.729V99.8436L130.83 90.9225C131.622 91.4102 132.285 92.0814 132.762 92.8793Z" fill="white"/>
<path d="M133.458 94.6015L121.924 106.136V105.312L133.268 93.9651C133.346 94.1727 133.409 94.3853 133.458 94.6015Z" fill="white"/>
<path d="M128.308 90.0753L121.908 96.4748V95.8981C121.909 95.5136 121.946 95.1301 122.02 94.7526L126.614 90.1588C126.99 90.0854 127.372 90.0481 127.755 90.0475C127.942 90.0475 128.125 90.0594 128.308 90.0753Z" fill="white"/>
</g>
<path d="M133.602 95.7906H121.908V96.5503H133.602V95.7906Z" fill="#263238"/>
<path d="M126.009 95.7906V89.8088H125.249V95.7906H126.009Z" fill="#263238"/>
<path d="M130.265 95.7906V89.8088H129.505V95.7906H130.265Z" fill="#263238"/>
<path d="M135.582 107.182H119.928V109.902H135.582V107.182Z" fill="#EBEBEB"/>
<path d="M82.5927 68.8763V80.1638H69.3761V68.8763C69.4184 67.1517 70.1332 65.512 71.3679 64.3072C72.6026 63.1025 74.2593 62.4281 75.9844 62.4281C77.7095 62.4281 79.3662 63.1025 80.6009 64.3072C81.8356 65.512 82.5504 67.1517 82.5927 68.8763Z" fill="#263238"/>
<path d="M81.8331 68.8762V79.4042H70.1358V68.8762C70.1756 67.3515 70.8092 65.9026 71.9017 64.8382C72.9942 63.7738 74.4592 63.1782 75.9845 63.1782C77.5097 63.1782 78.9747 63.7738 80.0672 64.8382C81.1597 65.9026 81.7933 67.3515 81.8331 68.8762Z" fill="#C7C7C7"/>
<g opacity="0.3">
<path d="M80.9898 65.8614L70.1397 76.7115V72.8257L79.0608 63.9046C79.8517 64.3924 80.5134 65.0636 80.9898 65.8614Z" fill="white"/>
<path d="M81.6859 67.5836L70.1517 79.1178V78.2945L81.503 66.9592C81.5796 67.1624 81.6407 67.3712 81.6859 67.5836Z" fill="white"/>
<path d="M76.5353 63.0575L70.1398 69.4529V68.8762C70.1384 68.493 70.1757 68.1105 70.2511 67.7348L74.8449 63.141C75.2193 63.0654 75.6005 63.0281 75.9824 63.0296C76.1671 63.0287 76.3517 63.038 76.5353 63.0575Z" fill="white"/>
</g>
<path d="M81.8291 68.7728H70.1358V69.5325H81.8291V68.7728Z" fill="#263238"/>
<path d="M74.2364 68.7768V62.7949H73.4768V68.7768H74.2364Z" fill="#263238"/>
<path d="M78.4961 68.7729V62.791H77.7364V68.7729H78.4961Z" fill="#263238"/>
<path d="M83.8098 80.1638H68.1552V82.8843H83.8098V80.1638Z" fill="#EBEBEB"/>
<path d="M108.481 68.8763V80.1638H95.2644V68.8763C95.3067 67.1517 96.0215 65.512 97.2562 64.3072C98.4909 63.1025 100.148 62.4281 101.873 62.4281C103.598 62.4281 105.254 63.1025 106.489 64.3072C107.724 65.512 108.439 67.1517 108.481 68.8763Z" fill="#263238"/>
<path d="M107.717 68.8763V79.4042H96.024V68.8763C96.024 67.3257 96.64 65.8386 97.7365 64.7421C98.8329 63.6457 100.32 63.0297 101.871 63.0297C103.421 63.0297 104.908 63.6457 106.005 64.7421C107.101 65.8386 107.717 67.3257 107.717 68.8763Z" fill="#C7C7C7"/>
<g opacity="0.3">
<path d="M106.878 65.8615L96.024 76.7116V72.8258L104.945 63.9047C105.737 64.3924 106.4 65.0635 106.878 65.8615Z" fill="white"/>
<path d="M107.574 67.5837L96.04 79.1178V78.2945L107.391 66.9592C107.466 67.1631 107.527 67.3717 107.574 67.5837Z" fill="white"/>
<path d="M102.424 63.0575L96.024 69.453V68.8763C96.0247 68.4931 96.062 68.1109 96.1354 67.7348L100.729 63.141C101.105 63.0656 101.487 63.0283 101.871 63.0296C102.055 63.0289 102.24 63.0382 102.424 63.0575Z" fill="white"/>
</g>
<path d="M107.717 68.7728H96.024V69.5325H107.717V68.7728Z" fill="#263238"/>
<path d="M100.125 68.7729V62.791H99.365V68.7729H100.125Z" fill="#263238"/>
<path d="M104.38 68.7729V62.791H103.621V68.7729H104.38Z" fill="#263238"/>
<path d="M109.698 80.1638H94.0435V82.8843H109.698V80.1638Z" fill="#EBEBEB"/>
<path d="M134.365 68.8763V80.1638H121.149V68.8763C121.191 67.1517 121.906 65.512 123.14 64.3072C124.375 63.1025 126.032 62.4281 127.757 62.4281C129.482 62.4281 131.139 63.1025 132.373 64.3072C133.608 65.512 134.323 67.1517 134.365 68.8763Z" fill="#263238"/>
<path d="M133.602 68.8763V79.4042H121.908V68.8763C121.908 67.3257 122.524 65.8386 123.621 64.7421C124.717 63.6457 126.204 63.0297 127.755 63.0297C129.306 63.0297 130.793 63.6457 131.889 64.7421C132.986 65.8386 133.602 67.3257 133.602 68.8763Z" fill="#C7C7C7"/>
<g opacity="0.3">
<path d="M132.762 65.8615L121.908 76.7116V72.8258L130.83 63.9047C131.622 64.3924 132.285 65.0635 132.762 65.8615Z" fill="white"/>
<path d="M133.458 67.5837L121.924 79.1178V78.2945L133.268 66.9592C133.345 67.1629 133.409 67.3715 133.458 67.5837Z" fill="white"/>
<path d="M128.308 63.0575L121.908 69.453V68.8763C121.909 68.4931 121.946 68.1109 122.02 67.7348L126.614 63.141C126.989 63.0656 127.372 63.0283 127.755 63.0296C127.94 63.0289 128.124 63.0382 128.308 63.0575Z" fill="white"/>
</g>
<path d="M133.602 68.7728H121.908V69.5325H133.602V68.7728Z" fill="#263238"/>
<path d="M126.009 68.7729V62.791H125.249V68.7729H126.009Z" fill="#263238"/>
<path d="M130.265 68.7729V62.791H129.505V68.7729H130.265Z" fill="#263238"/>
<path d="M135.582 80.1638H119.928V82.8843H135.582V80.1638Z" fill="#EBEBEB"/>
<path d="M82.5927 41.8584V53.146H69.3762V41.8584C69.3545 40.977 69.5095 40.1001 69.8319 39.2794C70.1542 38.4587 70.6375 37.7109 71.2533 37.0798C71.8691 36.4487 72.6049 35.9472 73.4174 35.6048C74.2299 35.2624 75.1027 35.086 75.9845 35.086C76.8662 35.086 77.739 35.2624 78.5515 35.6048C79.364 35.9472 80.0998 36.4487 80.7156 37.0798C81.3314 37.7109 81.8147 38.4587 82.1371 39.2794C82.4594 40.1001 82.6144 40.977 82.5927 41.8584Z" fill="#263238"/>
<path d="M81.8331 41.8584V52.3863H70.1358V41.8584C70.1756 40.3337 70.8092 38.8847 71.9017 37.8204C72.9942 36.756 74.4592 36.1603 75.9845 36.1603C77.5097 36.1603 78.9747 36.756 80.0672 37.8204C81.1597 38.8847 81.7933 40.3337 81.8331 41.8584Z" fill="#C7C7C7"/>
<g opacity="0.3">
<path d="M80.9898 38.8436L70.1397 49.6937V45.8079L79.0608 36.8868C79.8517 37.3746 80.5134 38.0458 80.9898 38.8436Z" fill="white"/>
<path d="M81.6859 40.5658L70.1517 52.1V51.2767L81.503 39.9135C81.5802 40.1261 81.6413 40.3441 81.6859 40.5658Z" fill="white"/>
<path d="M76.5353 36.0396L70.1398 42.4351V41.8584C70.1384 41.4751 70.1757 41.0927 70.2511 40.7169L74.8449 36.1231C75.2193 36.0475 75.6005 36.0102 75.9824 36.0118C76.1671 36.0108 76.3517 36.0201 76.5353 36.0396Z" fill="white"/>
</g>
<path d="M81.8291 41.755H70.1358V42.5147H81.8291V41.755Z" fill="#263238"/>
<path d="M74.2364 41.759V35.7771H73.4768V41.759H74.2364Z" fill="#263238"/>
<path d="M78.4922 41.7551V35.7732H77.7325V41.7551H78.4922Z" fill="#263238"/>
<path d="M83.8098 53.146H68.1552V55.8665H83.8098V53.146Z" fill="#EBEBEB"/>
<path d="M97.273 16.344H80.5882C80.5882 12.2434 84.3189 8.91443 88.9405 8.91443C93.5622 8.91443 97.273 12.2434 97.273 16.344Z" fill="#6DB389"/>
<path d="M95.5349 17.2429V24.5611H82.3183V17.2429C82.2967 16.3614 82.4516 15.4845 82.774 14.6639C83.0964 13.8432 83.5797 13.0953 84.1955 12.4642C84.8113 11.8332 85.5471 11.3317 86.3596 10.9893C87.1721 10.6469 88.0449 10.4705 88.9266 10.4705C89.8084 10.4705 90.6812 10.6469 91.4937 10.9893C92.3062 11.3317 93.042 11.8332 93.6578 12.4642C94.2736 13.0953 94.7569 13.8432 95.0792 14.6639C95.4016 15.4845 95.5565 16.3614 95.5349 17.2429Z" fill="#263238"/>
<path d="M94.7752 17.2429V23.7935H83.082V17.2429C83.0826 16.8584 83.1199 16.4748 83.1933 16.0974C83.4199 14.9637 83.9771 13.9224 84.7946 13.1049C85.6121 12.2874 86.6534 11.7302 87.7871 11.5036C88.1632 11.4302 88.5454 11.3929 88.9286 11.3923C89.1155 11.3923 89.2985 11.3923 89.4814 11.4201C90.3765 11.5024 91.2399 11.7925 92.0031 12.2673C92.7933 12.7572 93.4559 13.4279 93.936 14.2241C94.1439 14.5669 94.3145 14.9309 94.4451 15.3099C94.5218 15.5189 94.5842 15.7328 94.632 15.9503C94.7283 16.3744 94.7763 16.808 94.7752 17.2429Z" fill="#C7C7C7"/>
<g opacity="0.3">
<path d="M93.936 14.2321L84.3467 23.8015H83.066V21.1964L91.9871 12.2753C92.7841 12.7621 93.4524 13.4332 93.936 14.2321Z" fill="white"/>
<path d="M94.632 15.9582L86.7848 23.8015H85.9615L94.4491 15.3179C94.5262 15.5264 94.5874 15.7404 94.632 15.9582Z" fill="white"/>
<path d="M89.4814 11.4281L83.082 17.8276V17.2429C83.0826 16.8584 83.1199 16.4748 83.1933 16.0974L87.7871 11.5036C88.1632 11.4302 88.5454 11.3929 88.9286 11.3923C89.1195 11.4002 89.2985 11.4122 89.4814 11.4281Z" fill="white"/>
</g>
<path d="M94.7752 17.1435H83.082V17.9032H94.7752V17.1435Z" fill="#263238"/>
<path d="M87.1786 17.1475V11.1656H86.4189V17.1475H87.1786Z" fill="#263238"/>
<path d="M91.4343 17.1475V11.1656H90.6746V17.1475H91.4343Z" fill="#263238"/>
<path d="M96.7559 24.5612H81.1012V27.2816H96.7559V24.5612Z" fill="#EBEBEB"/>
<path d="M123.169 16.344H106.484C106.484 12.2434 110.219 8.91443 114.837 8.91443C119.454 8.91443 123.169 12.2434 123.169 16.344Z" fill="#6DB389"/>
<path d="M121.435 17.2429V24.5611H108.21V17.2429C108.189 16.3614 108.344 15.4845 108.666 14.6639C108.989 13.8432 109.472 13.0953 110.088 12.4642C110.703 11.8332 111.439 11.3317 112.252 10.9893C113.064 10.6469 113.937 10.4705 114.819 10.4705C115.7 10.4705 116.573 10.6469 117.386 10.9893C118.198 11.3317 118.934 11.8332 119.55 12.4642C120.166 13.0953 120.649 13.8432 120.971 14.6639C121.294 15.4845 121.449 16.3614 121.427 17.2429H121.435Z" fill="#263238"/>
<path d="M120.675 17.2429V23.7935H108.982V17.2429C108.981 16.8583 109.018 16.4745 109.094 16.0974C109.32 14.9637 109.877 13.9224 110.695 13.1049C111.512 12.2874 112.554 11.7302 113.687 11.5036C114.062 11.43 114.443 11.3927 114.825 11.3923C115.012 11.3923 115.199 11.3923 115.378 11.4201C116.288 11.5049 117.166 11.8029 117.94 12.29C118.714 12.7772 119.362 13.4398 119.832 14.2241C120.043 14.5659 120.215 14.9301 120.345 15.3099C120.422 15.5184 120.484 15.7325 120.528 15.9503C120.628 16.3739 120.677 16.8077 120.675 17.2429Z" fill="#C7C7C7"/>
<g opacity="0.3">
<path d="M119.832 14.2321L110.259 23.8015H108.978V21.1964L117.899 12.2753C118.69 12.7641 119.353 13.435 119.832 14.2321Z" fill="white"/>
<path d="M120.54 15.9582L112.693 23.8015H111.87L120.357 15.3179C120.434 15.5264 120.496 15.7404 120.54 15.9582Z" fill="white"/>
<path d="M115.37 11.4281L108.974 17.8276V17.2429C108.973 16.8583 109.01 16.4745 109.086 16.0974L113.679 11.5036C114.054 11.43 114.435 11.3927 114.817 11.3923C115.012 11.4002 115.199 11.4122 115.37 11.4281Z" fill="white"/>
</g>
<path d="M120.671 17.1435H108.978V17.9032H120.671V17.1435Z" fill="#263238"/>
<path d="M113.079 17.1475V11.1656H112.319V17.1475H113.079Z" fill="#263238"/>
<path d="M117.334 17.1475V11.1656H116.575V17.1475H117.334Z" fill="#263238"/>
<path d="M122.652 24.5612H106.997V27.2816H122.652V24.5612Z" fill="#EBEBEB"/>
<path d="M134.365 41.8584V53.146H121.149V41.8584C121.127 40.977 121.282 40.1001 121.604 39.2794C121.927 38.4587 122.41 37.7109 123.026 37.0798C123.642 36.4487 124.377 35.9472 125.19 35.6048C126.002 35.2624 126.875 35.086 127.757 35.086C128.639 35.086 129.512 35.2624 130.324 35.6048C131.137 35.9472 131.872 36.4487 132.488 37.0798C133.104 37.7109 133.587 38.4587 133.91 39.2794C134.232 40.1001 134.387 40.977 134.365 41.8584Z" fill="#263238"/>
<path d="M133.602 41.8585V52.3864H121.908V41.8585C121.908 40.3079 122.524 38.8207 123.621 37.7243C124.717 36.6278 126.204 36.0118 127.755 36.0118C129.306 36.0118 130.793 36.6278 131.889 37.7243C132.986 38.8207 133.602 40.3079 133.602 41.8585Z" fill="#C7C7C7"/>
<g opacity="0.3">
<path d="M132.762 38.8436L121.908 49.6937V45.8079L130.83 36.8868C131.622 37.3745 132.285 38.0457 132.762 38.8436Z" fill="white"/>
<path d="M133.458 40.5658L121.924 52.1V51.2767L133.268 39.9135C133.346 40.1265 133.409 40.3444 133.458 40.5658Z" fill="white"/>
<path d="M128.308 36.0396L121.908 42.4351V41.8584C121.909 41.4752 121.946 41.093 122.02 40.7169L126.614 36.1231C126.989 36.0477 127.372 36.0104 127.755 36.0118C127.94 36.011 128.124 36.0203 128.308 36.0396Z" fill="white"/>
</g>
<path d="M133.602 41.755H121.908V42.5147H133.602V41.755Z" fill="#263238"/>
<path d="M126.009 41.7551V35.7732H125.249V41.7551H126.009Z" fill="#263238"/>
<path d="M130.265 41.7551V35.7732H129.505V41.7551H130.265Z" fill="#263238"/>
<path d="M135.582 53.146H119.928V55.8665H135.582V53.146Z" fill="#EBEBEB"/>
<path d="M108.477 41.8584V53.146H95.2605V41.8584C95.2388 40.977 95.3938 40.1001 95.7162 39.2794C96.0385 38.4587 96.5218 37.7109 97.1376 37.0798C97.7534 36.4487 98.4892 35.9472 99.3017 35.6048C100.114 35.2624 100.987 35.086 101.869 35.086C102.75 35.086 103.623 35.2624 104.436 35.6048C105.248 35.9472 105.984 36.4487 106.6 37.0798C107.216 37.7109 107.699 38.4587 108.021 39.2794C108.344 40.1001 108.499 40.977 108.477 41.8584Z" fill="#263238"/>
<path d="M107.717 41.8585V52.3864H96.024V41.8585C96.024 41.0907 96.1753 40.3304 96.4691 39.6211C96.7629 38.9117 97.1936 38.2672 97.7365 37.7243C98.2794 37.1814 98.9239 36.7507 99.6333 36.4569C100.343 36.1631 101.103 36.0118 101.871 36.0118C102.638 36.0118 103.399 36.1631 104.108 36.4569C104.817 36.7507 105.462 37.1814 106.005 37.7243C106.548 38.2672 106.978 38.9117 107.272 39.6211C107.566 40.3304 107.717 41.0907 107.717 41.8585Z" fill="#C7C7C7"/>
<g opacity="0.3">
<path d="M106.878 38.8436L96.024 49.6937V45.8079L104.945 36.8868C105.736 37.3756 106.399 38.0465 106.878 38.8436Z" fill="white"/>
<path d="M107.574 40.5658L96.04 52.1V51.2767L107.387 39.9135C107.464 40.1266 107.526 40.3445 107.574 40.5658Z" fill="white"/>
<path d="M102.424 36.0396L96.024 42.4351V41.8584C96.0247 41.4752 96.062 41.093 96.1354 40.7169L100.729 36.1231C101.105 36.0477 101.487 36.0104 101.871 36.0118C102.055 36.011 102.24 36.0203 102.424 36.0396Z" fill="white"/>
</g>
<path d="M107.717 41.755H96.024V42.5147H107.717V41.755Z" fill="#263238"/>
<path d="M100.121 41.7551V35.7732H99.3611V41.7551H100.121Z" fill="#263238"/>
<path d="M104.38 41.755V35.7732H103.621V41.755H104.38Z" fill="#263238"/>
<path d="M109.698 53.146H94.0435V55.8665H109.698V53.146Z" fill="#EBEBEB"/>
<path d="M7.36597 120.573H60.9005V45.8835L34.1332 29.9743L7.36597 45.8835V120.573Z" fill="#3F7D58"/>
<path opacity="0.1" d="M23.7763 43.509H19.8268V45.1795H23.7763V43.509Z" fill="black"/>
<path opacity="0.1" d="M21.5729 41.4011H17.6234V43.0715H21.5729V41.4011Z" fill="black"/>
<path opacity="0.1" d="M25.9797 41.4011H22.0303V43.0715H25.9797V41.4011Z" fill="black"/>
<path opacity="0.1" d="M58.6095 49.7454H54.6601V51.4159H58.6095V49.7454Z" fill="black"/>
<path opacity="0.1" d="M54.8112 109.075H50.8617V110.745H54.8112V109.075Z" fill="black"/>
<path opacity="0.1" d="M57.0146 106.971H53.0651V108.641H57.0146V106.971Z" fill="black"/>
<path opacity="0.1" d="M15.2013 109.071H11.2518V110.741H15.2013V109.071Z" fill="black"/>
<path opacity="0.1" d="M42.5531 92.8157H38.6037V94.4861H42.5531V92.8157Z" fill="black"/>
<path opacity="0.1" d="M12.616 58.3921H8.66653V60.0626H12.616V58.3921Z" fill="black"/>
<path opacity="0.1" d="M19.8268 79.5753H23.7763V77.9048H19.8268V79.5753Z" fill="black"/>
<path opacity="0.1" d="M22.0303 81.6832H25.9798V80.0128H22.0303V81.6832Z" fill="black"/>
<path d="M5.98583 120.573H62.2806V118.887H5.98583V120.573Z" fill="#3F7D58"/>
<path opacity="0.1" d="M5.98583 120.573H62.2806V118.887H5.98583V120.573Z" fill="black"/>
<path d="M7.35798 90.1549H60.9044V88.4685H7.35798V90.1549Z" fill="#3F7D58"/>
<path opacity="0.1" d="M7.35798 86.3446H60.9044V84.6582H7.35798V86.3446Z" fill="black"/>
<path opacity="0.1" d="M7.35798 65.0621H60.9044V63.3757L7.35798 63.3757V65.0621Z" fill="black"/>
<path opacity="0.1" d="M7.35798 54.4586L60.9044 54.4586V52.7722L7.35798 52.7722V54.4586Z" fill="black"/>
<path d="M62.026 48.2301L34.1332 31.6527L6.24035 48.2301L4.20795 44.8136L34.1332 27.0271L64.0584 44.8136L62.026 48.2301Z" fill="#37474F"/>
<path d="M24.6911 89.3117H11.3194V120.573H24.6911V89.3117Z" fill="#6DB389"/>
<path d="M22.7024 91.3521H13.308V106.704H22.7024V91.3521Z" fill="#263238"/>
<path d="M22.7024 91.3521H13.308V91.6981H22.7024V91.3521Z" fill="white"/>
<path d="M22.7024 91.8412H13.308V92.1873H22.7024V91.8412Z" fill="white"/>
<path d="M22.7024 92.3304H13.308V92.6765H22.7024V92.3304Z" fill="white"/>
<path d="M22.7024 92.8157H13.308V93.1617H22.7024V92.8157Z" fill="white"/>
<path d="M22.7024 93.3049H13.308V93.651H22.7024V93.3049Z" fill="white"/>
<path d="M22.7024 93.7941H13.308V94.1401H22.7024V93.7941Z" fill="white"/>
<path d="M22.7024 94.2833H13.308V94.6293H22.7024V94.2833Z" fill="white"/>
<path d="M22.7024 94.7725H13.308V95.1185H22.7024V94.7725Z" fill="white"/>
<path d="M22.7024 95.2617H13.308V95.6077H22.7024V95.2617Z" fill="white"/>
<path d="M22.7024 95.7509H13.308V96.0969H22.7024V95.7509Z" fill="white"/>
<path d="M22.7024 96.2401H13.308V96.5861H22.7024V96.2401Z" fill="white"/>
<path d="M22.7024 96.7294H13.308V97.0754H22.7024V96.7294Z" fill="white"/>
<path d="M22.7024 97.2186H13.308V97.5646H22.7024V97.2186Z" fill="white"/>
<path d="M22.7024 97.7078H13.308V98.0538H22.7024V97.7078Z" fill="white"/>
<path d="M22.7024 98.197H13.308V98.543H22.7024V98.197Z" fill="white"/>
<path d="M22.7024 98.6862H13.308V99.0322H22.7024V98.6862Z" fill="white"/>
<path d="M22.7024 99.1754H13.308V99.5214H22.7024V99.1754Z" fill="white"/>
<path d="M22.7024 99.6646H13.308V100.011H22.7024V99.6646Z" fill="white"/>
<path d="M22.7024 100.154H13.308V100.5H22.7024V100.154Z" fill="white"/>
<path d="M22.7024 100.643H13.308V100.989H22.7024V100.643Z" fill="white"/>
<path d="M22.7024 101.128H13.308V101.474H22.7024V101.128Z" fill="white"/>
<path d="M22.7024 101.617H13.308V101.964H22.7024V101.617Z" fill="white"/>
<path d="M22.7024 102.107H13.308V102.453H22.7024V102.107Z" fill="white"/>
<g opacity="0.1">
<path d="M22.6985 91.3521V93.2015L13.308 102.596V98.1453L20.1013 91.3521H22.6985Z" fill="white"/>
<path d="M22.6985 101.057V105.503L21.5013 106.704H17.0547L22.6985 101.057Z" fill="white"/>
<path d="M22.6985 99.1078V100.046L16.0405 106.704H15.1018L22.6985 99.1078Z" fill="white"/>
<path d="M19.1547 91.3521L13.308 97.1987V95.3572L17.3132 91.3521H19.1547Z" fill="white"/>
</g>
<path d="M21.1831 108.439H14.1432V110.085H21.1831V108.439Z" fill="#263238"/>
<path d="M23.7882 107.44H22.9649V110.089H23.7882V107.44Z" fill="#A6A6A6"/>
<path d="M13.308 117.964C13.2762 117.515 13.2643 117.065 13.2444 116.616C13.2245 116.166 13.2126 115.713 13.1967 115.264C13.1728 114.365 13.1609 113.462 13.1489 112.563V112.408H13.308C14.012 112.408 14.72 112.408 15.4279 112.408C16.1359 112.408 16.8399 112.408 17.5478 112.408C18.2558 112.408 18.9598 112.436 19.6677 112.46C20.0217 112.46 20.3757 112.483 20.7257 112.499C21.0757 112.515 21.4336 112.527 21.7876 112.551L20.7257 112.603C20.3757 112.603 20.0217 112.635 19.6677 112.642C18.9598 112.666 18.2518 112.682 17.5478 112.69C16.8438 112.698 16.1319 112.71 15.4279 112.71C14.7239 112.71 14.012 112.71 13.308 112.71L13.4631 112.555C13.4631 113.454 13.4393 114.357 13.4154 115.256C13.4154 115.705 13.3915 116.158 13.3677 116.608C13.3438 117.057 13.3359 117.515 13.308 117.964Z" fill="#37474F"/>
<path d="M22.6985 112.563C22.7263 113.012 22.7422 113.462 22.7621 113.915C22.782 114.369 22.7899 114.814 22.8059 115.264C22.8297 116.166 22.8417 117.065 22.8536 117.964V118.123H22.6985C21.9826 118.123 21.2706 118.123 20.5547 118.123C19.8388 118.123 19.1269 118.123 18.4149 118.123C17.703 118.123 16.9871 118.095 16.2711 118.076L15.2013 118.032C14.8433 118.032 14.4853 118.004 14.1274 117.98L15.2013 117.928C15.5552 117.928 15.9132 117.897 16.2711 117.889C16.9871 117.865 17.699 117.853 18.4149 117.841C19.1308 117.829 19.8428 117.821 20.5547 117.821C21.2666 117.821 21.9826 117.821 22.6985 117.821L22.5394 117.976C22.5394 117.077 22.5632 116.178 22.5871 115.276C22.5871 114.826 22.6149 114.377 22.6348 113.927C22.6547 113.478 22.6746 113.012 22.6985 112.563Z" fill="#37474F"/>
<path d="M14.5251 116.946C14.4773 116.385 14.4455 115.824 14.4217 115.264C14.4217 114.985 14.4217 114.703 14.3938 114.424C14.366 114.146 14.3938 113.864 14.3739 113.581V113.434H14.529C15.0501 113.434 15.5751 113.434 16.12 113.434C16.6649 113.434 17.166 113.434 17.691 113.454C18.216 113.474 18.737 113.478 19.2581 113.502C19.7791 113.525 20.3081 113.553 20.8291 113.597C20.3081 113.641 19.7831 113.673 19.2581 113.693C18.7331 113.712 18.212 113.732 17.691 113.744C17.17 113.756 16.641 113.744 16.12 113.744C15.5989 113.744 15.07 113.744 14.529 113.744L14.6762 113.593C14.6762 113.875 14.6762 114.154 14.6762 114.436C14.6762 114.719 14.6762 114.997 14.6484 115.276C14.6006 115.824 14.5688 116.385 14.5251 116.946Z" fill="#37474F"/>
<path d="M21.5053 113.581C21.549 114.142 21.5808 114.703 21.6047 115.264C21.6286 115.824 21.6445 116.385 21.6524 116.946V117.093H21.5053C20.9763 117.093 20.4473 117.093 19.9143 117.093C19.3814 117.093 18.8564 117.093 18.3234 117.093C17.7905 117.093 17.2655 117.065 16.7325 117.045C16.1995 117.026 15.6745 116.99 15.1416 116.946C15.6719 116.901 16.2022 116.869 16.7325 116.851C17.2628 116.832 17.7931 116.816 18.3234 116.803C18.8524 116.803 19.3814 116.803 19.9143 116.783C20.4473 116.763 20.9723 116.783 21.5053 116.783L21.3541 116.93C21.3541 116.368 21.37 115.807 21.4018 115.248C21.4058 114.687 21.4376 114.142 21.5053 113.581Z" fill="#37474F"/>
<g opacity="0.1">
<path d="M58.4624 116.592C58.4902 116.139 58.5061 115.689 58.526 115.24C58.5459 114.79 58.5578 114.337 58.5737 113.887C58.5976 112.989 58.6095 112.086 58.6215 111.187V111.032H58.4624C57.7584 111.032 57.0504 111.032 56.3425 111.032C55.6345 111.032 54.9305 111.032 54.2226 111.032C53.5146 111.032 52.8106 111.06 52.1027 111.083C51.7487 111.083 51.3947 111.111 51.0407 111.123L49.9828 111.175C50.3367 111.199 50.6907 111.211 51.0407 111.227C51.3907 111.242 51.7487 111.258 52.1027 111.266C52.8106 111.29 53.5146 111.306 54.2226 111.318C54.9305 111.33 55.6345 111.318 56.3425 111.318C57.0504 111.318 57.7584 111.318 58.4624 111.318L58.3073 111.163C58.3073 112.062 58.3311 112.965 58.355 113.864C58.355 114.313 58.3788 114.766 58.3987 115.216C58.4186 115.665 58.4345 116.139 58.4624 116.592Z" fill="black"/>
<path d="M49.068 111.187C49.0401 111.636 49.0242 112.086 49.0043 112.539C48.9844 112.993 48.9725 113.438 48.9606 113.887C48.9367 114.79 48.9208 115.689 48.9128 116.592V116.747H49.0719C49.7878 116.747 50.4998 116.747 51.2157 116.747C51.9316 116.747 52.6436 116.747 53.3555 116.727C54.0674 116.707 54.7833 116.703 55.4993 116.679L56.5692 116.636C56.9271 116.636 57.2851 116.608 57.639 116.588C57.2851 116.564 56.9271 116.548 56.5692 116.536L55.4993 116.493C54.7833 116.469 54.0714 116.457 53.3555 116.445C52.6396 116.433 51.9276 116.425 51.2157 116.425C50.5038 116.425 49.7878 116.425 49.0719 116.425L49.227 116.584C49.227 115.681 49.2032 114.782 49.1793 113.879C49.1793 113.43 49.1555 112.981 49.1356 112.531C49.1157 112.082 49.0958 111.636 49.068 111.187Z" fill="black"/>
</g>
<g opacity="0.1">
<path d="M57.2454 115.57C57.2692 115.009 57.2851 114.448 57.2971 113.887V113.048C57.2971 112.766 57.2971 112.487 57.2971 112.205V112.133H57.2215H55.6306H54.0595C53.5385 112.133 53.0135 112.133 52.4686 112.157L50.8976 112.205C51.4226 112.225 51.9476 112.245 52.4686 112.253C52.9896 112.261 53.5186 112.277 54.0595 112.277H55.6306H57.2215L57.1499 112.205C57.1499 112.487 57.1499 112.766 57.1499 113.048V113.887C57.2056 114.448 57.2255 115.009 57.2454 115.57Z" fill="black"/>
<path d="M50.2851 112.205C50.2652 112.766 50.2453 113.327 50.2374 113.887C50.2294 114.448 50.2135 115.009 50.2135 115.57V115.641H50.2851H51.876H53.4669C53.9959 115.641 54.5249 115.641 55.0579 115.618C55.5908 115.594 56.1158 115.594 56.6488 115.57C56.1198 115.55 55.5908 115.534 55.0579 115.526C54.5249 115.518 53.9999 115.498 53.4669 115.498H51.876H50.2851L50.3567 115.57C50.3567 115.009 50.3567 114.448 50.3328 113.887C50.309 113.327 50.309 112.766 50.2851 112.205Z" fill="black"/>
</g>
<g opacity="0.1">
<path d="M45.5003 115.57C45.5003 115.009 45.5401 114.448 45.5481 113.887V113.048C45.5481 112.766 45.5481 112.487 45.5481 112.205V112.133H45.4765H43.8856H42.3145C41.7895 112.133 41.2685 112.133 40.7236 112.157C40.1787 112.181 39.6776 112.185 39.1526 112.205C39.6776 112.225 40.1986 112.245 40.7236 112.253C41.2486 112.261 41.7696 112.277 42.3145 112.277H43.8856H45.4765L45.4049 112.205C45.4049 112.487 45.4049 112.766 45.4049 113.048V113.887C45.4447 114.447 45.4765 115.008 45.5003 115.57Z" fill="black"/>
<path d="M38.54 112.205C38.5201 112.766 38.5002 113.327 38.4923 113.887C38.4843 114.448 38.4684 115.009 38.4684 115.57V115.641H38.54H40.1309H41.7219C42.2508 115.641 42.7798 115.641 43.3128 115.618C43.8457 115.594 44.3707 115.594 44.9037 115.57C44.3747 115.55 43.8457 115.534 43.3128 115.526C42.7798 115.518 42.2548 115.498 41.7219 115.498H40.1309H38.54L38.6116 115.57C38.6116 115.009 38.6116 114.448 38.5877 113.887C38.5639 113.327 38.5599 112.766 38.54 112.205Z" fill="black"/>
</g>
<g opacity="0.1">
<path d="M46.7174 116.592C46.7452 116.139 46.7611 115.689 46.781 115.24C46.8009 114.79 46.8128 114.337 46.8248 113.887C46.8486 112.989 46.8645 112.086 46.8725 111.187V111.032H46.7174C46.0094 111.032 45.3015 111.032 44.5975 111.032C43.8935 111.032 43.1816 111.032 42.4776 111.032C41.7736 111.032 41.0617 111.06 40.3537 111.083C40.0037 111.083 39.6497 111.111 39.2957 111.123L38.2338 111.175C38.5878 111.199 38.9418 111.211 39.2957 111.227C39.6497 111.242 40.0037 111.258 40.3537 111.266C41.0617 111.29 41.7696 111.306 42.4776 111.318C43.1855 111.33 43.8895 111.318 44.5975 111.318C45.3054 111.318 46.0094 111.318 46.7174 111.318L46.5583 111.163C46.5583 112.062 46.5822 112.965 46.606 113.864C46.606 114.313 46.6299 114.766 46.6537 115.216C46.6776 115.665 46.6895 116.139 46.7174 116.592Z" fill="black"/>
<path d="M37.323 111.187C37.2952 111.636 37.2793 112.086 37.2594 112.539C37.2395 112.993 37.2276 113.438 37.2116 113.887C37.1878 114.79 37.1758 115.689 37.1639 116.592V116.747H37.323C38.0349 116.747 38.7509 116.747 39.4628 116.747C40.1747 116.747 40.8906 116.747 41.6066 116.727C42.3225 116.707 43.0344 116.703 43.7463 116.679L44.8202 116.636L45.8901 116.588C45.5322 116.564 45.1742 116.548 44.8202 116.536L43.7463 116.493C43.0344 116.469 42.3185 116.457 41.6066 116.445C40.8946 116.433 40.1787 116.425 39.4628 116.425C38.7469 116.425 38.0349 116.425 37.323 116.425L37.4781 116.584C37.4781 115.681 37.4543 114.782 37.4304 113.879C37.4304 113.43 37.4065 112.981 37.3827 112.531C37.3588 112.082 37.3508 111.636 37.323 111.187Z" fill="black"/>
</g>
<g opacity="0.1">
<path d="M33.7554 115.57C33.7554 115.009 33.7951 114.448 33.8031 113.887V113.048C33.8031 112.766 33.8031 112.487 33.8031 112.205V112.133H33.7315H32.1406H30.5695C30.0445 112.133 29.5195 112.133 28.9786 112.157C28.4377 112.181 27.9286 112.185 27.3877 112.205C27.9087 112.225 28.4337 112.245 28.9786 112.253C29.5235 112.261 30.0246 112.277 30.5695 112.277H32.1406H33.7315L33.6559 112.205C33.6559 112.487 33.6559 112.766 33.6559 113.048V113.887C33.7116 114.448 33.7315 115.009 33.7554 115.57Z" fill="black"/>
<path d="M26.7951 112.205C26.7712 112.766 26.7514 113.327 26.7434 113.887C26.7355 114.448 26.7195 115.009 26.7195 115.57V115.641H26.7951H28.386H29.977C30.5059 115.641 31.0349 115.641 31.5679 115.618C32.1008 115.594 32.6258 115.594 33.1588 115.57C32.6298 115.55 32.1008 115.534 31.5679 115.526C31.0349 115.518 30.5099 115.498 29.977 115.498H28.386H26.7951L26.8667 115.57C26.8667 115.009 26.8667 114.448 26.8428 113.887C26.819 113.327 26.815 112.766 26.7951 112.205Z" fill="black"/>
</g>
<g opacity="0.1">
<path d="M34.9684 116.592C34.9963 116.139 35.0122 115.689 35.0321 115.24C35.0519 114.79 35.0639 114.337 35.0798 113.887C35.1037 112.989 35.1156 112.086 35.1235 111.187V111.032H34.9644C34.2565 111.032 33.5525 111.032 32.8445 111.032C32.1366 111.032 31.4326 111.032 30.7246 111.032C30.0167 111.032 29.3127 111.06 28.6047 111.083C28.2508 111.083 27.8968 111.111 27.5428 111.123L26.4848 111.175C26.8388 111.199 27.1928 111.211 27.5428 111.227C27.8928 111.242 28.2508 111.258 28.6047 111.266C29.3127 111.29 30.0167 111.306 30.7246 111.318C31.4326 111.33 32.1366 111.318 32.8445 111.318C33.5525 111.318 34.2565 111.318 34.9644 111.318L34.8093 111.163C34.8093 112.062 34.8332 112.965 34.8571 113.864C34.8571 114.313 34.8809 114.766 34.9008 115.216C34.9207 115.665 34.9406 116.139 34.9684 116.592Z" fill="black"/>
<path d="M25.5741 111.187C25.5462 111.636 25.5303 112.086 25.5104 112.539C25.4905 112.993 25.4826 113.438 25.4826 113.891C25.4587 114.794 25.4428 115.693 25.4348 116.596V116.751H25.5939C26.3099 116.751 27.0218 116.751 27.7377 116.751C28.4536 116.751 29.1656 116.751 29.8775 116.731C30.5894 116.711 31.3053 116.707 32.0213 116.683L33.0912 116.64C33.4491 116.64 33.8071 116.612 34.161 116.592C33.8071 116.568 33.4491 116.552 33.0912 116.54L32.0213 116.497C31.3053 116.473 30.5934 116.461 29.8775 116.449C29.1616 116.437 28.4496 116.429 27.7377 116.429C27.0258 116.429 26.3099 116.429 25.5939 116.429L25.7491 116.588C25.7491 115.685 25.7252 114.786 25.7013 113.883C25.7013 113.434 25.6775 112.985 25.6576 112.535C25.6377 112.086 25.6019 111.636 25.5741 111.187Z" fill="black"/>
</g>
<path d="M44.4106 105.961H55.2845V89.3116H44.4106V105.961Z" fill="white"/>
<path d="M54.3976 90.1946H45.2975V105.074H54.3976V90.1946Z" fill="#C7C7C7"/>
<g opacity="0.1">
<path d="M45.2975 90.1986V91.9924L54.3976 101.092V96.7811L47.8151 90.1986H45.2975Z" fill="white"/>
<path d="M45.2975 99.601V103.912L46.4589 105.074H50.7703L45.2975 99.601Z" fill="white"/>
<path d="M45.2975 97.7117V98.6225L51.7487 105.074H52.6595L45.2975 97.7117Z" fill="white"/>
<path d="M48.7299 90.1986L54.3976 95.8623V94.0805L50.5157 90.1986H48.7299Z" fill="white"/>
</g>
<path d="M45.2975 95.3492H54.3976V94.4623H45.2975V95.3492Z" fill="white"/>
<path d="M28.6962 105.961H39.5702V89.3116H28.6962V105.961Z" fill="white"/>
<path d="M38.6832 90.1946H29.5832V105.074H38.6832V90.1946Z" fill="#C7C7C7"/>
<g opacity="0.1">
<path d="M29.5832 90.1986V91.9924L38.6832 101.092V96.7811L32.1008 90.1986H29.5832Z" fill="white"/>
<path d="M29.5832 99.601V103.912L30.7445 105.074H35.0559L29.5832 99.601Z" fill="white"/>
<path d="M29.5832 97.7117V98.6225L36.0343 105.074H36.9452L29.5832 97.7117Z" fill="white"/>
<path d="M33.0156 90.1986L38.6833 95.8623V94.0805L34.8014 90.1986H33.0156Z" fill="white"/>
</g>
<path d="M29.5832 95.3492H38.6833V94.4623H29.5832V95.3492Z" fill="white"/>
<path d="M44.4106 84.6622H55.2845V68.0132H44.4106V84.6622Z" fill="white"/>
<path d="M54.3976 68.9001H45.2975V83.7792H54.3976V68.9001Z" fill="#C7C7C7"/>
<g opacity="0.1">
<path d="M45.2975 68.9001V70.6939L54.3976 79.794V75.4826L47.8151 68.9001H45.2975Z" fill="white"/>
<path d="M45.2975 78.3065V82.6139L46.4589 83.7752H50.7703L45.2975 78.3065Z" fill="white"/>
<path d="M45.2975 76.4133V77.3241L51.7487 83.7753H52.6595L45.2975 76.4133Z" fill="white"/>
<path d="M48.7299 68.9001L54.3976 74.5678V72.782L50.5157 68.9001H48.7299Z" fill="white"/>
</g>
<path d="M45.2975 74.0468H54.3976V73.1598H45.2975V74.0468Z" fill="white"/>
<path d="M12.9819 84.6622H23.8559L23.8559 68.0132H12.9819L12.9819 84.6622Z" fill="white"/>
<path d="M22.9689 68.9001H13.8688V83.7792H22.9689V68.9001Z" fill="#C7C7C7"/>
<g opacity="0.1">
<path d="M13.8688 68.9001V70.6939L22.9729 79.794V75.4826L16.3865 68.9001H13.8688Z" fill="white"/>
<path d="M13.8688 78.3065V82.6139L15.0302 83.7752H19.3416L13.8688 78.3065Z" fill="white"/>
<path d="M13.8688 76.4133V77.3241L20.324 83.7753H21.2308L13.8688 76.4133Z" fill="white"/>
<path d="M17.3052 68.9001L22.9729 74.5678V72.782L19.087 68.9001H17.3052Z" fill="white"/>
</g>
<path d="M13.8689 74.0468H22.9689V73.1598H13.8689V74.0468Z" fill="white"/>
<path d="M28.6962 84.6622H39.5702V68.0132H28.6962V84.6622Z" fill="white"/>
<path d="M38.6832 68.9001H29.5832V83.7792H38.6832V68.9001Z" fill="#C7C7C7"/>
<g opacity="0.1">
<path d="M29.5832 68.9001V70.6939L38.6832 79.794V75.4826L32.1008 68.9001H29.5832Z" fill="white"/>
<path d="M29.5832 78.3065V82.6139L30.7445 83.7752H35.0559L29.5832 78.3065Z" fill="white"/>
<path d="M29.5832 76.4133V77.3241L36.0343 83.7753H36.9452L29.5832 76.4133Z" fill="white"/>
<path d="M33.0156 68.9001L38.6833 74.5678V72.782L34.8014 68.9001H33.0156Z" fill="white"/>
</g>
<path d="M29.5832 74.0468H38.6833V73.1598H29.5832V74.0468Z" fill="white"/>
<path d="M44.4106 63.3638H55.2845V57.3302H44.4106V63.3638Z" fill="white"/>
<path d="M54.3976 58.2131H45.2975V62.4768H54.3976V58.2131Z" fill="#C7C7C7"/>
<g opacity="0.1">
<path d="M45.2975 58.2171V60.0109L47.7674 62.4808H52.0788L47.8151 58.2171H45.2975Z" fill="white"/>
<path d="M48.7299 58.2171L52.9936 62.4808H54.3976V62.099L50.5157 58.2171H48.7299Z" fill="white"/>
</g>
<path d="M28.6922 63.3638H39.5662V57.3302H28.6922V63.3638Z" fill="white"/>
<path d="M38.6793 58.2131H29.5792V62.4768H38.6793V58.2131Z" fill="#C7C7C7"/>
<g opacity="0.1">
<path d="M29.5792 58.2171V60.0109L32.0491 62.4808H36.3605L32.0968 58.2171H29.5792Z" fill="white"/>
<path d="M33.0116 58.2171L37.2753 62.4808H38.6793V62.099L34.7974 58.2171H33.0116Z" fill="white"/>
</g>
<path d="M12.974 63.3638H23.8479V57.3302H12.974V63.3638Z" fill="white"/>
<path d="M22.961 58.2131H13.8609V62.4768H22.961V58.2131Z" fill="#C7C7C7"/>
<g opacity="0.1">
<path d="M13.8609 58.2171V60.0109L16.3308 62.4808H20.6422L16.3786 58.2171H13.8609Z" fill="white"/>
<path d="M17.2933 58.2171L21.557 62.4808H22.961V62.099L19.0791 58.2171H17.2933Z" fill="white"/>
</g>
<path d="M34.1293 50.6006C37.1298 50.6006 39.5622 48.1682 39.5622 45.1676C39.5622 42.1671 37.1298 39.7346 34.1293 39.7346C31.1287 39.7346 28.6963 42.1671 28.6963 45.1676C28.6963 48.1682 31.1287 50.6006 34.1293 50.6006Z" fill="white"/>
<path d="M34.1292 49.6222C36.5894 49.6222 38.5838 47.6278 38.5838 45.1676C38.5838 42.7074 36.5894 40.713 34.1292 40.713C31.669 40.713 29.6746 42.7074 29.6746 45.1676C29.6746 47.6278 31.669 49.6222 34.1292 49.6222Z" fill="#C7C7C7"/>
<path d="M29.5792 45.613H38.6792V44.7261H29.5792V45.613Z" fill="white"/>
<path d="M34.5707 49.7256V40.6215H33.6838V49.7256H34.5707Z" fill="white"/>
<g opacity="0.1">
<path d="M30.9594 42.0414L37.2554 48.3415C38.0612 47.5492 38.5348 46.4797 38.5799 45.3506L33.9463 40.709C32.8171 40.7556 31.7484 41.2323 30.9594 42.0414Z" fill="white"/>
<path d="M29.9769 46.7823C30.2008 47.3593 30.5424 47.8832 30.98 48.3208C31.4176 48.7584 31.9415 49.1 32.5184 49.3238L29.9769 46.7823Z" fill="white"/>
<path d="M34.9327 40.7886L38.5123 44.3681C38.3494 43.4787 37.9197 42.6599 37.2804 42.0205C36.641 41.3811 35.8221 40.9514 34.9327 40.7886Z" fill="white"/>
</g>
<path d="M36.2213 120.565H50.9373C50.9373 120.565 50.9055 118.374 49.4578 117.781C49.064 117.613 48.6264 117.576 48.21 117.676C47.7937 117.777 47.4208 118.009 47.147 118.338C47.147 118.338 46.5583 114.305 43.8577 114.305C41.1571 114.305 39.8804 117.781 39.8804 117.781C39.651 117.449 39.3298 117.192 38.956 117.04C38.5823 116.888 38.1723 116.848 37.7764 116.926C36.285 117.133 36.2213 120.565 36.2213 120.565Z" fill="#37474F"/>
<path d="M258.421 120.565C258.421 120.565 257.924 118.254 256.938 117.897C255.951 117.539 255.347 118.581 255.347 118.581C255.347 118.581 255.112 116.373 253.708 115.709C252.304 115.045 251.254 116.401 251.254 116.401C251.254 116.401 250.18 113.617 248.255 113.617C246.33 113.617 245.364 117.718 245.364 117.718C245.364 117.718 244.23 116.497 243.065 117.185C241.9 117.873 241.904 120.581 241.904 120.581L258.421 120.565Z" fill="#37474F"/>
<path d="M48.3163 120.565H61.8988C61.8988 120.565 61.4493 118.652 60.5505 118.513C60.2795 118.489 60.0075 118.548 59.7713 118.683C59.5352 118.818 59.3462 119.023 59.23 119.269C59.23 119.269 59.2698 116.596 57.5874 116.142C55.905 115.689 54.497 118.048 54.497 118.048C54.497 118.048 53.439 116.699 52.0032 116.787C50.5674 116.874 50.2015 119.098 50.2015 119.098C50.2015 119.098 48.893 118.326 48.3163 120.565Z" fill="#6DB389"/>
<path d="M142.519 120.565H156.105C156.105 120.565 155.656 118.652 154.757 118.513C154.486 118.489 154.214 118.548 153.978 118.683C153.742 118.818 153.553 119.023 153.436 119.269C153.436 119.269 153.476 116.596 151.794 116.142C150.111 115.689 148.703 118.048 148.703 118.048C148.703 118.048 147.645 116.699 146.21 116.787C144.774 116.874 144.408 119.098 144.408 119.098C144.408 119.098 143.099 118.326 142.519 120.565Z" fill="#6DB389"/>
<path d="M216.687 120.565H205.595C205.595 120.565 205.619 118.915 206.708 118.477C207.005 118.348 207.335 118.319 207.649 118.394C207.964 118.47 208.245 118.645 208.45 118.895C208.45 118.895 208.892 115.856 210.924 115.856C212.957 115.856 213.931 118.477 213.931 118.477C214.104 118.226 214.347 118.03 214.63 117.916C214.913 117.801 215.223 117.772 215.522 117.833C216.644 117.98 216.687 120.565 216.687 120.565Z" fill="#6DB389"/>
</svg>
