<svg width="20" height="26" viewBox="0 0 20 26" fill="none" xmlns="http://www.w3.org/2000/svg">
<path d="M10.0001 6.16671C11.8112 6.16664 13.5519 6.86853 14.8564 8.12492C16.1608 9.3813 16.9276 11.0944 16.9955 12.9042L17.0001 13.1667V21.3334H18.1668C18.4642 21.3337 18.7502 21.4476 18.9664 21.6517C19.1826 21.8558 19.3127 22.1348 19.3302 22.4317C19.3476 22.7285 19.251 23.0208 19.0602 23.2488C18.8693 23.4769 18.5986 23.6234 18.3033 23.6585L18.1668 23.6667H1.83347C1.53611 23.6664 1.2501 23.5525 1.03387 23.3484C0.817648 23.1443 0.68753 22.8653 0.670103 22.5684C0.652676 22.2716 0.749257 21.9793 0.940113 21.7512C1.13097 21.5232 1.40169 21.3767 1.69697 21.3415L1.83347 21.3334H3.00014V13.1667C3.00014 11.3102 3.73763 9.52971 5.05039 8.21696C6.36314 6.90421 8.14362 6.16671 10.0001 6.16671ZM10.0001 8.50004C8.76246 8.50004 7.57547 8.99171 6.7003 9.86687C5.82514 10.742 5.33347 11.929 5.33347 13.1667V21.3334H14.6668V13.1667C14.6668 11.929 14.1751 10.742 13.3 9.86687C12.4248 8.99171 11.2378 8.50004 10.0001 8.50004ZM10.601 11.5835C10.8658 11.7429 11.0565 12.0009 11.1313 12.3008C11.2061 12.6006 11.1589 12.918 11 13.183L10.3116 14.3334H11.7291C12.645 14.3334 13.2108 15.3332 12.7395 16.1184L11.0011 19.0175C10.8418 19.283 10.5835 19.4743 10.2831 19.5494C9.98269 19.6244 9.66478 19.5771 9.3993 19.4177C9.13382 19.2584 8.94252 19.0001 8.86747 18.6997C8.79242 18.3993 8.83979 18.0814 8.99914 17.8159L9.6898 16.6667H8.27114C8.06256 16.6667 7.85771 16.6114 7.67752 16.5064C7.49732 16.4013 7.34824 16.2503 7.2455 16.0688C7.14276 15.8873 7.09004 15.6817 7.09273 15.4732C7.09542 15.2646 7.15342 15.0605 7.2608 14.8817L8.99914 11.9825C9.07806 11.8511 9.18211 11.7365 9.30535 11.6453C9.42859 11.5541 9.56859 11.4881 9.71736 11.451C9.86612 11.414 10.0207 11.4066 10.1723 11.4294C10.324 11.4521 10.4696 11.5045 10.601 11.5835ZM2.57547 4.09237L3.4003 4.91721C3.60772 5.13809 3.72107 5.431 3.71637 5.73397C3.71166 6.03693 3.58927 6.32618 3.37509 6.54051C3.16091 6.75485 2.87175 6.87744 2.56879 6.88236C2.26582 6.88728 1.97283 6.77414 1.7518 6.56687L0.92697 5.74204C0.815542 5.63442 0.726662 5.50568 0.665519 5.36335C0.604375 5.22101 0.572191 5.06792 0.570845 4.91301C0.569499 4.7581 0.599017 4.60447 0.657678 4.46109C0.716339 4.31771 0.802968 4.18745 0.91251 4.07791C1.02205 3.96837 1.15231 3.88174 1.29569 3.82308C1.43907 3.76442 1.5927 3.7349 1.7476 3.73625C1.90251 3.73759 2.0556 3.76978 2.19794 3.83092C2.34028 3.89207 2.46785 3.98095 2.57547 4.09237ZM19.0745 4.09237C19.2753 4.29327 19.396 4.56055 19.4138 4.84408C19.4317 5.12761 19.3454 5.4079 19.1713 5.63237L19.0745 5.74204L18.2496 6.56687C18.0397 6.77611 17.758 6.89759 17.4617 6.90664C17.1654 6.91569 16.8768 6.81162 16.6545 6.61558C16.4322 6.41954 16.2928 6.14623 16.2647 5.85115C16.2366 5.55608 16.3218 5.26136 16.5031 5.02687L16.6 4.91721L17.4248 4.09237C17.6436 3.87366 17.9403 3.75079 18.2496 3.75079C18.559 3.75079 18.8557 3.87366 19.0745 4.09237ZM10.0001 0.333374C10.2859 0.333412 10.5617 0.438323 10.7752 0.628209C10.9888 0.818094 11.1252 1.07975 11.1586 1.36354L11.1668 1.50004V2.66671C11.1665 2.96407 11.0526 3.25008 10.8485 3.4663C10.6443 3.68253 10.3654 3.81265 10.0685 3.83007C9.77166 3.8475 9.47936 3.75092 9.25133 3.56007C9.0233 3.36921 8.87676 3.09849 8.84164 2.80321L8.83347 2.66671V1.50004C8.83347 1.19062 8.95639 0.893875 9.17518 0.675083C9.39397 0.45629 9.69072 0.333374 10.0001 0.333374Z" fill="#3F7D58" fill-opacity="0.5"/>
</svg>
