<svg width="28" height="28" viewBox="0 0 28 28" fill="none" xmlns="http://www.w3.org/2000/svg">
<path d="M12.53 14.2916L14 11.0833L15.4583 14.2916L18.6667 15.75L15.4583 17.22L14 20.4166L12.53 17.22L9.33333 15.75L12.53 14.2916ZM18.6667 3.49996V1.16663H21V3.49996H22.1667C22.785 3.49996 23.38 3.74496 23.8117 4.18829C24.255 4.61996 24.5 5.21496 24.5 5.83329V22.1666C24.5 22.785 24.255 23.38 23.8117 23.8116C23.38 24.255 22.785 24.5 22.1667 24.5H5.83333C5.215 24.5 4.62 24.255 4.18833 23.8116C3.745 23.38 3.5 22.785 3.5 22.1666V5.83329C3.5 5.21496 3.745 4.61996 4.18833 4.18829C4.62 3.74496 5.215 3.49996 5.83333 3.49996H7V1.16663H9.33333V3.49996H18.6667ZM5.83333 9.33329V22.1666H22.1667V9.33329H5.83333Z" fill="#3F7D58" fill-opacity="0.5"/>
</svg>
