<svg width="45" height="35" viewBox="0 0 45 35" fill="none" xmlns="http://www.w3.org/2000/svg">
<path d="M2.0835 2.1875H15.879C16.6837 2.1874 17.4804 2.34585 18.2238 2.65377C18.9672 2.9617 19.6426 3.41308 20.2115 3.98213L26.5835 10.3542M8.2085 20.5625H2.0835M15.3543 8.3125L19.4377 12.3958C19.7058 12.6639 19.9185 12.9822 20.0636 13.3326C20.2087 13.6829 20.2833 14.0583 20.2833 14.4375C20.2833 14.8167 20.2087 15.1921 20.0636 15.5424C19.9185 15.8928 19.7058 16.2111 19.4377 16.4792C19.1695 16.7473 18.8512 16.96 18.5009 17.1051C18.1506 17.2502 17.7752 17.3249 17.396 17.3249C17.0168 17.3249 16.6414 17.2502 16.2911 17.1051C15.9407 16.96 15.6224 16.7473 15.3543 16.4792L12.2918 13.4167C10.536 15.1725 7.7532 15.3705 5.76462 13.8801L5.146 13.4167" stroke="white" stroke-width="2.5" stroke-linecap="round" stroke-linejoin="round"/>
<path d="M8.2085 15.4583V24.6458C8.2085 28.4964 8.2085 30.4196 9.40491 31.6161C10.6013 32.8125 12.5246 32.8125 16.3752 32.8125H34.7502C38.6007 32.8125 40.524 32.8125 41.7204 31.6161C42.9168 30.4196 42.9168 28.4964 42.9168 24.6458V18.5208C42.9168 14.6702 42.9168 12.747 41.7204 11.5505C40.524 10.3541 38.6007 10.3541 34.7502 10.3541H17.396" stroke="white" stroke-width="2.5" stroke-linecap="round" stroke-linejoin="round"/>
<path d="M29.1356 21.5833C29.1356 22.5309 28.7592 23.4397 28.0891 24.1097C27.419 24.7798 26.5103 25.1562 25.5627 25.1562C24.6151 25.1562 23.7063 24.7798 23.0362 24.1097C22.3662 23.4397 21.9897 22.5309 21.9897 21.5833C21.9897 20.6357 22.3662 19.7269 23.0362 19.0569C23.7063 18.3868 24.6151 18.0104 25.5627 18.0104C26.5103 18.0104 27.419 18.3868 28.0891 19.0569C28.7592 19.7269 29.1356 20.6357 29.1356 21.5833Z" stroke="white" stroke-width="2.5" stroke-linecap="round" stroke-linejoin="round"/>
</svg>
