<svg width="100" height="100" viewBox="0 0 100 100" fill="none" xmlns="http://www.w3.org/2000/svg">
<path d="M35.4165 70.8334H24.6415L25.8623 69.6126C26.6213 68.8267 27.0413 67.7742 27.0318 66.6817C27.0223 65.5893 26.5841 64.5442 25.8116 63.7717C25.039 62.9991 23.994 62.5609 22.9015 62.5514C21.809 62.5419 20.7565 62.9619 19.9707 63.7209L11.6373 72.0542C10.8603 72.8378 10.4242 73.8966 10.4242 75.0001C10.4242 76.1036 10.8603 77.1624 11.6373 77.9459L19.9707 86.2792C20.7565 87.0382 21.809 87.4582 22.9015 87.4487C23.994 87.4392 25.039 87.001 25.8116 86.2285C26.5841 85.456 27.0223 84.4109 27.0318 83.3184C27.0413 82.2259 26.6213 81.1734 25.8623 80.3876L24.6415 79.1667H35.4165C36.5216 79.1667 37.5814 78.7278 38.3628 77.9464C39.1442 77.165 39.5832 76.1051 39.5832 75.0001C39.5832 73.895 39.1442 72.8352 38.3628 72.0538C37.5814 71.2724 36.5216 70.8334 35.4165 70.8334ZM88.3623 72.0542L80.029 63.7209C79.2432 62.9619 78.1907 62.5419 77.0982 62.5514C76.0057 62.5609 74.9606 62.9991 74.1881 63.7717C73.4156 64.5442 72.9774 65.5893 72.9679 66.6817C72.9584 67.7742 73.3783 68.8267 74.1373 69.6126L75.3582 70.8334H64.5832C63.4781 70.8334 62.4183 71.2724 61.6369 72.0538C60.8555 72.8352 60.4165 73.895 60.4165 75.0001C60.4165 76.1051 60.8555 77.165 61.6369 77.9464C62.4183 78.7278 63.4781 79.1667 64.5832 79.1667H75.3582L74.1373 80.3876C73.7394 80.7719 73.422 81.2317 73.2036 81.7401C72.9852 82.2484 72.8703 82.7952 72.8655 83.3484C72.8607 83.9017 72.9661 84.4503 73.1756 84.9624C73.3851 85.4745 73.6945 85.9397 74.0857 86.3309C74.4769 86.7221 74.9421 87.0315 75.4542 87.241C75.9663 87.4505 76.5149 87.5559 77.0682 87.5511C77.6214 87.5463 78.1682 87.4314 78.6765 87.213C79.1849 86.9946 79.6447 86.6772 80.029 86.2792L88.3623 77.9459C89.1394 77.1624 89.5754 76.1036 89.5754 75.0001C89.5754 73.8966 89.1394 72.8378 88.3623 72.0542ZM85.9998 40.7167C88.2959 38.096 89.5684 34.7343 89.5832 31.2501C89.5832 27.3823 88.0467 23.673 85.3118 20.9381C82.5769 18.2032 78.8676 16.6667 74.9998 16.6667C71.1321 16.6667 67.4228 18.2032 64.6879 20.9381C61.953 23.673 60.4165 27.3823 60.4165 31.2501C60.4313 34.7343 61.7037 38.096 63.9998 40.7167C61.0002 42.5771 58.5236 45.1704 56.8032 48.2524C55.0829 51.3345 54.1755 54.8038 54.1665 58.3334C54.1665 59.4385 54.6055 60.4983 55.3869 61.2797C56.1683 62.0611 57.2281 62.5001 58.3332 62.5001C59.4382 62.5001 60.4981 62.0611 61.2795 61.2797C62.0609 60.4983 62.4998 59.4385 62.4998 58.3334C62.4998 55.0182 63.8168 51.8388 66.161 49.4946C68.5052 47.1504 71.6846 45.8334 74.9998 45.8334C78.315 45.8334 81.4945 47.1504 83.8387 49.4946C86.1829 51.8388 87.4998 55.0182 87.4998 58.3334C87.4998 59.4385 87.9388 60.4983 88.7202 61.2797C89.5016 62.0611 90.5614 62.5001 91.6665 62.5001C92.7716 62.5001 93.8314 62.0611 94.6128 61.2797C95.3942 60.4983 95.8332 59.4385 95.8332 58.3334C95.8242 54.8038 94.9168 51.3345 93.1965 48.2524C91.4761 45.1704 88.9995 42.5771 85.9998 40.7167ZM74.9998 37.5001C73.7637 37.5001 72.5553 37.1335 71.5275 36.4468C70.4997 35.76 69.6986 34.7839 69.2256 33.6419C68.7526 32.4998 68.6288 31.2431 68.8699 30.0308C69.1111 28.8184 69.7063 27.7047 70.5804 26.8307C71.4545 25.9566 72.5681 25.3613 73.7805 25.1202C74.9929 24.879 76.2496 25.0028 77.3916 25.4758C78.5336 25.9489 79.5098 26.75 80.1965 27.7778C80.8833 28.8056 81.2498 30.0139 81.2498 31.2501C81.2498 32.9077 80.5914 34.4974 79.4193 35.6695C78.2472 36.8416 76.6574 37.5001 74.9998 37.5001ZM35.9998 40.7167C38.2959 38.096 39.5684 34.7343 39.5832 31.2501C39.5832 27.3823 38.0467 23.673 35.3118 20.9381C32.5769 18.2032 28.8676 16.6667 24.9998 16.6667C21.1321 16.6667 17.4228 18.2032 14.6879 20.9381C11.953 23.673 10.4165 27.3823 10.4165 31.2501C10.4313 34.7343 11.7037 38.096 13.9998 40.7167C11.0002 42.5771 8.52355 45.1704 6.80321 48.2524C5.08286 51.3345 4.17547 54.8038 4.1665 58.3334C4.1665 59.4385 4.60549 60.4983 5.38689 61.2797C6.16829 62.0611 7.2281 62.5001 8.33317 62.5001C9.43824 62.5001 10.498 62.0611 11.2794 61.2797C12.0609 60.4983 12.4998 59.4385 12.4998 58.3334C12.4998 55.0182 13.8168 51.8388 16.161 49.4946C18.5052 47.1504 21.6846 45.8334 24.9998 45.8334C28.315 45.8334 31.4945 47.1504 33.8387 49.4946C36.1829 51.8388 37.4998 55.0182 37.4998 58.3334C37.4998 59.4385 37.9388 60.4983 38.7202 61.2797C39.5016 62.0611 40.5614 62.5001 41.6665 62.5001C42.7716 62.5001 43.8314 62.0611 44.6128 61.2797C45.3942 60.4983 45.8332 59.4385 45.8332 58.3334C45.8242 54.8038 44.9168 51.3345 43.1965 48.2524C41.4761 45.1704 38.9995 42.5771 35.9998 40.7167ZM24.9998 37.5001C23.7637 37.5001 22.5553 37.1335 21.5275 36.4468C20.4997 35.76 19.6986 34.7839 19.2256 33.6419C18.7525 32.4998 18.6288 31.2431 18.8699 30.0308C19.1111 28.8184 19.7063 27.7047 20.5804 26.8307C21.4545 25.9566 22.5681 25.3613 23.7805 25.1202C24.9929 24.879 26.2496 25.0028 27.3916 25.4758C28.5336 25.9489 29.5098 26.75 30.1965 27.7778C30.8833 28.8056 31.2498 30.0139 31.2498 31.2501C31.2498 32.9077 30.5914 34.4974 29.4193 35.6695C28.2472 36.8416 26.6574 37.5001 24.9998 37.5001Z" fill="white"/>
</svg>
