<svg width="67" height="67" viewBox="0 0 67 67" fill="none" xmlns="http://www.w3.org/2000/svg">
<path d="M29.6933 17.5115C29.2221 17.5115 28.7702 17.6986 28.4371 18.0318C28.1039 18.365 27.9168 18.8168 27.9168 19.288C27.9168 19.7591 28.1039 20.211 28.4371 20.5442C28.7702 20.8773 29.2221 21.0645 29.6933 21.0645H40.3524C40.8235 21.0645 41.2754 20.8773 41.6085 20.5442C41.9417 20.211 42.1289 19.7591 42.1289 19.288C42.1289 18.8168 41.9417 18.365 41.6085 18.0318C41.2754 17.6986 40.8235 17.5115 40.3524 17.5115H29.6933ZM26.1402 37.0531C26.1402 37.9955 25.7659 38.8992 25.0996 39.5655C24.4333 40.2318 23.5295 40.6062 22.5872 40.6062C21.6449 40.6062 20.7412 40.2318 20.0748 39.5655C19.4085 38.8992 19.0342 37.9955 19.0342 37.0531C19.0342 36.1108 19.4085 35.2071 20.0748 34.5408C20.7412 33.8744 21.6449 33.5001 22.5872 33.5001C23.5295 33.5001 24.4333 33.8744 25.0996 34.5408C25.7659 35.2071 26.1402 36.1108 26.1402 37.0531ZM26.1402 49.4887C26.1402 50.4311 25.7659 51.3348 25.0996 52.0011C24.4333 52.6674 23.5295 53.0418 22.5872 53.0418C21.6449 53.0418 20.7412 52.6674 20.0748 52.0011C19.4085 51.3348 19.0342 50.4311 19.0342 49.4887C19.0342 48.5464 19.4085 47.6427 20.0748 46.9764C20.7412 46.31 21.6449 45.9357 22.5872 45.9357C23.5295 45.9357 24.4333 46.31 25.0996 46.9764C25.7659 47.6427 26.1402 48.5464 26.1402 49.4887ZM35.0228 40.6062C35.9651 40.6062 36.8689 40.2318 37.5352 39.5655C38.2015 38.8992 38.5758 37.9955 38.5758 37.0531C38.5758 36.1108 38.2015 35.2071 37.5352 34.5408C36.8689 33.8744 35.9651 33.5001 35.0228 33.5001C34.0805 33.5001 33.1768 33.8744 32.5104 34.5408C31.8441 35.2071 31.4698 36.1108 31.4698 37.0531C31.4698 37.9955 31.8441 38.8992 32.5104 39.5655C33.1768 40.2318 34.0805 40.6062 35.0228 40.6062ZM38.5758 49.4887C38.5758 50.4311 38.2015 51.3348 37.5352 52.0011C36.8689 52.6674 35.9651 53.0418 35.0228 53.0418C34.0805 53.0418 33.1768 52.6674 32.5104 52.0011C31.8441 51.3348 31.4698 50.4311 31.4698 49.4887C31.4698 48.5464 31.8441 47.6427 32.5104 46.9764C33.1768 46.31 34.0805 45.9357 35.0228 45.9357C35.9651 45.9357 36.8689 46.31 37.5352 46.9764C38.2015 47.6427 38.5758 48.5464 38.5758 49.4887ZM47.4584 40.6062C48.4007 40.6062 49.3045 40.2318 49.9708 39.5655C50.6371 38.8992 51.0114 37.9955 51.0114 37.0531C51.0114 36.1108 50.6371 35.2071 49.9708 34.5408C49.3045 33.8744 48.4007 33.5001 47.4584 33.5001C46.5161 33.5001 45.6124 33.8744 44.946 34.5408C44.2797 35.2071 43.9054 36.1108 43.9054 37.0531C43.9054 37.9955 44.2797 38.8992 44.946 39.5655C45.6124 40.2318 46.5161 40.6062 47.4584 40.6062Z" fill="#2D2D2D"/>
<path fill-rule="evenodd" clip-rule="evenodd" d="M20.8106 4.1875C21.2818 4.1875 21.7336 4.37467 22.0668 4.70783C22.4 5.04099 22.5871 5.49285 22.5871 5.96402V9.51705H47.4583V5.96402C47.4583 5.49285 47.6455 5.04099 47.9787 4.70783C48.3118 4.37467 48.7637 4.1875 49.2349 4.1875C49.706 4.1875 50.1579 4.37467 50.491 4.70783C50.8242 5.04099 51.0114 5.49285 51.0114 5.96402V9.5277C51.8807 9.53481 52.6552 9.5656 53.3351 9.62008C54.6319 9.72667 55.7689 9.95051 56.8206 10.4835C58.4915 11.3358 59.8497 12.6953 60.7005 14.3669C61.237 15.4186 61.4608 16.5556 61.5674 17.8489C61.6705 19.1102 61.6705 20.6629 61.6705 22.5886V49.7409C61.6705 51.6666 61.6705 53.2229 61.5674 54.4771C61.4608 55.7739 61.237 56.9109 60.7005 57.9626C59.8491 59.633 58.4909 60.9911 56.8206 61.8425C55.7689 62.379 54.6319 62.6029 53.3386 62.7095C52.0773 62.8125 50.5246 62.8125 48.6024 62.8125H21.4466C19.5209 62.8125 17.9646 62.8125 16.7104 62.7095C15.4136 62.6029 14.2766 62.379 13.2249 61.8425C11.5532 60.9917 10.1938 59.6335 9.34142 57.9626C8.80847 56.9109 8.58463 55.7739 8.47804 54.4806C8.375 53.2193 8.375 51.6631 8.375 49.7373V22.5922C8.375 20.9045 8.375 19.5082 8.44606 18.3392L8.47804 17.856C8.58463 16.5592 8.80847 15.4222 9.34142 14.3705C10.1932 12.6983 11.5527 11.3388 13.2249 10.487C14.2766 9.95407 15.4136 9.73023 16.7069 9.62364C17.3914 9.56916 18.1672 9.53836 19.0341 9.53126V5.96402C19.0341 5.49285 19.2213 5.04099 19.5544 4.70783C19.8876 4.37467 20.3394 4.1875 20.8106 4.1875ZM19.0341 14.8466V13.0807C18.3548 13.0863 17.6758 13.1136 16.9982 13.1625C15.9252 13.2477 15.307 13.4112 14.838 13.6492C13.8343 14.1603 13.0183 14.9763 12.5072 15.98C12.2691 16.449 12.1057 17.0672 12.0204 18.1402C11.928 19.2381 11.928 20.6451 11.928 22.6633V24.6174H58.1174V22.6633C58.1174 20.6451 58.1174 19.2381 58.0251 18.1402C57.9398 17.0672 57.7763 16.449 57.5383 15.98C57.0272 14.9763 56.2112 14.1603 55.2075 13.6492C54.7385 13.4112 54.1203 13.2477 53.0473 13.1625C52.3697 13.1136 51.6907 13.0863 51.0114 13.0807V14.8466C51.0114 15.3178 50.8242 15.7696 50.491 16.1028C50.1579 16.4359 49.706 16.6231 49.2349 16.6231C48.7637 16.6231 48.3118 16.4359 47.9787 16.1028C47.6455 15.7696 47.4583 15.3178 47.4583 14.8466V13.0701H22.5871V14.8466C22.5871 15.3178 22.4 15.7696 22.0668 16.1028C21.7336 16.4359 21.2818 16.6231 20.8106 16.6231C20.3394 16.6231 19.8876 16.4359 19.5544 16.1028C19.2213 15.7696 19.0341 15.3178 19.0341 14.8466ZM58.1174 28.1705H11.928V49.6663C11.928 51.6844 11.928 53.095 12.0204 54.1893C12.1057 55.2623 12.2691 55.8805 12.5072 56.3495C13.0183 57.3532 13.8343 58.1692 14.838 58.6803C15.307 58.9184 15.9252 59.0818 16.9982 59.1671C18.0961 59.2595 19.5031 59.2595 21.5212 59.2595H48.5243C50.5424 59.2595 51.9529 59.2595 53.0473 59.1671C54.1203 59.0818 54.7385 58.9184 55.2075 58.6803C56.2112 58.1692 57.0272 57.3532 57.5383 56.3495C57.7763 55.8805 57.9398 55.2623 58.0251 54.1893C58.1174 53.095 58.1174 51.6844 58.1174 49.6663V28.1705Z" fill="#2D2D2D"/>
</svg>
