<svg width="79" height="66" viewBox="0 0 79 66" fill="none" xmlns="http://www.w3.org/2000/svg">
<path fill-rule="evenodd" clip-rule="evenodd" d="M69.085 0.566514C69.9619 0.0388022 71.0092 -0.128568 72.0069 0.0995318C73.0046 0.327631 73.8752 0.933464 74.4359 1.78988L78.3541 7.76813C78.8649 8.5491 79.0835 9.48548 78.9712 10.412C78.859 11.3385 78.4232 12.1955 77.7407 12.8318L77.7288 12.8477L77.6734 12.8991L77.4478 13.109L76.5573 13.9602C71.63 18.7414 66.852 23.6742 62.23 28.7514C53.5347 38.3166 43.2088 50.8353 36.2589 62.9818C34.3196 66.3708 29.5821 67.0993 26.772 64.1735L1.10566 37.4971C0.737844 37.1146 0.450643 36.6621 0.261131 36.1664C0.0716189 35.6707 -0.016336 35.142 0.00249386 34.6116C0.0213237 34.0813 0.146554 33.5601 0.370741 33.0791C0.594929 32.5981 0.913497 32.1671 1.30751 31.8118L9.06481 24.8121C9.74651 24.1973 10.6206 23.8386 11.5376 23.7974C12.4545 23.7562 13.3572 24.0352 14.0912 24.5864L27.1876 34.4089C47.6455 14.2294 59.2459 6.48538 69.085 0.566514Z" fill="white"/>
</svg>
