<svg width="41" height="41" viewBox="0 0 41 41" fill="none" xmlns="http://www.w3.org/2000/svg">
<path d="M5.00387 25.6573L11.9496 18.7115L17.7255 24.4874L24.171 18.0419L20.5103 14.3812H30.7187V24.5895L27.0579 20.9288L17.7255 30.2613L11.9496 24.4874L6.89854 29.5385C9.19217 32.9907 12.7124 35.4418 16.746 36.3951C20.7795 37.3485 25.0246 36.7327 28.6211 34.6727C32.2175 32.6127 34.8963 29.2624 36.1146 25.3008C37.3329 21.3393 36.9996 17.0627 35.1822 13.3377C33.3649 9.61279 30.1993 6.71804 26.3271 5.24011C22.4549 3.76218 18.1657 3.81161 14.3285 5.37838C10.4914 6.94515 7.39344 9.91208 5.66237 13.6779C3.93131 17.4438 3.69664 21.7269 5.00591 25.6593M1.86787 28.8403L1.84746 28.8198L1.85562 28.8117C0.693769 26.1977 0.094175 23.3688 0.095706 20.5082C0.095706 9.23209 9.23624 0.0915527 20.5124 0.0915527C31.7885 0.0915527 40.929 9.23209 40.929 20.5082C40.929 31.7843 31.7885 40.9249 20.5124 40.9249C12.2028 40.9249 5.05695 35.9636 1.86787 28.8403Z" fill="white"/>
</svg>
