<svg width="62" height="62" viewBox="0 0 62 62" fill="none" xmlns="http://www.w3.org/2000/svg">
<path d="M36.8125 40.9638C36.8125 35.73 41.2403 31.6458 46.5 31.6458C51.7597 31.6458 56.1875 35.7274 56.1875 40.9638C56.1875 45.309 53.9271 49.06 51.8837 51.5917C50.7397 53.004 49.4628 54.3034 48.0707 55.4718L47.7917 55.6992L47.7142 55.7612L47.6883 55.7818L47.6806 55.787H47.678L45.4253 55.8619L45.4202 55.8567L45.4124 55.8516L45.3866 55.8335L45.3013 55.7767L45.0146 55.57C43.5916 54.4947 42.2928 53.2644 41.1422 51.9017C39.0497 49.4062 36.8151 45.6552 36.8151 40.9638M45.4253 55.8619L46.5775 56.6292L47.678 55.7922L45.4253 55.8619ZM46.4432 51.7492C47.1123 51.1292 47.9932 50.2432 48.8715 49.1582C50.7031 46.89 52.3151 43.9992 52.3151 40.9638C52.3151 38.0447 49.8041 35.5208 46.5026 35.5208C43.2037 35.5208 40.6901 38.0447 40.6901 40.9638C40.6901 44.3919 42.3305 47.2852 44.113 49.4062C44.8234 50.2505 45.6028 51.0342 46.4432 51.7492ZM46.5 41.9791C46.6713 41.9791 46.8356 41.911 46.9567 41.7899C47.0778 41.6688 47.1458 41.5045 47.1458 41.3332C47.1458 41.162 47.0778 40.9977 46.9567 40.8766C46.8356 40.7555 46.6713 40.6874 46.5 40.6874C46.3287 40.6874 46.1644 40.7555 46.0433 40.8766C45.9222 40.9977 45.8542 41.162 45.8542 41.3332C45.8542 41.5045 45.9222 41.6688 46.0433 41.7899C46.1644 41.911 46.3287 41.9791 46.5 41.9791ZM43.2708 41.3332C43.2708 40.4768 43.611 39.6555 44.2166 39.0499C44.8222 38.4443 45.6436 38.1041 46.5 38.1041C47.3564 38.1041 48.1778 38.4443 48.7834 39.0499C49.389 39.6555 49.7292 40.4768 49.7292 41.3332C49.7292 42.1897 49.389 43.011 48.7834 43.6166C48.1778 44.2222 47.3564 44.5624 46.5 44.5624C45.6436 44.5624 44.8222 44.2222 44.2166 43.6166C43.611 43.011 43.2708 42.1897 43.2708 41.3332Z" fill="white"/>
<path fill-rule="evenodd" clip-rule="evenodd" d="M25.8331 9.6875C22.4671 9.6875 19.8217 12.338 19.8217 15.5C19.8217 18.662 22.4645 21.3125 25.8331 21.3125C29.2018 21.3125 31.8471 18.662 31.8471 15.5C31.8471 12.338 29.2018 9.6875 25.8331 9.6875ZM15.9467 15.5C15.9467 10.1008 20.4211 5.8125 25.8383 5.8125C31.253 5.8125 35.7273 10.1008 35.7273 15.5C35.7273 20.8992 31.253 25.1875 25.8383 25.1875C20.4236 25.1875 15.939 20.8992 15.939 15.5M19.2973 30.9122C18.8246 30.6099 18.4706 30.5918 18.3053 30.6358C17.9333 30.7391 17.5639 30.8493 17.1971 30.9664L14.6551 31.7802C13.7842 32.0483 12.9878 32.5157 12.3291 33.1453C11.6704 33.7749 11.1674 34.5493 10.8601 35.4072C10.7913 35.636 10.7472 35.8716 10.7284 36.1098L9.7183 45.6656L9.71314 45.6992C9.51939 47.0606 10.2453 48.1017 11.3484 48.36C14.1306 49.0058 18.8168 49.7292 25.8306 49.7292C26.3444 49.7292 26.8372 49.9333 27.2006 50.2966C27.5639 50.66 27.7681 51.1528 27.7681 51.6667C27.7681 52.1805 27.5639 52.6733 27.2006 53.0367C26.8372 53.4 26.3444 53.6042 25.8306 53.6042C18.5507 53.6042 13.5675 52.8498 10.4726 52.1317C7.14272 51.3593 5.4558 48.2308 5.87172 45.1903L6.87405 35.7017C6.92055 35.2573 7.00322 34.7071 7.19955 34.1413C7.70338 32.715 8.53252 31.4257 9.62125 30.3755C10.71 29.3254 12.0284 28.5433 13.4719 28.0912L16.0165 27.2748C16.435 27.1422 16.8552 27.0174 17.2771 26.9003C18.8556 26.4663 20.3565 26.9855 21.4001 27.6598C22.356 28.2798 23.9163 29.0263 25.8306 29.0263C27.7422 29.0263 29.3026 28.2772 30.2584 27.6572C31.2995 26.9855 32.803 26.4663 34.3814 26.9003C34.8033 27.0174 35.2236 27.1422 35.6421 27.2748L38.1866 28.0912C38.4339 28.1646 38.6641 28.2867 38.8635 28.4503C39.063 28.6139 39.2278 28.8156 39.3482 29.0437C39.4687 29.2718 39.5424 29.5217 39.565 29.7787C39.5876 30.0357 39.5587 30.2945 39.4799 30.5402C39.4011 30.7858 39.2741 31.0133 39.1062 31.2091C38.9384 31.405 38.7331 31.5654 38.5024 31.6809C38.2718 31.7964 38.0204 31.8647 37.763 31.8817C37.5056 31.8988 37.2474 31.8642 37.0035 31.7802L34.4615 30.9664C34.0935 30.8487 33.7231 30.7384 33.3506 30.6358C33.1879 30.5918 32.834 30.6099 32.3638 30.9122C31.0386 31.7698 28.7471 32.9013 25.828 32.9013C22.9088 32.9013 20.6226 31.7698 19.2973 30.9122Z" fill="white"/>
</svg>
