<svg width="62" height="62" viewBox="0 0 62 62" fill="none" xmlns="http://www.w3.org/2000/svg">
<path d="M38.1148 25.8333C40.6103 25.8333 42.6357 27.8587 42.6357 30.3542V42.6224C42.6357 45.7062 41.4106 48.6638 39.23 50.8444C37.0494 53.025 34.0919 54.25 31.0081 54.25C27.9243 54.25 24.9667 53.025 22.7861 50.8444C20.6055 48.6638 19.3805 45.7062 19.3805 42.6224V30.3542C19.3805 27.8587 21.4032 25.8333 23.9013 25.8333H38.1148ZM38.1148 29.7083H23.9013C23.73 29.7083 23.5658 29.7764 23.4447 29.8975C23.3235 30.0186 23.2555 30.1829 23.2555 30.3542V42.6224C23.2555 44.6785 24.0723 46.6504 25.5262 48.1043C26.9801 49.5582 28.952 50.375 31.0081 50.375C33.0642 50.375 35.0361 49.5582 36.49 48.1043C37.9439 46.6504 38.7607 44.6785 38.7607 42.6224V30.3542C38.7607 30.1829 38.6926 30.0186 38.5715 29.8975C38.4504 29.7764 38.2861 29.7083 38.1148 29.7083ZM9.68783 25.8333H18.4221C17.511 26.9342 16.9544 28.2851 16.8256 29.7083H9.68783C9.51654 29.7083 9.35227 29.7764 9.23115 29.8975C9.11004 30.0186 9.04199 30.1829 9.04199 30.3542V38.7474C9.04133 39.7238 9.26205 40.6876 9.68756 41.5663C10.1131 42.4451 10.7323 43.216 11.4986 43.8209C12.265 44.4259 13.1585 44.8493 14.112 45.0591C15.0656 45.269 16.0543 45.26 17.0038 45.0327C17.2234 46.3347 17.6238 47.5772 18.1741 48.732C17.3199 48.9645 16.4286 49.0816 15.5003 49.0833C14.1431 49.0833 12.7992 48.816 11.5453 48.2965C10.2915 47.777 9.15222 47.0157 8.19264 46.0559C7.23307 45.096 6.47198 43.9566 5.95283 42.7026C5.43368 41.4486 5.16665 40.1046 5.16699 38.7474V30.3542C5.16699 27.8587 7.19233 25.8333 9.68783 25.8333ZM43.5941 25.8333H52.3128C54.8083 25.8333 56.8337 27.8587 56.8337 30.3542V38.75C56.834 40.334 56.4702 41.8969 55.7703 43.3179C55.0705 44.7389 54.0533 45.98 52.7974 46.9453C51.5415 47.9106 50.0804 48.5742 48.5272 48.8849C46.974 49.1956 45.3701 49.145 43.8395 48.7372C44.3923 47.5798 44.7927 46.3373 45.0149 45.0353C45.492 45.1489 45.9871 45.2066 46.5003 45.2083C48.2132 45.2083 49.8559 44.5279 51.0671 43.3167C52.2782 42.1056 52.9587 40.4629 52.9587 38.75V30.3542C52.9587 30.1829 52.8906 30.0186 52.7695 29.8975C52.6484 29.7764 52.4841 29.7083 52.3128 29.7083H45.1906C45.0618 28.2851 44.5052 26.9342 43.5941 25.8333ZM31.0003 7.75C33.0558 7.75 35.027 8.56652 36.4804 10.0199C37.9338 11.4733 38.7503 13.4446 38.7503 15.5C38.7503 17.5554 37.9338 19.5267 36.4804 20.9801C35.027 22.4335 33.0558 23.25 31.0003 23.25C28.9449 23.25 26.9737 22.4335 25.5202 20.9801C24.0668 19.5267 23.2503 17.5554 23.2503 15.5C23.2503 13.4446 24.0668 11.4733 25.5202 10.0199C26.9737 8.56652 28.9449 7.75 31.0003 7.75ZM47.792 10.3333C49.5049 10.3333 51.1476 11.0138 52.3587 12.2249C53.5699 13.4361 54.2503 15.0788 54.2503 16.7917C54.2503 18.5045 53.5699 20.1472 52.3587 21.3584C51.1476 22.5696 49.5049 23.25 47.792 23.25C46.0791 23.25 44.4364 22.5696 43.2253 21.3584C42.0141 20.1472 41.3337 18.5045 41.3337 16.7917C41.3337 15.0788 42.0141 13.4361 43.2253 12.2249C44.4364 11.0138 46.0791 10.3333 47.792 10.3333ZM14.2087 10.3333C15.9215 10.3333 17.5642 11.0138 18.7754 12.2249C19.9866 13.4361 20.667 15.0788 20.667 16.7917C20.667 18.5045 19.9866 20.1472 18.7754 21.3584C17.5642 22.5696 15.9215 23.25 14.2087 23.25C12.4958 23.25 10.8531 22.5696 9.64193 21.3584C8.43076 20.1472 7.75033 18.5045 7.75033 16.7917C7.75033 15.0788 8.43076 13.4361 9.64193 12.2249C10.8531 11.0138 12.4958 10.3333 14.2087 10.3333ZM31.0003 11.625C29.9726 11.625 28.987 12.0333 28.2603 12.76C27.5336 13.4867 27.1253 14.4723 27.1253 15.5C27.1253 16.5277 27.5336 17.5133 28.2603 18.24C28.987 18.9667 29.9726 19.375 31.0003 19.375C32.028 19.375 33.0137 18.9667 33.7404 18.24C34.4671 17.5133 34.8753 16.5277 34.8753 15.5C34.8753 14.4723 34.4671 13.4867 33.7404 12.76C33.0137 12.0333 32.028 11.625 31.0003 11.625ZM47.792 14.2083C47.1069 14.2083 46.4498 14.4805 45.9653 14.965C45.4808 15.4494 45.2087 16.1065 45.2087 16.7917C45.2087 17.4768 45.4808 18.1339 45.9653 18.6184C46.4498 19.1028 47.1069 19.375 47.792 19.375C48.4771 19.375 49.1342 19.1028 49.6187 18.6184C50.1032 18.1339 50.3753 17.4768 50.3753 16.7917C50.3753 16.1065 50.1032 15.4494 49.6187 14.965C49.1342 14.4805 48.4771 14.2083 47.792 14.2083ZM14.2087 14.2083C13.5235 14.2083 12.8664 14.4805 12.382 14.965C11.8975 15.4494 11.6253 16.1065 11.6253 16.7917C11.6253 17.4768 11.8975 18.1339 12.382 18.6184C12.8664 19.1028 13.5235 19.375 14.2087 19.375C14.8938 19.375 15.5509 19.1028 16.0354 18.6184C16.5198 18.1339 16.792 17.4768 16.792 16.7917C16.792 16.1065 16.5198 15.4494 16.0354 14.965C15.5509 14.4805 14.8938 14.2083 14.2087 14.2083Z" fill="white"/>
</svg>
