<svg width="100" height="100" viewBox="0 0 100 100" fill="none" xmlns="http://www.w3.org/2000/svg">
<path d="M90.625 12.5H84.375V7.50156C84.375 5.09375 82.5656 3.125 80.3594 3.125H60.2594C58.0594 3.125 56.25 5.09375 56.25 7.50156V12.5H18.6578L9.375 31.25H15.8203V43.75H14.7766L9.57031 50L14.7766 56.25H15.9172V59.6062C15.9172 60.4547 16.5719 61.1406 17.3828 61.1406C19.8062 61.1406 21.7781 63.2094 21.7781 65.7516C21.7781 68.2938 19.8062 70.3625 17.3828 70.3625C14.9594 70.3625 12.9875 68.2938 12.9875 65.7516C12.9875 64.9031 12.3313 64.2172 11.5219 64.2172C10.7109 64.2172 10.0562 64.9031 10.0562 65.7516C10.0594 69.9922 13.3437 73.4375 17.3828 73.4375C21.4219 73.4375 24.7078 69.9922 24.7078 65.7531C24.7078 62.0422 22.1875 58.9359 18.8484 58.225V56.25H19.9875L25.1953 50L19.9875 43.75H18.9453V31.25H56.25V42.4984C56.25 44.5734 57.5953 46.3125 59.375 46.7594V96.875H63.4766V87.5L77.1484 92.1875L63.4766 96.875H81.25V46.7578C83.0312 46.3125 84.375 44.5734 84.375 42.4984V31.25H90.625V26.5625H87.3781L90.625 20.3984V12.5ZM16.6297 26.5625L20.2797 19.0641L24.2266 26.5625H16.6297ZM23.5391 17.1875H30.0281L26.7844 23.3516L23.5391 17.1875ZM29.3422 26.5625L32.5875 20.3984L35.8344 26.5625H29.3422ZM35.1469 17.1875H41.6359L38.3906 23.3516L35.1469 17.1875ZM40.9516 26.5625L44.1953 20.3984L47.4391 26.5625H40.9516ZM46.7547 17.1875H53.2438L50 23.3516L46.7547 17.1875ZM56.25 26.5625H52.5578L55.8016 20.3984L56.25 21.25V26.5625ZM77.1484 87.5L63.4766 82.8125L77.1484 78.125V87.5ZM63.4766 78.125V68.75L77.1484 73.4406L63.4766 78.125ZM77.1484 68.75L63.4766 64.0625L77.1484 59.375V68.75ZM63.4766 59.375V50.0031L77.1484 54.6875L63.4766 59.375ZM77.1484 50.0031L68.0313 46.875H77.1484V50.0031ZM79.4922 23.825C79.4922 25.3297 78.4359 26.5625 77.1484 26.5625H63.0828C61.7953 26.5625 60.7422 25.3297 60.7422 23.825V10.5594C60.7422 9.04531 61.7953 7.8125 63.0828 7.8125H77.1484C78.4359 7.8125 79.4922 9.04531 79.4922 10.5594V23.825ZM84.8203 23.3516L84.375 22.5047V17.1875H88.0641L84.8203 23.3516Z" fill="white"/>
</svg>
