<svg width="62" height="62" viewBox="0 0 62 62" fill="none" xmlns="http://www.w3.org/2000/svg">
<path d="M26.1562 23.25C25.8993 23.25 25.6529 23.3521 25.4712 23.5337C25.2896 23.7154 25.1875 23.9618 25.1875 24.2188C25.1875 24.4757 25.2896 24.7221 25.4712 24.9038C25.6529 25.0854 25.8993 25.1875 26.1562 25.1875H35.8438C36.1007 25.1875 36.3471 25.0854 36.5288 24.9038C36.7104 24.7221 36.8125 24.4757 36.8125 24.2188C36.8125 23.9618 36.7104 23.7154 36.5288 23.5337C36.3471 23.3521 36.1007 23.25 35.8438 23.25H26.1562ZM27.125 29.0625C26.8681 29.0625 26.6217 29.1646 26.44 29.3462C26.2583 29.5279 26.1562 29.7743 26.1562 30.0312C26.1562 30.2882 26.2583 30.5346 26.44 30.7163C26.6217 30.8979 26.8681 31 27.125 31H34.875C35.1319 31 35.3783 30.8979 35.56 30.7163C35.7417 30.5346 35.8438 30.2882 35.8438 30.0312C35.8438 29.7743 35.7417 29.5279 35.56 29.3462C35.3783 29.1646 35.1319 29.0625 34.875 29.0625H27.125ZM23.25 33.9062C23.25 33.6493 23.3521 33.4029 23.5337 33.2212C23.7154 33.0396 23.9618 32.9375 24.2188 32.9375H28.0938C28.3507 32.9375 28.5971 33.0396 28.7788 33.2212C28.9604 33.4029 29.0625 33.6493 29.0625 33.9062C29.0625 34.1632 28.9604 34.4096 28.7788 34.5913C28.5971 34.7729 28.3507 34.875 28.0938 34.875H24.2188C23.9618 34.875 23.7154 34.7729 23.5337 34.5913C23.3521 34.4096 23.25 34.1632 23.25 33.9062ZM31.9688 32.9375C31.7118 32.9375 31.4654 33.0396 31.2837 33.2212C31.1021 33.4029 31 33.6493 31 33.9062C31 34.1632 31.1021 34.4096 31.2837 34.5913C31.4654 34.7729 31.7118 34.875 31.9688 34.875H37.7812C38.0382 34.875 38.2846 34.7729 38.4663 34.5913C38.6479 34.4096 38.75 34.1632 38.75 33.9062C38.75 33.6493 38.6479 33.4029 38.4663 33.2212C38.2846 33.0396 38.0382 32.9375 37.7812 32.9375H31.9688Z" fill="white"/>
<path d="M60.0625 60.0625H1.9375V56.1875C1.93726 54.4214 2.54026 52.7081 3.64664 51.3315C4.75303 49.9549 6.29642 48.9974 8.02125 48.6177C8.2927 47.7602 8.75947 46.9773 9.3848 46.3308C10.0101 45.6843 10.777 45.1917 11.625 44.8919V15.5C11.625 13.4446 12.4415 11.4733 13.8949 10.0199C15.3483 8.56652 17.3196 7.75 19.375 7.75H20.9308C21.9513 5.98254 23.419 4.51487 25.1866 3.49454C26.9541 2.47422 28.9591 1.93721 31 1.9375C33.0409 1.93721 35.0459 2.47422 36.8134 3.49454C38.581 4.51487 40.0487 5.98254 41.0692 7.75H42.625C44.6804 7.75 46.6517 8.56652 48.1051 10.0199C49.5585 11.4733 50.375 13.4446 50.375 15.5V44.8919C51.223 45.1917 51.9899 45.6843 52.6152 46.3308C53.2405 46.9773 53.7073 47.7602 53.9788 48.6177C55.7036 48.9974 57.247 49.9549 58.3534 51.3315C59.4597 52.7081 60.0627 54.4214 60.0625 56.1875V60.0625ZM56.1875 56.1875C56.1875 55.1598 55.7792 54.1742 55.0525 53.4475C54.3258 52.7208 53.3402 52.3125 52.3125 52.3125H9.6875C8.65979 52.3125 7.67416 52.7208 6.94746 53.4475C6.22076 54.1742 5.8125 55.1598 5.8125 56.1875H56.1875ZM48.4375 48.4375H13.5625C13.0486 48.4375 12.5558 48.6416 12.1925 49.005C11.8291 49.3683 11.625 49.8611 11.625 50.375H50.375C50.375 49.8611 50.1709 49.3683 49.8075 49.005C49.4442 48.6416 48.9514 48.4375 48.4375 48.4375ZM46.5 46.5V15.5C46.5 14.4723 46.0917 13.4867 45.365 12.76C44.6383 12.0333 43.6527 11.625 42.625 11.625H39.2576C39.0413 11.6198 38.8318 11.5482 38.6575 11.42C38.4832 11.2918 38.3525 11.1131 38.2831 10.9081C37.7376 9.41499 36.7463 8.1256 35.4436 7.2146C34.1409 6.30359 32.5897 5.815 31 5.815C29.4103 5.815 27.8591 6.30359 26.5564 7.2146C25.2537 8.1256 24.2624 9.41499 23.7169 10.9081C23.6475 11.1131 23.5168 11.2918 23.3425 11.42C23.1682 11.5482 22.9587 11.6198 22.7424 11.625H19.375C18.3473 11.625 17.3617 12.0333 16.635 12.76C15.9083 13.4867 15.5 14.4723 15.5 15.5V46.5H17.4375V16.4688C17.4375 15.698 17.7437 14.9587 18.2887 14.4137C18.8337 13.8687 19.573 13.5625 20.3438 13.5625H25.1875C25.1875 12.0209 25.7999 10.5425 26.8899 9.45244C27.98 8.36239 29.4584 7.75 31 7.75C32.5416 7.75 34.02 8.36239 35.1101 9.45244C36.2001 10.5425 36.8125 12.0209 36.8125 13.5625H41.6562C42.427 13.5625 43.1663 13.8687 43.7113 14.4137C44.2563 14.9587 44.5625 15.698 44.5625 16.4688V46.5H46.5ZM42.625 46.5V16.4688C42.625 16.2118 42.5229 15.9654 42.3413 15.7837C42.1596 15.6021 41.9132 15.5 41.6562 15.5H36.6749C36.1977 15.4995 35.7402 15.3097 35.4028 14.9722C35.0653 14.6348 34.8755 14.1773 34.875 13.7001V13.5625C34.875 12.5348 34.4667 11.5492 33.74 10.8225C33.0133 10.0958 32.0277 9.6875 31 9.6875C29.9723 9.6875 28.9867 10.0958 28.26 10.8225C27.5333 11.5492 27.125 12.5348 27.125 13.5625V13.7001C27.1245 14.1773 26.9347 14.6348 26.5972 14.9722C26.2598 15.3097 25.8023 15.4995 25.3251 15.5H20.3438C20.0868 15.5 19.8404 15.6021 19.6587 15.7837C19.4771 15.9654 19.375 16.2118 19.375 16.4688V46.5H42.625Z" fill="white"/>
</svg>
