<svg width="41" height="33" viewBox="0 0 41 33" fill="none" xmlns="http://www.w3.org/2000/svg">
<path d="M34.2814 32.8333H6.71891C5.02405 32.8334 3.39339 32.1849 2.16144 31.021C0.929495 29.857 0.18966 28.2657 0.0937047 26.5735L0.0834961 26.1979V4.76038C0.0833531 3.59637 0.525099 2.47571 1.31946 1.62488C2.11382 0.774051 3.20155 0.256504 4.36283 0.176835L4.67724 0.166626H30.1981C31.3621 0.166483 32.4827 0.608229 33.3336 1.40259C34.1844 2.19695 34.7019 3.28468 34.7816 4.44596L34.7918 4.76038V6.29162H36.3231C37.4871 6.29148 38.6077 6.73323 39.4586 7.52759C40.3094 8.32195 40.8269 9.40968 40.9066 10.571L40.9168 10.8854V26.1979C40.9169 27.8927 40.2685 29.5234 39.1045 30.7553C37.9405 31.9873 36.3492 32.7271 34.6571 32.8231L34.2814 32.8333ZM6.71891 29.7708H34.2814C35.1784 29.7707 36.0426 29.4332 36.7022 28.8254C37.3619 28.2176 37.7688 27.3838 37.8421 26.4898L37.8543 26.1979V10.8854C37.8543 10.5153 37.7203 10.1578 37.4771 9.87897C37.2339 9.60011 36.8979 9.41874 36.5313 9.36842L36.3231 9.35412H34.7918V25.177C34.7918 25.5471 34.6578 25.9046 34.4146 26.1834C34.1714 26.4623 33.8354 26.6437 33.4688 26.694L33.2606 26.7083C32.8905 26.7083 32.533 26.5743 32.2542 26.3311C31.9753 26.0878 31.7939 25.7519 31.7436 25.3853L31.7293 25.177V4.76038C31.7293 4.39035 31.5953 4.03284 31.3521 3.75398C31.1089 3.47511 30.7729 3.29374 30.4063 3.24342L30.1981 3.22913H4.67724C4.30722 3.22914 3.94971 3.36315 3.67084 3.60636C3.39198 3.84957 3.21061 4.18554 3.16029 4.55212L3.146 4.76038V26.1979C3.14603 27.0946 3.48322 27.9584 4.09063 28.618C4.69805 29.2777 5.53127 29.6848 6.42491 29.7585L6.71891 29.7708ZM21.0024 21.6041H27.1397C27.5276 21.6042 27.9011 21.7516 28.1846 22.0165C28.468 22.2813 28.6404 22.6439 28.6669 23.031C28.6933 23.4181 28.5719 23.8007 28.327 24.1017C28.0822 24.4026 27.7322 24.5994 27.3479 24.6523L27.1397 24.6666H21.0024C20.6144 24.6665 20.241 24.5191 19.9575 24.2543C19.674 23.9894 19.5016 23.6268 19.4752 23.2397C19.4487 22.8527 19.5702 22.47 19.815 22.1691C20.0599 21.8681 20.4098 21.6713 20.7942 21.6184L21.0024 21.6041ZM14.8713 14.4685C15.2774 14.4685 15.6669 14.6298 15.954 14.917C16.2412 15.2042 16.4025 15.5936 16.4025 15.9997V23.1354C16.4025 23.5415 16.2412 23.931 15.954 24.2181C15.6669 24.5053 15.2774 24.6666 14.8713 24.6666H7.73566C7.32955 24.6666 6.94007 24.5053 6.6529 24.2181C6.36574 23.931 6.20441 23.5415 6.20441 23.1354V15.9997C6.20441 15.5936 6.36574 15.2042 6.6529 14.917C6.94007 14.6298 7.32955 14.4685 7.73566 14.4685H14.8713ZM13.34 17.531H9.26691V21.6041H13.34V17.531ZM21.0024 14.4685H27.1397C27.5276 14.4686 27.9011 14.616 28.1846 14.8809C28.468 15.1457 28.6404 15.5083 28.6669 15.8954C28.6933 16.2824 28.5719 16.6651 28.327 16.9661C28.0822 17.267 27.7322 17.4638 27.3479 17.5167L27.1397 17.531H21.0024C20.6117 17.535 20.2342 17.3894 19.9473 17.1242C19.6604 16.8589 19.4858 16.494 19.4591 16.1041C19.4325 15.7143 19.556 15.329 19.8041 15.0272C20.0523 14.7254 20.4065 14.5299 20.7942 14.4807L21.0024 14.4685ZM7.73566 7.31654H27.1397C27.5304 7.31257 27.9078 7.45812 28.1948 7.72339C28.4817 7.98865 28.6563 8.35357 28.6829 8.74341C28.7095 9.13325 28.5861 9.51852 28.3379 9.82032C28.0897 10.1221 27.7355 10.3176 27.3479 10.3668L27.1397 10.379H7.73566C7.3477 10.3789 6.97424 10.2315 6.69075 9.96668C6.40727 9.70182 6.23489 9.33922 6.20844 8.95216C6.182 8.5651 6.30346 8.18243 6.54829 7.88147C6.79312 7.58052 7.14307 7.38371 7.52741 7.33083L7.73566 7.31654Z" fill="white"/>
</svg>
