<svg width="62" height="62" viewBox="0 0 62 62" fill="none" xmlns="http://www.w3.org/2000/svg">
<path d="M31 36.1667C39.5604 36.1667 46.5 29.2272 46.5 20.6667C46.5 12.1063 39.5604 5.16675 31 5.16675C22.4396 5.16675 15.5 12.1063 15.5 20.6667C15.5 29.2272 22.4396 36.1667 31 36.1667Z" stroke="white" stroke-width="1.5" stroke-linecap="round" stroke-linejoin="round"/>
<path d="M43.5913 31.0001C45.5003 33.8056 46.5145 37.1237 46.5002 40.5171C46.5002 42.6303 46.1178 44.6478 45.4255 46.5001M45.4255 46.5001C43.1573 52.5503 37.5541 56.8334 31.0002 56.8334C22.439 56.8334 15.5001 49.5278 15.5001 40.5171C15.4858 37.1237 16.5 33.8056 18.409 31.0001M45.4255 46.5001C38.3652 43.4001 31.1448 38.3187 28.4168 36.1667M31.0002 5.16675C28.4323 5.16675 26.3502 7.19208 26.3502 9.68758C26.3502 12.1831 28.4323 14.2084 31.0002 14.2084C32.1911 14.2084 33.2787 13.7744 34.1002 13.0562M25.8335 20.6667H25.8542M36.1668 20.6667H36.1875" stroke="white" stroke-width="1.5" stroke-linecap="round" stroke-linejoin="round"/>
</svg>
