<svg width="45" height="45" viewBox="0 0 45 45" fill="none" xmlns="http://www.w3.org/2000/svg">
<path d="M24.2967 12.3264L34.0436 14.9214M22.2101 20.0766L27.0816 21.3751M22.4531 34.6806L24.4009 35.2012C29.9134 36.6712 32.6696 37.4042 34.8419 36.1567C37.0122 34.9113 37.7513 32.1694 39.2274 26.6895L41.3161 18.9373C42.7942 13.4554 43.5313 10.7155 42.2777 8.55544C41.0241 6.39535 38.2699 5.66239 32.7554 4.19444L30.8076 3.67381C25.2951 2.20381 22.5389 1.47085 20.3686 2.71831C18.1962 3.96373 17.4571 6.70569 15.979 12.1855L13.8924 19.9377C12.4142 25.4196 11.6751 28.1595 12.9308 30.3196C14.1844 32.4776 16.9406 33.2126 22.4531 34.6806Z" stroke="white" stroke-width="2.5" stroke-linecap="round" stroke-linejoin="round"/>
<path d="M22.5002 40.7648L20.5566 41.2956C15.0563 42.7922 12.3082 43.5415 10.14 42.2695C7.9758 40.9996 7.23672 38.2066 5.76468 32.6165L3.68013 24.7112C2.20605 19.1231 1.46901 16.3281 2.72055 14.1272C3.80263 12.2223 6.16688 12.2917 9.22938 12.2917" stroke="white" stroke-width="2.5" stroke-linecap="round" stroke-linejoin="round"/>
</svg>
