<svg width="35" height="43" viewBox="0 0 35 43" fill="none" xmlns="http://www.w3.org/2000/svg">
<path fill-rule="evenodd" clip-rule="evenodd" d="M17.5 0C22.1413 0 26.5925 1.84377 29.8744 5.12569C33.1563 8.40762 35 12.8589 35 17.5002C35 23.4775 31.7411 28.3698 28.3072 31.8796C26.5916 33.6141 24.7196 35.1868 22.715 36.5774L21.8867 37.1413L21.4978 37.3999L20.7647 37.8666L20.1114 38.2652L19.3025 38.7357C18.7535 39.0491 18.1322 39.214 17.5 39.214C16.8678 39.214 16.2465 39.0491 15.6975 38.7357L14.8886 38.2652L13.8775 37.643L13.5042 37.3999L12.7069 36.8691C10.5444 35.4059 8.53009 33.7348 6.69278 31.8796C3.25889 28.3678 0 23.4775 0 17.5002C0 12.8589 1.84374 8.40762 5.12563 5.12569C8.40752 1.84377 12.8587 0 17.5 0ZM17.5 3.88894C13.8901 3.88894 10.4281 5.32298 7.87549 7.87559C5.32291 10.4282 3.88889 13.8903 3.88889 17.5002C3.88889 22.0153 6.36222 25.9781 9.47139 29.1592C10.8083 30.5126 12.2532 31.7547 13.7919 32.8732L14.6825 33.5071C14.9703 33.708 15.247 33.8947 15.5128 34.0671L16.2711 34.5532L16.9381 34.9596L17.5 35.2882L18.3847 34.7651L19.0983 34.3179C19.4781 34.0768 19.8845 33.8065 20.3175 33.5071L21.2081 32.8732C22.7468 31.7547 24.1917 30.5126 25.5286 29.1592C28.6378 25.98 31.1111 22.0153 31.1111 17.5002C31.1111 13.8903 29.6771 10.4282 27.1245 7.87559C24.5719 5.32298 21.1099 3.88894 17.5 3.88894ZM17.5 9.72234C19.5628 9.72234 21.5411 10.5418 22.9997 12.0004C24.4583 13.4591 25.2778 15.4374 25.2778 17.5002C25.2778 19.563 24.4583 21.5414 22.9997 23C21.5411 24.4586 19.5628 25.2781 17.5 25.2781C15.4372 25.2781 13.4589 24.4586 12.0003 23C10.5417 21.5414 9.72222 19.563 9.72222 17.5002C9.72222 15.4374 10.5417 13.4591 12.0003 12.0004C13.4589 10.5418 15.4372 9.72234 17.5 9.72234ZM17.5 13.6113C16.4686 13.6113 15.4794 14.021 14.7501 14.7503C14.0208 15.4796 13.6111 16.4688 13.6111 17.5002C13.6111 18.5316 14.0208 19.5208 14.7501 20.2501C15.4794 20.9794 16.4686 21.3891 17.5 21.3891C18.5314 21.3891 19.5206 20.9794 20.2499 20.2501C20.9792 19.5208 21.3889 18.5316 21.3889 17.5002C21.3889 16.4688 20.9792 15.4796 20.2499 14.7503C19.5206 14.021 18.5314 13.6113 17.5 13.6113Z" fill="white"/>
</svg>
