<svg width="28" height="28" viewBox="0 0 28 28" fill="none" xmlns="http://www.w3.org/2000/svg">
<path d="M5.83333 25.6666C5.19167 25.6666 4.64256 25.4384 4.186 24.9818C3.72944 24.5252 3.50078 23.9757 3.5 23.3333V18.9C3.5 18.6277 3.54861 18.3555 3.64583 18.0833C3.74306 17.8111 3.88889 17.568 4.08333 17.3541L5.89167 15.3125C6.10556 15.0597 6.38283 14.9286 6.7235 14.9193C7.06417 14.91 7.35078 15.0216 7.58333 15.2541C7.79722 15.468 7.91389 15.7305 7.93333 16.0416C7.95278 16.3527 7.85556 16.625 7.64167 16.8583L6.0375 18.6666H21.9625L20.4167 16.9166C20.2028 16.6833 20.1056 16.4111 20.125 16.1C20.1444 15.7889 20.2611 15.5264 20.475 15.3125C20.7083 15.0791 20.9953 14.9671 21.336 14.9765C21.6767 14.9858 21.9536 15.1172 22.1667 15.3708L23.9167 17.3541C24.1111 17.568 24.2569 17.8111 24.3542 18.0833C24.4514 18.3555 24.5 18.6277 24.5 18.9V23.3333C24.5 23.975 24.2717 24.5245 23.8152 24.9818C23.3586 25.4391 22.8091 25.6674 22.1667 25.6666H5.83333ZM5.83333 23.3333H22.1667V21H5.83333V23.3333ZM12.3958 16.7708L8.28333 12.6583C7.83611 12.2111 7.61756 11.662 7.62767 11.011C7.63778 10.36 7.86606 9.81046 8.3125 9.36246L14.0292 3.6458C14.4764 3.19857 15.0306 2.96524 15.6917 2.9458C16.3528 2.92635 16.9069 3.14024 17.3542 3.58746L21.4667 7.69996C21.9139 8.14718 22.1472 8.69163 22.1667 9.3333C22.1861 9.97496 21.9722 10.5194 21.525 10.9666L15.6917 16.8C15.2444 17.2472 14.6953 17.4661 14.0443 17.4568C13.3933 17.4475 12.8438 17.2188 12.3958 16.7708ZM19.8333 9.36246L15.7208 5.24996L9.94583 11.025L14.0583 15.1375L19.8333 9.36246Z" fill="#3F7D58" fill-opacity="0.5"/>
</svg>
