<svg width="26" height="26" viewBox="0 0 26 26" fill="none" xmlns="http://www.w3.org/2000/svg">
<path d="M22.3479 17.3321C22.2636 17.2306 22.1808 17.129 22.0995 17.031C20.9824 15.6797 20.3065 14.8642 20.3065 11.0388C20.3065 9.05836 19.8327 7.43336 18.8988 6.21461C18.2102 5.31426 17.2794 4.63125 16.0525 4.12648C16.0367 4.1177 16.0226 4.10618 16.0109 4.09246C15.5696 2.61473 14.362 1.625 13 1.625C11.6381 1.625 10.431 2.61473 9.98974 4.09094C9.97798 4.10417 9.96407 4.11533 9.9486 4.12395C7.08556 5.30258 5.69415 7.56387 5.69415 11.0373C5.69415 14.8642 5.01927 15.6797 3.90107 17.0295C3.81982 17.1275 3.73704 17.227 3.65274 17.3306C3.435 17.5932 3.29703 17.9127 3.25519 18.2513C3.21334 18.5898 3.26936 18.9333 3.41661 19.241C3.72993 19.9012 4.39771 20.311 5.15993 20.311H20.8458C21.6044 20.311 22.2676 19.9017 22.582 19.2446C22.7299 18.9368 22.7864 18.593 22.7449 18.2541C22.7034 17.9151 22.5656 17.5952 22.3479 17.3321ZM13 24.375C13.7339 24.3744 14.4538 24.1752 15.0836 23.7986C15.7133 23.4219 16.2294 22.8818 16.5771 22.2356C16.5935 22.2046 16.6015 22.1699 16.6006 22.1349C16.5996 22.0999 16.5896 22.0657 16.5715 22.0357C16.5534 22.0057 16.5278 21.9809 16.4973 21.9637C16.4668 21.9465 16.4323 21.9375 16.3973 21.9375H9.6038C9.56872 21.9374 9.53421 21.9463 9.50363 21.9635C9.47304 21.9807 9.44743 22.0055 9.42928 22.0355C9.41112 22.0655 9.40105 22.0997 9.40004 22.1348C9.39904 22.1699 9.40713 22.2046 9.42353 22.2356C9.77114 22.8817 10.2871 23.4218 10.9168 23.7984C11.5465 24.1751 12.2663 24.3743 13 24.375Z" fill="#3F7D58"/>
</svg>
