<svg width="26" height="26" viewBox="0 0 26 26" fill="none" xmlns="http://www.w3.org/2000/svg">
<path d="M18.6875 13C19.334 13 19.954 13.2568 20.4111 13.7139C20.8682 14.171 21.125 14.791 21.125 15.4375V16.25C21.125 19.4529 18.1025 22.75 13 22.75C7.8975 22.75 4.875 19.4529 4.875 16.25V15.4375C4.875 14.791 5.13181 14.171 5.58893 13.7139C6.04605 13.2568 6.66603 13 7.3125 13H18.6875ZM18.6875 14.625H7.3125C7.09701 14.625 6.89035 14.7106 6.73798 14.863C6.5856 15.0153 6.5 15.222 6.5 15.4375V16.25C6.5 18.5868 8.827 21.125 13 21.125C17.173 21.125 19.5 18.5868 19.5 16.25V15.4375C19.5 15.222 19.4144 15.0153 19.262 14.863C19.1097 14.7106 18.903 14.625 18.6875 14.625ZM13 2.4375C14.1852 2.4375 15.3218 2.90831 16.1599 3.74637C16.9979 4.58442 17.4688 5.72106 17.4688 6.90625C17.4688 8.09144 16.9979 9.22808 16.1599 10.0661C15.3218 10.9042 14.1852 11.375 13 11.375C11.8148 11.375 10.6782 10.9042 9.84012 10.0661C9.00206 9.22808 8.53125 8.09144 8.53125 6.90625C8.53125 5.72106 9.00206 4.58442 9.84012 3.74637C10.6782 2.90831 11.8148 2.4375 13 2.4375ZM13 4.0625C12.2458 4.0625 11.5225 4.36211 10.9892 4.89542C10.4559 5.42872 10.1562 6.15204 10.1562 6.90625C10.1562 7.66046 10.4559 8.38378 10.9892 8.91708C11.5225 9.45039 12.2458 9.75 13 9.75C13.7542 9.75 14.4775 9.45039 15.0108 8.91708C15.5441 8.38378 15.8438 7.66046 15.8438 6.90625C15.8438 6.15204 15.5441 5.42872 15.0108 4.89542C14.4775 4.36211 13.7542 4.0625 13 4.0625Z" fill="#797979"/>
</svg>
