<svg width="62" height="62" viewBox="0 0 62 62" fill="none" xmlns="http://www.w3.org/2000/svg">
<path fill-rule="evenodd" clip-rule="evenodd" d="M14.7331 51.6668C13.6739 48.2387 12.0464 40.2148 16.4665 32.2556C21.2896 23.5756 20.2123 14.9421 19.0498 10.3334H47.2676C48.3267 13.7615 49.9542 21.7853 45.5341 29.7446C40.7111 38.4246 41.7883 47.0581 42.9508 51.6668H14.7331ZM11.9508 29.7446C6.40441 39.7266 8.65708 49.6388 9.88416 53.4622C10.5713 55.6218 12.576 56.8334 14.5962 56.8334H44.5111C47.3399 56.8334 49.0423 54.0305 48.3035 51.6254C47.2391 48.1586 45.6504 40.1761 50.0498 32.2556C55.5962 22.2736 53.3436 12.3613 52.1165 8.538C51.4293 6.37833 49.4246 5.16675 47.4045 5.16675H17.4895C14.6607 5.16675 12.9557 7.96966 13.6946 10.3747C14.7589 13.8416 16.3502 21.8241 11.9508 29.7446ZM23.2503 23.2501C23.2503 22.5649 23.5225 21.9079 24.007 21.4234C24.4914 20.9389 25.1485 20.6667 25.8337 20.6667H41.3337C42.0188 20.6667 42.6759 20.9389 43.1603 21.4234C43.6448 21.9079 43.917 22.5649 43.917 23.2501C43.917 23.9352 43.6448 24.5923 43.1603 25.0768C42.6759 25.5612 42.0188 25.8334 41.3337 25.8334H25.8337C25.1485 25.8334 24.4914 25.5612 24.007 25.0768C23.5225 24.5923 23.2503 23.9352 23.2503 23.2501ZM23.2503 31.0001C22.5652 31.0001 21.9081 31.2723 21.4236 31.7567C20.9392 32.2412 20.667 32.8983 20.667 33.5834C20.667 34.2686 20.9392 34.9256 21.4236 35.4101C21.9081 35.8946 22.5652 36.1667 23.2503 36.1667H31.0003C31.6855 36.1667 32.3425 35.8946 32.827 35.4101C33.3115 34.9256 33.5837 34.2686 33.5837 33.5834C33.5837 32.8983 33.3115 32.2412 32.827 31.7567C32.3425 31.2723 31.6855 31.0001 31.0003 31.0001H23.2503Z" fill="white"/>
</svg>
