<svg width="62" height="62" viewBox="0 0 62 62" fill="none" xmlns="http://www.w3.org/2000/svg">
<path d="M56.084 22.5009C59.3132 19.2718 57.8407 15.5001 56.084 13.6659L48.334 5.91592C45.079 2.68675 41.3332 4.15925 39.499 5.91592L35.1073 10.3334H28.4165C23.5082 10.3334 20.6665 12.9168 19.2198 15.8876L7.74984 27.3576V37.6909L5.91567 39.4993C2.6865 42.7543 4.159 46.5001 5.91567 48.3343L13.6657 56.0843C15.0607 57.4793 16.559 57.9959 17.9798 57.9959C19.814 57.9959 21.4932 57.0918 22.5007 56.0843L29.4757 49.0834H38.7498C43.1415 49.0834 45.3632 46.3451 46.164 43.6584C49.0832 42.8834 50.6849 40.6618 51.3307 38.4918C55.3349 37.4584 56.8332 33.6609 56.8332 31.0001V23.2501H55.309L56.084 22.5009ZM51.6665 31.0001C51.6665 32.1626 51.1757 33.5834 49.0832 33.5834H46.4999V36.1668C46.4999 37.3293 46.009 38.7501 43.9165 38.7501H41.3332V41.3334C41.3332 42.4959 40.8424 43.9168 38.7498 43.9168H27.3573L18.884 52.3901C18.0832 53.1393 17.6182 52.7001 17.334 52.4159L9.60984 44.7176C8.86067 43.9168 9.29984 43.4518 9.58401 43.1676L12.9165 39.8093V29.4759L18.0832 24.3093V28.4168C18.0832 31.5426 20.1498 36.1668 25.8332 36.1668C31.5165 36.1668 33.5832 31.5426 33.5832 28.4168H51.6665V31.0001ZM52.4157 18.8326L48.024 23.2501H28.4165V28.4168C28.4165 29.5793 27.9257 31.0001 25.8332 31.0001C23.7407 31.0001 23.2498 29.5793 23.2498 28.4168V20.6668C23.2498 19.4784 23.689 15.5001 28.4165 15.5001H37.2257L43.1157 9.61008C43.9165 8.86092 44.3815 9.30008 44.6657 9.58425L52.3899 17.2826C53.139 18.0834 52.6999 18.5484 52.4157 18.8326Z" fill="white"/>
</svg>
