<svg width="62" height="62" viewBox="0 0 62 62" fill="none" xmlns="http://www.w3.org/2000/svg">
<path d="M40.3468 18.0835C42.0182 18.4038 43.2531 18.967 44.2296 19.9538C46.5003 22.2478 46.5003 25.942 46.5003 33.3303V56.8335M46.5003 56.8335H15.5003M46.5003 56.8335H54.2503C55.4671 56.8335 56.0767 56.8335 56.4565 56.4537C56.8337 56.0766 56.8337 55.4669 56.8337 54.2502V41.3335C56.8337 36.4613 56.8337 34.0278 55.3198 32.514C53.806 31.0002 51.3725 31.0002 46.5003 31.0002M15.5003 56.8335V33.3303C15.5003 25.942 15.5003 22.2478 17.7711 19.9538C18.7476 18.967 19.9824 18.4038 21.6538 18.0835M15.5003 56.8335H7.75033C6.53358 56.8335 5.92391 56.8335 5.54416 56.4537C5.16699 56.0766 5.16699 55.4669 5.16699 54.2502V41.3335C5.16699 36.4613 5.16699 34.0278 6.68083 32.514C8.19466 31.0002 10.6282 31.0002 15.5003 31.0002M31.0003 56.8335V49.0835M23.2503 38.7502H26.3503M38.7503 38.7502H35.6503" stroke="white" stroke-width="2" stroke-linecap="round" stroke-linejoin="round"/>
<path d="M20.7756 10.3334C28.3293 10.3334 31.0004 5.16675 31.0004 5.16675C31.0004 5.16675 33.6716 10.3334 41.2253 10.3334C41.7858 14.6941 40.4373 24.9292 31.0004 28.4167C21.5661 24.9292 20.215 14.6941 20.7756 10.3334Z" stroke="white" stroke-width="2" stroke-linecap="round" stroke-linejoin="round"/>
</svg>
