<svg width="26" height="26" viewBox="0 0 26 26" fill="none" xmlns="http://www.w3.org/2000/svg">
<path d="M15.8571 23H21.5714C21.9503 23 22.3137 22.8495 22.5816 22.5816C22.8495 22.3137 23 21.9503 23 21.5714V4.42857C23 4.04969 22.8495 3.68633 22.5816 3.41842C22.3137 3.15051 21.9503 3 21.5714 3H15.8571C15.4783 3 15.1149 3.15051 14.847 3.41842C14.5791 3.68633 14.4286 4.04969 14.4286 4.42857V21.5714C14.4286 21.9503 14.5791 22.3137 14.847 22.5816C15.1149 22.8495 15.4783 23 15.8571 23ZM15.8571 23H8M11.5714 18.7143V23M14.4286 10.1429H23M16.5714 18.7143H20.8571M4.42857 7.28571H14.4286V18.7143H4.42857C4.04969 18.7143 3.68633 18.5638 3.41842 18.2959C3.15051 18.028 3 17.6646 3 17.2857V8.71429C3 8.33541 3.15051 7.97204 3.41842 7.70413C3.68633 7.43622 4.04969 7.28571 4.42857 7.28571Z" stroke="white" stroke-width="1.5"/>
</svg>
