<svg width="26" height="26" viewBox="0 0 26 26" fill="none" xmlns="http://www.w3.org/2000/svg">
<path d="M9.2085 18.4166H6.407L6.72441 18.0992C6.92175 17.8948 7.03094 17.6212 7.02848 17.3371C7.02601 17.0531 6.91208 16.7814 6.71122 16.5805C6.51036 16.3797 6.23864 16.2657 5.9546 16.2633C5.67055 16.2608 5.3969 16.37 5.19258 16.5673L3.02591 18.734C2.82387 18.9377 2.71051 19.213 2.71051 19.4999C2.71051 19.7868 2.82387 20.0621 3.02591 20.2658L5.19258 22.4325C5.3969 22.6298 5.67055 22.739 5.9546 22.7366C6.23864 22.7341 6.51036 22.6202 6.71122 22.4193C6.91208 22.2184 7.02601 21.9467 7.02848 21.6627C7.03094 21.3786 6.92175 21.105 6.72441 20.9007L6.407 20.5833H9.2085C9.49581 20.5833 9.77136 20.4691 9.97453 20.266C10.1777 20.0628 10.2918 19.7872 10.2918 19.4999C10.2918 19.2126 10.1777 18.937 9.97453 18.7339C9.77136 18.5307 9.49581 18.4166 9.2085 18.4166ZM22.9744 18.734L20.8077 16.5673C20.6034 16.37 20.3298 16.2608 20.0457 16.2633C19.7617 16.2657 19.49 16.3797 19.2891 16.5805C19.0883 16.7814 18.9743 17.0531 18.9718 17.3371C18.9694 17.6212 19.0786 17.8948 19.2759 18.0992L19.5933 18.4166H16.7918C16.5045 18.4166 16.229 18.5307 16.0258 18.7339C15.8226 18.937 15.7085 19.2126 15.7085 19.4999C15.7085 19.7872 15.8226 20.0628 16.0258 20.266C16.229 20.4691 16.5045 20.5833 16.7918 20.5833H19.5933L19.2759 20.9007C19.1724 21.0006 19.0899 21.1201 19.0331 21.2523C18.9764 21.3845 18.9465 21.5266 18.9452 21.6705C18.944 21.8143 18.9714 21.957 19.0259 22.0901C19.0803 22.2233 19.1608 22.3442 19.2625 22.4459C19.3642 22.5476 19.4852 22.6281 19.6183 22.6826C19.7514 22.737 19.8941 22.7644 20.0379 22.7632C20.1818 22.7619 20.3239 22.7321 20.4561 22.6753C20.5883 22.6185 20.7078 22.536 20.8077 22.4325L22.9744 20.2658C23.1765 20.0621 23.2898 19.7868 23.2898 19.4999C23.2898 19.213 23.1765 18.9377 22.9744 18.734ZM22.3602 10.5863C22.9571 9.90487 23.288 9.03082 23.2918 8.12492C23.2918 7.11931 22.8924 6.15488 22.1813 5.44381C21.4702 4.73273 20.5058 4.33325 19.5002 4.33325C18.4946 4.33325 17.5301 4.73273 16.8191 5.44381C16.108 6.15488 15.7085 7.11931 15.7085 8.12492C15.7123 9.03082 16.0432 9.90487 16.6402 10.5863C15.8603 11.0699 15.2163 11.7442 14.769 12.5455C14.3217 13.3469 14.0858 14.2489 14.0835 15.1666C14.0835 15.4539 14.1976 15.7295 14.4008 15.9326C14.604 16.1358 14.8795 16.2499 15.1668 16.2499C15.4541 16.2499 15.7297 16.1358 15.9329 15.9326C16.136 15.7295 16.2502 15.4539 16.2502 15.1666C16.2502 14.3046 16.5926 13.478 17.2021 12.8685C17.8116 12.259 18.6382 11.9166 19.5002 11.9166C20.3621 11.9166 21.1888 12.259 21.7983 12.8685C22.4078 13.478 22.7502 14.3046 22.7502 15.1666C22.7502 15.4539 22.8643 15.7295 23.0675 15.9326C23.2706 16.1358 23.5462 16.2499 23.8335 16.2499C24.1208 16.2499 24.3964 16.1358 24.5995 15.9326C24.8027 15.7295 24.9168 15.4539 24.9168 15.1666C24.9145 14.2489 24.6786 13.3469 24.2313 12.5455C23.784 11.7442 23.1401 11.0699 22.3602 10.5863ZM19.5002 9.74992C19.1788 9.74992 18.8646 9.65461 18.5974 9.47606C18.3301 9.2975 18.1219 9.04371 17.9989 8.74678C17.8759 8.44985 17.8437 8.12312 17.9064 7.8079C17.9691 7.49268 18.1239 7.20313 18.3511 6.97587C18.5784 6.74861 18.8679 6.59384 19.1831 6.53114C19.4984 6.46844 19.8251 6.50062 20.122 6.62361C20.419 6.74661 20.6727 6.95489 20.8513 7.22212C21.0299 7.48935 21.1252 7.80352 21.1252 8.12492C21.1252 8.5559 20.954 8.96922 20.6492 9.27397C20.3445 9.57871 19.9311 9.74992 19.5002 9.74992ZM9.36016 10.5863C9.95715 9.90487 10.288 9.03082 10.2918 8.12492C10.2918 7.11931 9.89235 6.15488 9.18128 5.44381C8.4702 4.73273 7.50578 4.33325 6.50016 4.33325C5.49455 4.33325 4.53013 4.73273 3.81905 5.44381C3.10797 6.15488 2.7085 7.11931 2.7085 8.12492C2.71233 9.03082 3.04318 9.90487 3.64016 10.5863C2.86026 11.0699 2.21633 11.7442 1.76904 12.5455C1.32175 13.3469 1.08583 14.2489 1.0835 15.1666C1.0835 15.4539 1.19763 15.7295 1.4008 15.9326C1.60396 16.1358 1.87951 16.2499 2.16683 16.2499C2.45415 16.2499 2.7297 16.1358 2.93286 15.9326C3.13603 15.7295 3.25016 15.4539 3.25016 15.1666C3.25016 14.3046 3.59257 13.478 4.20207 12.8685C4.81156 12.259 5.63821 11.9166 6.50016 11.9166C7.36212 11.9166 8.18877 12.259 8.79826 12.8685C9.40775 13.478 9.75016 14.3046 9.75016 15.1666C9.75016 15.4539 9.8643 15.7295 10.0675 15.9326C10.2706 16.1358 10.5462 16.2499 10.8335 16.2499C11.1208 16.2499 11.3964 16.1358 11.5995 15.9326C11.8027 15.7295 11.9168 15.4539 11.9168 15.1666C11.9145 14.2489 11.6786 13.3469 11.2313 12.5455C10.784 11.7442 10.1401 11.0699 9.36016 10.5863ZM6.50016 9.74992C6.17877 9.74992 5.86459 9.65461 5.59736 9.47606C5.33013 9.2975 5.12185 9.04371 4.99886 8.74678C4.87587 8.44985 4.84369 8.12312 4.90639 7.8079C4.96909 7.49268 5.12385 7.20313 5.35111 6.97587C5.57837 6.74861 5.86792 6.59384 6.18314 6.53114C6.49836 6.46844 6.82509 6.50062 7.12202 6.62361C7.41895 6.74661 7.67274 6.95489 7.8513 7.22212C8.02986 7.48935 8.12516 7.80352 8.12516 8.12492C8.12516 8.5559 7.95396 8.96922 7.64921 9.27397C7.34447 9.57871 6.93114 9.74992 6.50016 9.74992Z" fill="white"/>
</svg>
